<?xml version="1.0" encoding="UTF-8"?>
<svg width="100px" height="90px" viewBox="0 0 100 90" version="1.1" xmlns="http://www.w3.org/2000/svg" xmlns:xlink="http://www.w3.org/1999/xlink">
    <!-- Generator: Sketch 52.6 (67491) - http://www.bohemiancoding.com/sketch -->
    <title>Shape</title>
    <desc>Created with Sketch.</desc>
    <g id="Agency/Clients/Team" stroke="none" stroke-width="1" fill="none" fill-rule="evenodd">
        <g id="00-Dashboard-04-Vector-Agency-1" transform="translate(-184.000000, -180.000000)" fill="#2E5BFF" fill-rule="nonzero">
            <g id="domain" transform="translate(184.000000, 180.000000)">
                <path d="M79.3650794,59.5238095 L69.4444444,59.5238095 L69.4444444,69.4444444 L79.3650794,69.4444444 M79.3650794,39.6825397 L69.4444444,39.6825397 L69.4444444,49.6031746 L79.3650794,49.6031746 M89.2857143,79.3650794 L49.6031746,79.3650794 L49.6031746,69.4444444 L59.5238095,69.4444444 L59.5238095,59.5238095 L49.6031746,59.5238095 L49.6031746,49.6031746 L59.5238095,49.6031746 L59.5238095,39.6825397 L49.6031746,39.6825397 L49.6031746,29.7619048 L89.2857143,29.7619048 M39.6825397,19.8412698 L29.7619048,19.8412698 L29.7619048,9.92063492 L39.6825397,9.92063492 M39.6825397,39.6825397 L29.7619048,39.6825397 L29.7619048,29.7619048 L39.6825397,29.7619048 M39.6825397,59.5238095 L29.7619048,59.5238095 L29.7619048,49.6031746 L39.6825397,49.6031746 M39.6825397,79.3650794 L29.7619048,79.3650794 L29.7619048,69.4444444 L39.6825397,69.4444444 M19.8412698,19.8412698 L9.92063492,19.8412698 L9.92063492,9.92063492 L19.8412698,9.92063492 M19.8412698,39.6825397 L9.92063492,39.6825397 L9.92063492,29.7619048 L19.8412698,29.7619048 M19.8412698,59.5238095 L9.92063492,59.5238095 L9.92063492,49.6031746 L19.8412698,49.6031746 M19.8412698,79.3650794 L9.92063492,79.3650794 L9.92063492,69.4444444 L19.8412698,69.4444444 M49.6031746,19.8412698 L49.6031746,0 L0,0 L0,89.2857143 L99.2063492,89.2857143 L99.2063492,19.8412698 L49.6031746,19.8412698 Z" id="Shape"></path>
            </g>
        </g>
    </g>
</svg>