<?xml version="1.0" encoding="UTF-8"?>
<svg width="261px" height="37px" viewBox="0 0 261 37" version="1.1" xmlns="http://www.w3.org/2000/svg" xmlns:xlink="http://www.w3.org/1999/xlink">
    <!-- Generator: Sketch 52.6 (67491) - http://www.bohemiancoding.com/sketch -->
    <title>Group</title>
    <desc>Created with Sketch.</desc>
    <g id="SignIn/Signup" stroke="none" stroke-width="1" fill="none" fill-rule="evenodd">
        <g id="Login-Signup-Shapes" transform="translate(-79.000000, -28.000000)">
            <g id="Group" transform="translate(79.000000, 29.000000)">
                <text id="AIRBORNE" font-family="Helvetica" font-size="24" font-weight="normal" letter-spacing="8.5" fill="#4A4A4A">
                    <tspan x="77" y="26">AIRBORNE</tspan>
                </text>
                <g id="Group-2" stroke-width="0.687562087">
                    <path d="M8.78521585,9.29269738 L1.2416163,0.521396401 C1.15908157,0.425429351 1.16997061,0.280725063 1.26593766,0.198190328 C1.32063847,0.151145885 1.39429853,0.132605395 1.46475268,0.148147908 L33.1988683,7.14884034 C33.3500381,7.18218908 33.4741622,7.28958709 33.5288936,7.43439354 L37.9131076,19.034004 L32.3097915,23.5940886 L8.78521585,9.29269738 Z" id="Path-5" stroke="#C6D3FF" fill="#C6D3FF"></path>
                    <path d="M0.620448339,7.41071061 L30.6411085,11.1225998 C30.7904488,11.1410649 30.9212146,11.2316529 30.9909859,11.3649775 L35.2826988,19.5659234 C35.389196,19.7694267 35.6298674,19.8626909 35.8456847,19.78409 L43.2136875,17.1006545 C43.3286428,17.0587876 43.4555647,17.0646128 43.5662018,17.1168334 L51.3673831,20.7989809 C51.4818498,20.8530091 51.5308449,20.9896011 51.4768168,21.1040678 C51.4452482,21.1709505 51.3833444,21.2184888 51.3105803,21.2317271 L42.0128241,22.9233135 C41.975664,22.9300742 41.9407507,22.945914 41.9111897,22.9694241 L26.2197651,35.4489035 C26.1257841,35.5236472 25.9900462,35.5131803 25.9086352,35.424912 L0.423853005,7.79354969 C0.338036912,7.70050532 0.34389659,7.55551026 0.436940963,7.46969417 C0.486466862,7.42401575 0.553582953,7.40244308 0.620448339,7.41071061 Z" id="Path-2" stroke="#2E5BFF" fill="#2E5BFF"></path>
                    <polyline id="Path-3" stroke="#FFFFFF" points="9.64508433 18.4516981 23.5543007 16.7389566 22.4175028 15.7395655"></polyline>
                    <polyline id="Path-3" stroke="#FFFFFF" points="16.2915178 25.7856937 29.8810076 22.7466302 28.7393803 21.8278445"></polyline>
                </g>
            </g>
        </g>
    </g>
</svg>