<?xml version="1.0" encoding="UTF-8"?>
<svg width="104px" height="33px" viewBox="0 0 104 33" version="1.1" xmlns="http://www.w3.org/2000/svg" xmlns:xlink="http://www.w3.org/1999/xlink">
    <!-- Generator: Sketch 52.6 (67491) - http://www.bohemiancoding.com/sketch -->
    <title>airbnb</title>
    <desc>Created with Sketch.</desc>
    <g id="Agency/Clients/Team" stroke="none" stroke-width="1" fill="none" fill-rule="evenodd">
        <g id="00-Dashboard-04-Vector-Agency-2" transform="translate(-381.000000, -214.000000)" fill="#FF5A5F" fill-rule="nonzero">
            <g id="Group-9" transform="translate(130.000000, 201.000000)">
                <g id="airbnb" transform="translate(251.000000, 13.000000)">
                    <path d="M54.6228419,8.15967874 C54.6228419,9.32535604 53.6835725,10.2639786 52.5178952,10.2639786 C51.3522179,10.2639786 50.4135954,9.32535604 50.4135954,8.15967874 C50.4135954,6.99400144 51.3201973,6.05537893 52.5178952,6.05537893 C53.7165633,6.08772292 54.6228419,7.02666887 54.6228419,8.15967874 Z M45.945597,12.4012692 L45.945597,12.9194199 C45.945597,12.9194199 44.9422865,11.6237198 42.8053192,11.6237198 C39.2765902,11.6237198 36.5241169,14.3111817 36.5241169,18.0342981 C36.5241169,21.7253939 39.2442462,24.4448763 42.8053192,24.4448763 C44.9746305,24.4448763 45.945597,23.1174791 45.945597,23.1174791 L45.945597,23.6676503 C45.945597,23.9267256 46.1403078,24.1204661 46.3990597,24.1204661 L49.0211867,24.1204661 L49.0211867,11.9465128 L46.3990597,11.9465128 C46.1403078,11.9474831 45.945597,12.1745379 45.945597,12.4012692 Z M45.945597,20.2036093 C45.4604372,20.9161473 44.4888238,21.53133 43.3234699,21.53133 C41.2515141,21.53133 39.6647181,20.2362767 39.6647181,18.0342981 C39.6647181,15.8326428 41.2515141,14.5375896 43.3234699,14.5375896 C44.4568032,14.5375896 45.4927811,15.1851162 45.945597,15.8649868 L45.945597,20.2036093 Z M50.96409,11.9474831 L54.0720238,11.9474831 L54.0720238,24.1214365 L50.96409,24.1214365 L50.96409,11.9474831 Z M97.3922665,11.6233963 C95.2552993,11.6233963 94.2513419,12.9190965 94.2513419,12.9190965 L94.2513419,6.08772292 L91.1434082,6.08772292 L91.1434082,24.1214365 L93.7661821,24.1214365 C94.0252574,24.1214365 94.2189979,23.8947051 94.2189979,23.6679738 L94.2189979,23.1178025 C94.2189979,23.1178025 95.2229553,24.4451998 97.3592757,24.4451998 C100.888652,24.4451998 103.640478,21.7263642 103.640478,18.0352684 C103.640478,14.3441725 100.888652,11.6233963 97.3922665,11.6233963 Z M96.8741158,21.4986625 C95.6757711,21.4986625 94.7371486,20.8841268 94.2513419,20.1712653 L94.2513419,15.8326428 C94.7371486,15.1851162 95.7731265,14.5052456 96.8741158,14.5052456 C98.9460717,14.5052456 100.532544,15.8002989 100.532544,18.0019541 C100.532544,20.2036093 98.9463951,21.4986625 96.8741158,21.4986625 Z M89.5249151,16.9016116 L89.5249151,24.1537804 L86.4163344,24.1537804 L86.4163344,17.2573955 C86.4163344,15.2504511 85.7688078,14.4405576 84.0215856,14.4405576 C83.0829631,14.4405576 82.1113497,14.9263643 81.4951968,15.6389024 L81.4951968,24.1217599 L78.3879099,24.1217599 L78.3879099,11.9478065 L80.8476702,11.9478065 C81.1067455,11.9478065 81.3011329,12.1745379 81.3011329,12.4012692 L81.3011329,12.9194199 C82.2077348,11.9801505 83.4054327,11.6237198 84.6031305,11.6237198 C85.9631952,11.6237198 87.0965285,12.0128179 88.0031305,12.7897205 C89.1034729,13.6963225 89.5249151,14.8616763 89.5249151,16.9016116 Z M70.843028,11.6233963 C68.7067077,11.6233963 67.7027503,12.9190965 67.7027503,12.9190965 L67.7027503,6.08772292 L64.5948166,6.08772292 L64.5948166,24.1214365 L67.2169436,24.1214365 C67.476019,24.1214365 67.6704063,23.8947051 67.6704063,23.6679738 L67.6704063,23.1178025 C67.6704063,23.1178025 68.6743637,24.4451998 70.810684,24.4451998 C74.3400599,24.4451998 77.0918864,21.7263642 77.0918864,18.0352684 C77.1242303,14.3438491 74.3724039,11.6233963 70.843028,11.6233963 Z M70.3248774,21.4986625 C69.1271795,21.4986625 68.188557,20.8841268 67.7027503,20.1712653 L67.7027503,15.8326428 C68.188557,15.1851162 69.2245349,14.5052456 70.3248774,14.5052456 C72.3974801,14.5052456 73.9836292,15.8002989 73.9836292,18.0019541 C73.9836292,20.2036093 72.3974801,21.4986625 70.3248774,21.4986625 Z M61.9073547,11.6233963 C62.8459772,11.6233963 63.3317839,11.7857632 63.3317839,11.7857632 L63.3317839,14.6669655 C63.3317839,14.6669655 60.7416774,13.7927076 59.1231842,15.6385789 L59.1231842,24.153457 L56.0146036,24.153457 L56.0146036,11.9474831 L58.6373776,11.9474831 C58.8964529,11.9474831 59.0901934,12.1742144 59.0901934,12.4009458 L59.0901934,12.9190965 C59.6736789,12.2389024 60.9363882,11.6233963 61.9073547,11.6233963 Z M29.6283788,23.0204471 C29.4666589,22.6319958 29.3046155,22.2112006 29.1428956,21.8547698 C28.8834968,21.2722546 28.6244215,20.7214365 28.398337,20.2036093 L28.365993,20.1712653 C26.1316704,15.3144922 23.7362747,10.3936779 21.2105327,5.5375517 L21.1135008,5.34284089 C20.8478501,4.83907359 20.5889671,4.33176645 20.3369216,3.82105629 C20.0128349,3.2378942 19.689395,2.62335845 19.1712443,2.04019636 C18.1352664,0.745143107 16.6458258,0.0326050679 15.0596767,0.0326050679 C13.4405367,0.0326050679 11.9837635,0.745143107 10.915765,1.97518494 C10.4299583,2.55770015 10.0735276,3.17288279 9.75008771,3.75604488 C9.49740397,4.26643444 9.23852514,4.77373346 8.97350858,5.27782948 L8.87615318,5.47254028 C6.38307864,10.3286665 3.95501552,15.2498042 1.72101632,20.1062539 L1.68834889,20.1706184 C1.46194098,20.689416 1.2025422,21.2395872 0.943466863,21.821779 C0.781746927,22.1782097 0.620026991,22.566661 0.458307054,22.9874563 C0.0371883403,24.1851541 -0.0925110486,25.3184874 0.0698557674,26.4844882 C0.425963067,28.9128747 2.04445619,30.9518397 4.27877883,31.8590885 C5.12069282,32.2155193 5.99495079,32.3772392 6.90122931,32.3772392 C7.16030465,32.3772392 7.48374452,32.3448952 7.7431433,32.3122278 C8.81178864,32.1828518 9.91245453,31.827068 10.9810999,31.2118853 C12.3084971,30.4670033 13.5712064,29.3990049 14.9956356,27.8448763 C16.4200648,29.3990049 17.715118,30.4670033 19.0101713,31.2118853 C20.07914,31.827068 21.1794825,32.1828518 22.2478044,32.3122278 C22.5068797,32.3452186 22.8309665,32.3772392 23.0900418,32.3772392 C23.9966438,32.3772392 24.9029223,32.2155193 25.7121689,31.8590885 C27.9788355,30.9518397 29.5649846,28.8805307 29.9214154,26.4844882 C30.1785501,25.3514783 30.0491741,24.2187919 29.6283788,23.0204471 Z M15.0270092,24.7039517 C13.2784933,22.5022964 12.14516,20.4303406 11.7570321,18.6824716 C11.5953122,17.9375895 11.5626448,17.2900629 11.6600002,16.7072243 C11.7243647,16.1890736 11.9190755,15.7356109 12.1781508,15.3471596 C12.7933335,14.4735485 13.8293114,13.9227304 15.0273327,13.9227304 C16.2256774,13.9227304 17.2939993,14.4408811 17.8768379,15.3471596 C18.1359133,15.7356109 18.3299772,16.189397 18.3953121,16.7072243 C18.4920206,17.2903863 18.4596766,17.9699335 18.2979567,18.6824716 C17.9082116,20.3979966 16.7748783,22.4702759 15.0270092,24.7039517 Z M27.9445509,26.2257363 C27.7181429,27.9092408 26.5848096,29.3666609 24.9986605,30.0141875 C24.2217579,30.3376274 23.3795205,30.4349828 22.5382534,30.3376274 C21.7290068,30.240272 20.9191134,29.9811966 20.0778463,29.4960368 C18.912169,28.8478633 17.7468151,27.8448763 16.3867505,26.3551122 C18.5233943,23.7329852 19.8184475,21.3366191 20.3042542,19.2002988 C20.5309855,18.1963414 20.563653,17.2900629 20.4659741,16.4478255 C20.3369216,15.6385789 20.0451789,14.8936969 19.5920396,14.2461703 C18.5877588,12.7887502 16.9039308,11.9474831 15.0266858,11.9474831 C13.1494408,11.9474831 11.4656128,12.8217411 10.4619789,14.2461703 C10.0088396,14.8936969 9.71709684,15.6385789 9.5877209,16.4478255 C9.45834495,17.2900629 9.49036549,18.2286854 9.74944083,19.2002988 C10.2349241,21.3366191 11.5623213,23.7650057 13.6666211,26.3874562 C12.3392239,27.8768968 11.1412026,28.8808542 9.9755253,29.5283808 C9.13361131,30.0141875 8.32468819,30.2732628 7.51544163,30.3699713 C6.6415071,30.4673267 5.79926967,30.3376274 5.05471108,30.0465315 C3.46856195,29.3990049 2.33522863,27.9415848 2.10882072,26.2580802 C2.01178876,25.4488337 2.0761533,24.6395871 2.40024005,23.7329852 C2.49694857,23.4088984 2.65931539,23.0854585 2.82103532,22.6970073 C3.04776667,22.1788566 3.30619513,21.6280385 3.56559391,21.0778673 L3.59826134,21.0135027 C5.8319371,16.1890736 8.22765623,11.2679359 10.7207308,6.47649765 L10.8177627,6.28178684 C11.0771615,5.79662704 11.3362368,5.27847636 11.5949887,4.79266967 C11.8540641,4.274519 12.14516,3.78871231 12.5015907,3.36759359 C13.1814613,2.5913379 14.0877398,2.16989575 15.0916972,2.16989575 C16.0956546,2.16989575 17.0019331,2.5913379 17.6818037,3.36759359 C18.0382344,3.78968263 18.3293303,4.27548932 18.5884057,4.79266967 C18.8478044,5.27847636 19.1068798,5.79662704 19.3653082,6.28178684 L19.4626636,6.47649765 C21.9177217,11.2878442 24.2816268,16.1451612 26.5531125,21.0458467 L26.5531125,21.0781907 C26.8125113,21.5969882 27.0389192,22.17918 27.2979946,22.6979776 C27.4597145,23.085782 27.6217579,23.4092219 27.7187898,23.7333086 C27.9772183,24.5742523 28.0742502,25.3841457 27.9445509,26.2257363 Z" id="Shape"></path>
                </g>
            </g>
        </g>
    </g>
</svg>