<?xml version="1.0" encoding="UTF-8"?>
<svg width="44px" height="44px" viewBox="0 0 44 44" version="1.1" xmlns="http://www.w3.org/2000/svg" xmlns:xlink="http://www.w3.org/1999/xlink">
    <!-- Generator: Sketch 52.6 (67491) - http://www.bohemiancoding.com/sketch -->
    <title>Shape</title>
    <desc>Created with Sketch.</desc>
    <defs>
        <filter x="-7.9%" y="-59.6%" width="115.8%" height="219.2%" filterUnits="objectBoundingBox" id="filter-1">
            <feOffset dx="0" dy="4" in="SourceAlpha" result="shadowOffsetOuter1"></feOffset>
            <feGaussianBlur stdDeviation="6" in="shadowOffsetOuter1" result="shadowBlurOuter1"></feGaussianBlur>
            <feColorMatrix values="0 0 0 0 0   0 0 0 0 0   0 0 0 0 0  0 0 0 0.150595498 0" type="matrix" in="shadowBlurOuter1" result="shadowMatrixOuter1"></feColorMatrix>
            <feMerge>
                <feMergeNode in="shadowMatrixOuter1"></feMergeNode>
                <feMergeNode in="SourceGraphic"></feMergeNode>
            </feMerge>
        </filter>
    </defs>
    <g id="Agency/Clients/Team" stroke="none" stroke-width="1" fill="none" fill-rule="evenodd">
        <g id="00-Dashboard-04-Vector-Agency-3" transform="translate(-905.000000, -35.000000)" fill="#FFFFFF" fill-rule="nonzero">
            <g id="Group-2" filter="url(#filter-1)" transform="translate(898.000000, 27.000000)">
                <g id="alert-circle-outline" transform="translate(19.000000, 16.000000)">
                    <path d="M9,13 L11,13 L11,15 L9,15 L9,13 M9,5 L11,5 L11,11 L9,11 L9,5 M10,0 C4.47,0 0,4.5 0,10 C-2.22044605e-16,12.6521649 1.0535684,15.195704 2.92893219,17.0710678 C4.80429597,18.9464316 7.3478351,20 10,20 C15.5228475,20 20,15.5228475 20,10 C20,7.3478351 18.9464316,4.80429597 17.0710678,2.92893219 C15.195704,1.0535684 12.6521649,-2.22044605e-16 10,-4.4408921e-16 M10,18 C5.581722,18 2,14.418278 2,10 C2,5.581722 5.581722,2 10,2 C12.1217319,2 14.1565632,2.84285472 15.6568542,4.34314575 C17.1571453,5.84343678 18,7.87826808 18,10 C18,14.418278 14.418278,18 10,18 Z" id="Shape"></path>
                </g>
            </g>
        </g>
    </g>
</svg>