<?xml version="1.0" encoding="UTF-8"?>
<svg width="54px" height="61px" viewBox="0 0 54 61" version="1.1" xmlns="http://www.w3.org/2000/svg" xmlns:xlink="http://www.w3.org/1999/xlink">
    <!-- Generator: Sketch 52.6 (67491) - http://www.bohemiancoding.com/sketch -->
    <title>antenna</title>
    <desc>Created with Sketch.</desc>
    <g id="Agency/Clients/Team" stroke="none" stroke-width="1" fill="none" fill-rule="evenodd">
        <g id="00-Dashboard-04-Vector-Agency-6" transform="translate(-1239.000000, -713.000000)" fill-rule="nonzero">
            <g id="Group-2" transform="translate(960.000000, -93.000000)">
                <g id="Group-6" transform="translate(28.000000, 184.000000)">
                    <g id="antenna" transform="translate(251.000000, 622.000000)">
                        <path d="M15.361792,57.987584 C14.796288,57.988352 14.337152,57.530624 14.336384,56.964992 C14.335872,56.584192 14.546688,56.234624 14.883584,56.057344 L32.513792,46.77888 L19.02464,40.483328 C18.512128,40.244096 18.290688,39.634816 18.52992,39.122304 C18.609152,38.952448 18.733568,38.80768 18.889472,38.703616 L30.064384,31.254016 L22.88,24.965632 C22.43072,24.62208 22.34496,23.97952 22.688512,23.53024 C23.032064,23.08096 23.674624,22.9952 24.123904,23.338752 C24.160512,23.366656 24.195072,23.39712 24.227584,23.42976 L32.419584,30.59776 C32.845824,30.969472 32.889984,31.616256 32.518272,32.042496 C32.459264,32.11008 32.39168,32.169728 32.317184,32.219776 L21.540608,39.398016 L35.250944,45.795968 C35.763456,46.0352 35.985024,46.64448 35.745792,47.156992 C35.6512,47.359616 35.492864,47.52576 35.294976,47.629952 L15.838976,57.869952 C15.691776,57.947264 15.528064,57.987584 15.361792,57.987584 Z" id="Path" fill="#3B869E"></path>
                        <g id="Group" fill="#F7BA61">
                            <path d="M47.465216,31.875584 C47.251968,31.87584 47.044224,31.808896 46.871296,31.684096 C46.409984,31.356928 46.301312,30.717696 46.62848,30.256384 C46.629888,30.254336 46.631296,30.252416 46.632704,30.250368 C52.724864,21.723264 52.724864,10.267264 46.632704,1.74016 C46.30784,1.277184 46.41984,0.638592 46.882688,0.313728 C47.339904,-0.007168 47.96992,0.097664 48.298752,0.549248 C54.900096,9.788672 54.900096,22.201856 48.298752,31.44128 C48.107648,31.71264 47.796992,31.874432 47.465216,31.875584 Z" id="Path"></path>
                            <path d="M41.166592,28.320256 C40.601088,28.319488 40.143232,27.86048 40.143872,27.294976 C40.144128,27.067648 40.220032,26.846976 40.35968,26.66752 C45.254528,20.400768 45.254528,11.6064 40.35968,5.339648 C40.01216,4.89344 40.09216,4.249984 40.538368,3.902464 C40.984576,3.554944 41.628032,3.634944 41.975552,4.081152 C47.4464,11.088 47.4464,20.919168 41.975552,27.926016 C41.78112,28.175232 41.482624,28.32064 41.166592,28.320256 Z" id="SVGCleanerId_0"></path>
                            <path d="M5.786368,31.875584 C5.455488,31.875584 5.145088,31.71584 4.952832,31.446528 C-1.648512,22.207104 -1.648512,9.79392 4.952832,0.554496 C5.285632,0.09728 5.926144,-0.003456 6.38336,0.329344 C6.834944,0.658176 6.939776,1.288192 6.61888,1.745408 C0.52672,10.272512 0.52672,21.728512 6.61888,30.255616 C6.949376,30.714624 6.845184,31.354496 6.386304,31.684992 C6.384384,31.6864 6.382336,31.687808 6.380288,31.689216 C6.20672,31.812096 5.998976,31.877376 5.786368,31.875584 Z" id="Path"></path>
                            <path d="M12.084992,28.320256 C11.76896,28.320768 11.470336,28.175232 11.276032,27.926016 C5.805184,20.919168 5.805184,11.088 11.276032,4.081152 C11.623552,3.634944 12.267008,3.554944 12.713216,3.902464 C13.159424,4.249984 13.239424,4.89344 12.891904,5.339648 C7.997056,11.6064 7.997056,20.400768 12.891904,26.66752 C13.239168,27.113856 13.158784,27.757312 12.712448,28.104448 C12.532992,28.243968 12.312192,28.319872 12.084992,28.320256 Z" id="SVGCleanerId_1"></path>
                            <path d="M12.084992,28.320256 C11.76896,28.320768 11.470336,28.175232 11.276032,27.926016 C5.805184,20.919168 5.805184,11.088 11.276032,4.081152 C11.623552,3.634944 12.267008,3.554944 12.713216,3.902464 C13.159424,4.249984 13.239424,4.89344 12.891904,5.339648 C7.997056,11.6064 7.997056,20.400768 12.891904,26.66752 C13.239168,27.113856 13.158784,27.757312 12.712448,28.104448 C12.532992,28.243968 12.312192,28.319872 12.084992,28.320256 Z" id="SVGCleanerId_1_1_"></path>
                            <path d="M18.424576,24.734208 C18.142208,24.73408 17.872512,24.617344 17.679104,24.411648 C13.224192,19.691392 13.224192,12.315776 17.679104,7.59552 C18.063232,7.180416 18.711168,7.155456 19.126144,7.539584 C19.541248,7.923712 19.566208,8.571648 19.18208,8.986624 C19.178368,8.990592 19.174784,8.99456 19.170944,8.9984 C15.45728,12.930304 15.45728,19.076864 19.170944,23.008768 C19.5584,23.4208 19.538432,24.068864 19.1264,24.456192 C18.936448,24.63488 18.68544,24.734336 18.424576,24.734208 Z" id="SVGCleanerId_2"></path>
                            <path d="M41.166592,28.320256 C40.601088,28.319488 40.143232,27.86048 40.143872,27.294976 C40.144128,27.067648 40.220032,26.846976 40.35968,26.66752 C45.254528,20.400768 45.254528,11.6064 40.35968,5.339648 C40.01216,4.89344 40.09216,4.249984 40.538368,3.902464 C40.984576,3.554944 41.628032,3.634944 41.975552,4.081152 C47.4464,11.088 47.4464,20.919168 41.975552,27.926016 C41.78112,28.175232 41.482624,28.32064 41.166592,28.320256 Z" id="SVGCleanerId_0_1_"></path>
                            <path d="M34.827008,24.734208 C34.261504,24.734464 33.802752,24.276224 33.802496,23.71072 C33.802368,23.449856 33.901824,23.198848 34.080512,23.008768 C37.794176,19.076864 37.794176,12.930304 34.080512,8.9984 C33.689856,8.58944 33.704704,7.941248 34.113664,7.550592 C34.522624,7.159936 35.170816,7.174784 35.561472,7.583744 C35.565184,7.587584 35.568896,7.591552 35.572608,7.59552 C40.02752,12.315776 40.02752,19.691392 35.572608,24.411648 C35.379072,24.617344 35.109376,24.73408 34.827008,24.734208 Z" id="SVGCleanerId_3"></path>
                            <path d="M34.827008,24.734208 C34.261504,24.734464 33.802752,24.276224 33.802496,23.71072 C33.802368,23.449856 33.901824,23.198848 34.080512,23.008768 C37.794176,19.076864 37.794176,12.930304 34.080512,8.9984 C33.689856,8.58944 33.704704,7.941248 34.113664,7.550592 C34.522624,7.159936 35.170816,7.174784 35.561472,7.583744 C35.565184,7.587584 35.568896,7.591552 35.572608,7.59552 C40.02752,12.315776 40.02752,19.691392 35.572608,24.411648 C35.379072,24.617344 35.109376,24.73408 34.827008,24.734208 Z" id="SVGCleanerId_3_1_"></path>
                            <path d="M18.424576,24.734208 C18.142208,24.73408 17.872512,24.617344 17.679104,24.411648 C13.224192,19.691392 13.224192,12.315776 17.679104,7.59552 C18.063232,7.180416 18.711168,7.155456 19.126144,7.539584 C19.541248,7.923712 19.566208,8.571648 19.18208,8.986624 C19.178368,8.990592 19.174784,8.99456 19.170944,8.9984 C15.45728,12.930304 15.45728,19.076864 19.170944,23.008768 C19.5584,23.4208 19.538432,24.068864 19.1264,24.456192 C18.936448,24.63488 18.68544,24.734336 18.424576,24.734208 Z" id="SVGCleanerId_2_1_"></path>
                        </g>
                        <path d="M38.913792,60.035584 C38.446592,60.035328 38.038912,59.71904 37.92256,59.26656 L27.879168,20.099584 L25.372416,20.099584 L15.330048,59.26656 C15.188608,59.814528 14.62976,60.144256 14.081792,60.002816 C13.533824,59.861376 13.204096,59.302528 13.345536,58.75456 L23.585536,18.81856 C23.702784,18.366592 24.110848,18.051072 24.577792,18.051584 L28.673792,18.051584 C29.141376,18.051328 29.549696,18.367744 29.666048,18.820608 L39.906048,58.756608 C40.046976,59.30432 39.71712,59.862528 39.169408,60.003456 C39.168896,60.003584 39.168256,60.003712 39.167744,60.00384 C39.084672,60.024832 38.999424,60.035456 38.913792,60.035584 Z" id="Path" fill="#69B0BB"></path>
                        <path d="M26.625792,21.123584 C23.798144,21.123584 21.505792,18.831232 21.505792,16.003584 C21.505792,13.175936 23.798144,10.883584 26.625792,10.883584 C29.45344,10.883584 31.745792,13.175936 31.745792,16.003584 C31.742336,18.829824 29.452032,21.120128 26.625792,21.123584 Z" id="Path" fill="#C5D3FF"></path>
                        <path d="M48.298752,0.557568 C47.965824,0.100352 47.32544,-0.000384 46.868224,0.332544 C46.41664,0.661376 46.311936,1.291264 46.632704,1.74848 C52.724864,10.275584 52.724864,21.731584 46.632704,30.258688 C46.302208,30.717696 46.4064,31.357568 46.865408,31.688064 C46.867328,31.689472 46.869376,31.69088 46.871424,31.692288 C47.331328,32.02048 47.970048,31.914112 48.29888,31.45472 C54.900224,22.215296 54.900224,9.802112 48.29888,0.562688 L48.298752,0.557568 Z" id="Path" fill="#2E5BFF"></path>
                        <path d="M6.380288,0.32 C5.920384,-0.008192 5.281664,0.098176 4.952832,0.557568 C-1.648512,9.796992 -1.648512,22.210176 4.952832,31.4496 C5.28576,31.906816 5.926144,32.007552 6.38336,31.674624 C6.834944,31.345792 6.939648,30.715904 6.61888,30.258688 C0.52672,21.731584 0.52672,10.275584 6.61888,1.74848 C6.947456,1.288192 6.840704,0.648704 6.380416,0.320128 C6.380416,0.32 6.380288,0.32 6.380288,0.32 Z" id="Path" fill="#2E5BFF"></path>
                        <path d="M12.710656,3.902976 C12.265216,3.55776 11.624448,3.637376 11.277056,4.081152 C5.806208,11.088 5.806208,20.919168 11.277056,27.926016 C11.624576,28.372224 12.268032,28.452224 12.71424,28.104704 C13.160448,27.757184 13.240448,27.113728 12.892928,26.66752 C7.99808,20.400768 7.99808,11.6064 12.892928,5.339648 C13.239296,4.892544 13.15776,4.249344 12.710656,3.902976 C12.710656,3.902976 12.710656,3.902976 12.710656,3.902976 Z" id="Path" fill="#2E5BFF"></path>
                        <path d="M40.540928,3.902976 C40.097152,4.250368 40.017536,4.891136 40.362752,5.336576 C45.2576,11.603328 45.2576,20.397696 40.362752,26.664448 C40.015232,27.110656 40.095232,27.754112 40.54144,28.101632 C40.987648,28.449152 41.631104,28.369152 41.978624,27.922944 C47.449472,20.916096 47.449472,11.084928 41.978624,4.07808 C41.63008,3.632768 40.986496,3.554304 40.541056,3.902848 C40.541056,3.902848 40.540928,3.902848 40.540928,3.902976 Z" id="Path" fill="#2E5BFF"></path>
                        <path d="M34.124544,24.456704 C34.536576,24.84416 35.18464,24.824192 35.571968,24.41216 C35.572096,24.412032 35.572224,24.411776 35.57248,24.411648 C40.027392,19.691392 40.027392,12.315776 35.57248,7.59552 C35.188352,7.180416 34.540416,7.155456 34.12544,7.539584 C33.710336,7.923712 33.685376,8.571648 34.069504,8.986624 C34.073216,8.990592 34.0768,8.99456 34.08064,8.9984 C37.794304,12.930304 37.794304,19.076864 34.08064,23.008768 C33.692928,23.420544 33.712512,24.068608 34.12416,24.45632 C34.12416,24.45632 34.124416,24.456576 34.124544,24.456704 Z" id="Path" fill="#2E5BFF"></path>
                        <path d="M18.424576,24.734208 C18.99008,24.734464 19.448832,24.276224 19.449088,23.71072 C19.449216,23.449856 19.34976,23.198848 19.171072,23.008768 C15.457408,19.076864 15.457408,12.930304 19.171072,8.9984 C19.561728,8.58944 19.54688,7.941248 19.13792,7.550592 C18.72896,7.159936 18.080768,7.174784 17.690112,7.583744 C17.6864,7.587584 17.682688,7.591552 17.678976,7.59552 C13.224064,12.315776 13.224064,19.691392 17.678976,24.411648 C17.872512,24.617344 18.142208,24.73408 18.424576,24.734208 Z" id="Path" fill="#2E5BFF"></path>
                        <path d="M29.936384,19.876352 C32.09344,18.048 32.359808,14.817152 30.531456,12.660096 C28.703104,10.50304 25.472256,10.236672 23.3152,12.065024 C21.158144,13.893376 20.891776,17.124224 22.720128,19.28128 C22.901888,19.49568 23.1008,19.69472 23.3152,19.876352 L13.345536,58.756608 C13.204608,59.30432 13.534464,59.862528 14.082176,60.003456 C14.082688,60.003584 14.083328,60.003712 14.08384,60.00384 C14.166912,60.024832 14.25216,60.035456 14.337792,60.035584 C14.804992,60.035328 15.212672,59.71904 15.329024,59.26656 L15.67104,57.93536 C15.728384,57.919104 15.784192,57.897856 15.837952,57.871872 L34.979584,47.796736 L37.920512,59.265536 C38.036608,59.719168 38.445568,60.036224 38.913792,60.035584 C38.999808,60.035584 39.08544,60.02496 39.168768,60.00384 C39.716736,59.863936 40.047488,59.30624 39.907456,58.758272 C39.907328,58.75776 39.9072,58.75712 39.907072,58.756608 L29.936384,19.876352 Z M26.625792,12.931584 C28.322432,12.931584 29.697792,14.306944 29.697792,16.003584 C29.697792,17.700224 28.322432,19.075584 26.625792,19.075584 C24.929152,19.075584 23.553792,17.700224 23.553792,16.003584 C23.553792,14.306944 24.929152,12.931584 26.625792,12.931584 Z M26.625792,21.123584 C27.119744,21.116544 27.610112,21.036928 28.080896,20.88704 L30.034688,28.506624 L24.466176,23.633408 L25.170688,20.88704 C25.641472,21.0368 26.131712,21.116544 26.625792,21.123584 Z M23.896832,25.855488 L30.064384,31.254016 L20.950784,37.326336 L23.896832,25.855488 Z M16.349952,55.286272 L20.026112,40.950272 L32.518912,46.77888 L16.349952,55.286272 Z M21.540608,39.397888 L31.17952,32.971264 L34.361088,45.380096 L21.540608,39.397888 Z" id="Shape" fill="#2E5BFF"></path>
                    </g>
                </g>
            </g>
        </g>
    </g>
</svg>