<?xml version="1.0" encoding="UTF-8"?>
<svg width="24px" height="29px" viewBox="0 0 24 29" version="1.1" xmlns="http://www.w3.org/2000/svg" xmlns:xlink="http://www.w3.org/1999/xlink">
    <!-- Generator: Sketch 52.6 (67491) - http://www.bohemiancoding.com/sketch -->
    <title>apple-black (2)</title>
    <desc>Created with Sketch.</desc>
    <g id="Agency/Clients/Team" stroke="none" stroke-width="1" fill="none" fill-rule="evenodd">
        <g id="00-Dashboard-04-Vector-Agency-1" transform="translate(-162.000000, -571.000000)" fill="#000000" fill-rule="nonzero">
            <g id="Group-3" transform="translate(131.000000, 549.000000)">
                <g id="Group" transform="translate(21.000000, 15.000000)">
                    <g id="Group-4">
                        <g id="apple-black-(2)" transform="translate(10.500000, 7.300000)">
                            <path d="M19.3947209,15.151852 C19.4347994,19.4679011 23.1809907,20.9041566 23.222495,20.9224389 C23.1908193,21.0236791 22.6239152,22.969191 21.2488213,24.9787673 C20.0600643,26.716197 18.8263909,28.4471592 16.882916,28.4830109 C14.9732558,28.5182005 14.3591946,27.3506285 12.1759109,27.3506285 C9.99328931,27.3506285 9.31103863,28.4472101 7.50333152,28.5182514 C5.62738405,28.5892927 4.19881826,26.639554 3.00028354,24.9084899 C0.551117177,21.3676308 -1.32055253,14.9028766 1.19262735,10.5390593 C2.44112011,8.37197 4.67227385,6.99967703 7.0939913,6.96448742 C8.93612414,6.92934873 10.674827,8.20381357 11.8009964,8.20381357 C12.9264529,8.20381357 15.0393573,6.67115578 17.2606315,6.89624707 C18.1905335,6.93495055 20.8008285,7.27187452 22.4768929,9.72526771 C22.3418381,9.80898945 19.3623322,11.5435164 19.3947209,15.151852 M15.8057371,4.55366805 C16.8016897,3.3481056 17.4720237,1.66985143 17.2891498,0 C15.8535563,0.0576987397 14.1176034,0.956637975 13.0878871,2.1615384 C12.1650638,3.22853222 11.356874,4.93632324 11.5749375,6.57312394 C13.1750718,6.69692415 14.8097336,5.7599944 15.8057371,4.55366805" id="Shape"></path>
                        </g>
                    </g>
                </g>
            </g>
        </g>
    </g>
</svg>