<?xml version="1.0" encoding="UTF-8"?>
<svg width="123px" height="36px" viewBox="0 0 123 36" version="1.1" xmlns="http://www.w3.org/2000/svg" xmlns:xlink="http://www.w3.org/1999/xlink">
    <!-- Generator: Sketch 52.6 (67491) - http://www.bohemiancoding.com/sketch -->
    <title>Group 2</title>
    <desc>Created with Sketch.</desc>
    <g id="Symbols" stroke="none" stroke-width="1" fill="none" fill-rule="evenodd">
        <g id="Component/Header/agency-brand" transform="translate(-151.000000, -6.000000)" fill="#000000">
            <g id="Group-2" transform="translate(151.000000, 6.000000)">
                <text id="Apple-Inc" font-family="Rubik-Medium, Rubik" font-size="18" font-weight="400">
                    <tspan x="42" y="26">Apple Inc</tspan>
                </text>
                <g id="apple-black-(2)" fill-rule="nonzero">
                    <path d="M24.2434012,18.939815 C24.2934993,24.3348763 28.9762383,26.1301958 29.0281188,26.1530487 C28.9885241,26.2795989 28.279894,28.7114887 26.5610266,31.2234591 C25.0750804,33.3952463 23.5329886,35.558949 21.1036451,35.6037636 C18.7165698,35.6477506 17.9489932,34.1882857 15.2198886,34.1882857 C12.4916116,34.1882857 11.6387983,35.5590127 9.3791644,35.6478142 C7.03423007,35.7366158 5.24852282,33.2994424 3.75035442,31.1356124 C0.688896471,26.7095385 -1.65069067,18.6285957 1.49078418,13.1738241 C3.05140014,10.4649625 5.84034231,8.74959628 8.86748912,8.70560927 C11.1701552,8.66168591 13.3435338,10.254767 14.7512455,10.254767 C16.1580661,10.254767 18.7991966,8.33894473 21.5757893,8.62030884 C22.7381668,8.66868819 26.0010357,9.08984316 28.0961161,12.1565846 C27.9272976,12.2612368 24.2029153,14.4293955 24.2434012,18.939815 M19.7571714,5.69208507 C21.0021121,4.185132 21.8400297,2.08731429 21.6114373,0 C19.8169453,0.0721234246 17.6470042,1.19579747 16.3598589,2.701923 C15.2063297,4.03566527 14.1960925,6.17040406 14.4686719,8.21640493 C16.4688397,8.37115519 18.512167,7.199993 19.7571714,5.69208507" id="Shape"></path>
                </g>
            </g>
        </g>
    </g>
</svg>