<?xml version="1.0" encoding="UTF-8"?>
<svg width="43px" height="43px" viewBox="0 0 43 43" version="1.1" xmlns="http://www.w3.org/2000/svg" xmlns:xlink="http://www.w3.org/1999/xlink">
    <!-- Generator: Sketch 52.6 (67491) - http://www.bohemiancoding.com/sketch -->
    <title>Group 11</title>
    <desc>Created with Sketch.</desc>
    <g id="Symbols" stroke="none" stroke-width="1" fill="none" fill-rule="evenodd">
        <g id="Component/Header/agency" transform="translate(-7.000000, -6.000000)">
            <g id="Group-11" transform="translate(7.000000, 6.000000)">
                <circle id="Oval" fill="#F4F6FC" cx="21.5" cy="21.5" r="21.5"></circle>
                <g id="Group" transform="translate(7.000000, 12.000000)">
                    <path d="M14.5019381,21.9647776 C13.3017437,21.9647776 12.1168927,21.4197218 11.3416859,20.3858692 L0.789327204,6.314028 C-0.51827098,4.57048258 -0.164642267,2.0967864 1.57890316,0.789431764 C3.32269213,-0.518409965 5.79614476,-0.164537706 7.1034994,1.57900772 L17.6561017,15.6510925 C18.9634563,17.3946379 18.6098276,19.867847 16.8662822,21.1756887 C16.1565893,21.7075931 15.3256105,21.9647776 14.5019381,21.9647776" id="Fill-19" fill="#365158"></path>
                    <path d="M14.4956059,21.9647776 C13.6719336,21.9647776 12.8411983,21.7078366 12.1312619,21.1756887 C10.3877165,19.867847 10.0340878,17.3946379 11.3416859,15.6510925 L21.8938011,1.57900772 C23.2016429,-0.164781252 25.6750955,-0.517679327 27.4183974,0.789188219 C29.1619428,2.0967864 29.5155715,4.57023903 28.2082169,6.314028 L17.6561017,20.3858692 C16.8806514,21.4197218 15.6955568,21.9647776 14.4956059,21.9647776" id="Fill-20" fill="#5CC3E0"></path>
                </g>
            </g>
        </g>
    </g>
</svg>