<?xml version="1.0" encoding="UTF-8"?>
<svg width="19px" height="21px" viewBox="0 0 19 21" version="1.1" xmlns="http://www.w3.org/2000/svg" xmlns:xlink="http://www.w3.org/1999/xlink">
    <!-- Generator: Sketch 52.6 (67491) - http://www.bohemiancoding.com/sketch -->
    <title>calendar-check-outline</title>
    <desc>Created with Sketch.</desc>
    <g id="Agency/Clients/Team" stroke="none" stroke-width="1" fill="none" fill-rule="evenodd">
        <g id="00-Dashboard-05-Vector-Agency-Team-4" transform="translate(-1005.000000, -436.000000)" fill="#2E5BFF" fill-rule="nonzero">
            <g id="Group-3" transform="translate(128.000000, 409.000000)">
                <g id="calendar-check-outline" transform="translate(877.000000, 27.000000)">
                    <path d="M15.2173913,2.02898551 L15.2173913,0 L13.1884058,0 L13.1884058,2.02898551 L5.07246377,2.02898551 L5.07246377,0 L3.04347826,0 L3.04347826,2.02898551 L2.02898551,2.02898551 C0.908407754,2.02898551 0,2.93739326 0,4.05797101 L0,18.2608696 C0,19.3814473 0.908407754,20.2898551 2.02898551,20.2898551 L16.2318841,20.2898551 C17.3524618,20.2898551 18.2608696,19.3814473 18.2608696,18.2608696 L18.2608696,4.05797101 C18.2608696,2.93739326 17.3524618,2.02898551 16.2318841,2.02898551 L15.2173913,2.02898551 Z M16.2318841,18.2608696 L2.02898551,18.2608696 L2.02898551,8.11594203 L16.2318841,8.11594203 L16.2318841,18.2608696 M2.02898551,6.08695652 L2.02898551,4.05797101 L16.2318841,4.05797101 L16.2318841,6.08695652 L2.02898551,6.08695652 M7.66956522,16.6985507 L13.6956522,10.6826087 L12.6101449,9.60724638 L7.66956522,14.5478261 L5.52898551,12.4072464 L4.45362319,13.4826087 L7.66956522,16.6985507 Z" id="Shape"></path>
                </g>
            </g>
        </g>
    </g>
</svg>