<?xml version="1.0" encoding="UTF-8"?>
<svg width="11px" height="13px" viewBox="0 0 11 13" version="1.1" xmlns="http://www.w3.org/2000/svg" xmlns:xlink="http://www.w3.org/1999/xlink">
    <!-- Generator: Sketch 52.6 (67491) - http://www.bohemiancoding.com/sketch -->
    <title>calendar-check-outline</title>
    <desc>Created with Sketch.</desc>
    <g id="Prospects" stroke="none" stroke-width="1" fill="none" fill-rule="evenodd">
        <g id="03-Prospects-03-Detail" transform="translate(-310.000000, -333.000000)" fill="#FFFFFF" fill-rule="nonzero">
            <g id="Group-9" transform="translate(132.000000, 187.000000)">
                <g id="Group-11" transform="translate(8.000000, 0.000000)">
                    <g id="Group-10" transform="translate(157.000000, 137.000000)">
                        <g id="calendar-check-outline" transform="translate(13.000000, 9.000000)">
                            <path d="M9.16666667,1.22222222 L9.16666667,0 L7.94444444,0 L7.94444444,1.22222222 L3.05555556,1.22222222 L3.05555556,0 L1.83333333,0 L1.83333333,1.22222222 L1.22222222,1.22222222 C0.547207528,1.22222222 0,1.76942975 0,2.44444444 L0,11 C0,11.6750147 0.547207528,12.2222222 1.22222222,12.2222222 L9.77777778,12.2222222 C10.4527925,12.2222222 11,11.6750147 11,11 L11,2.44444444 C11,1.76942975 10.4527925,1.22222222 9.77777778,1.22222222 L9.16666667,1.22222222 Z M9.77777778,11 L1.22222222,11 L1.22222222,4.88888889 L9.77777778,4.88888889 L9.77777778,11 M1.22222222,3.66666667 L1.22222222,2.44444444 L9.77777778,2.44444444 L9.77777778,3.66666667 L1.22222222,3.66666667 M4.62,10.0588889 L8.25,6.435 L7.59611111,5.78722222 L4.62,8.76333333 L3.33055556,7.47388889 L2.68277778,8.12166667 L4.62,10.0588889 Z" id="Shape"></path>
                        </g>
                    </g>
                </g>
            </g>
        </g>
    </g>
</svg>