<?xml version="1.0" encoding="UTF-8"?>
<svg width="15px" height="15px" viewBox="0 0 15 15" version="1.1" xmlns="http://www.w3.org/2000/svg" xmlns:xlink="http://www.w3.org/1999/xlink">
    <!-- Generator: Sketch 52.6 (67491) - http://www.bohemiancoding.com/sketch -->
    <title>call-24px</title>
    <desc>Created with Sketch.</desc>
    <g id="Prospects" stroke="none" stroke-width="1" fill="none" fill-rule="evenodd">
        <g id="03-Prospects-04-Detail-Book-Meeting-1" transform="translate(-173.000000, -439.000000)">
            <g id="Group-9" transform="translate(132.000000, 187.000000)">
                <g id="Group-14" transform="translate(8.000000, 197.000000)">
                    <g id="Group-7" transform="translate(23.000000, 47.000000)">
                        <g id="call-24px" transform="translate(5.000000, 5.000000)">
                            <polygon id="Path" points="0 0 20 0 20 20 0 20"></polygon>
                            <path d="M19.175,13.3166667 C18.15,13.3166667 17.1583333,13.15 16.2333333,12.85 C15.9416667,12.75 15.6166667,12.825 15.3916667,13.05 L14.0833333,14.6916667 C11.725,13.5666667 9.51666667,11.4416667 8.34166667,9 L9.96666667,7.61666667 C10.1916667,7.38333333 10.2583333,7.05833333 10.1666667,6.76666667 C9.85833333,5.84166667 9.7,4.85 9.7,3.825 C9.7,3.375 9.325,3 8.875,3 L5.99166667,3 C5.54166667,3 5,3.2 5,3.825 C5,11.5666667 11.4416667,18 19.175,18 C19.7666667,18 20,17.475 20,17.0166667 L20,14.1416667 C20,13.6916667 19.625,13.3166667 19.175,13.3166667 Z" id="Path" fill="#2E5BFF" fill-rule="nonzero"></path>
                        </g>
                    </g>
                </g>
            </g>
        </g>
    </g>
</svg>