<?xml version="1.0" encoding="UTF-8"?>
<svg width="30px" height="30px" viewBox="0 0 30 30" version="1.1" xmlns="http://www.w3.org/2000/svg" xmlns:xlink="http://www.w3.org/1999/xlink">
    <!-- Generator: Sketch 52.6 (67491) - http://www.bohemiancoding.com/sketch -->
    <title>Group 15</title>
    <desc>Created with Sketch.</desc>
    <g id="Prospects" stroke="none" stroke-width="1" fill="none" fill-rule="evenodd">
        <g id="03-Prospects-03-Detail" transform="translate(-370.000000, -228.000000)">
            <g id="Group-9" transform="translate(132.000000, 187.000000)">
                <g id="Group-11" transform="translate(8.000000, 0.000000)">
                    <g id="Group-8" transform="translate(230.000000, 41.000000)">
                        <g id="Group-15">
                            <rect id="Rectangle" fill="#2E5BFF" x="0" y="0" width="30" height="30" rx="15"></rect>
                            <g id="phone-log-outline" transform="translate(9.000000, 11.000000)" fill="#FFFFFF" fill-rule="nonzero">
                                <path d="M9.44444444,6.94444444 C8.77777778,6.94444444 8.05555556,6.83333333 7.44444444,6.61111111 L7.27777778,6.61111111 C7.11111111,6.61111111 7,6.66666667 6.88888889,6.77777778 L5.66666667,8 C4.11111111,7.16666667 2.77777778,5.88888889 2,4.33333333 L3.22222222,3.11111111 C3.38888889,2.94444444 3.44444444,2.72222222 3.33333333,2.55555556 C3.16666667,1.94444444 3.05555556,1.22222222 3.05555556,0.555555556 C3.05555556,0.277777778 2.77777778,0 2.5,0 L0.555555556,0 C0.277777778,0 0,0.277777778 0,0.555555556 C0,5.77777778 4.22222222,10 9.44444444,10 C9.72222222,10 10,9.72222222 10,9.44444444 L10,7.5 C10,7.22222222 9.72222222,6.94444444 9.44444444,6.94444444 M1.11111111,1.11111111 L1.94444444,1.11111111 C2,1.61111111 2.11111111,2.11111111 2.22222222,2.55555556 L1.55555556,3.22222222 C1.33333333,2.55555556 1.16666667,1.83333333 1.11111111,1.11111111 M8.88888889,8.88888889 C8.16666667,8.83333333 7.44444444,8.66666667 6.77777778,8.44444444 L7.44444444,7.77777778 C7.88888889,7.88888889 8.38888889,8 8.88888889,8 L8.88888889,8.88888889 M5,0 L6.11111111,0 L6.11111111,1.11111111 L5,1.11111111 M6.66666667,0 L10,0 L10,1.11111111 L6.66666667,1.11111111 M5,1.66666667 L6.11111111,1.66666667 L6.11111111,2.77777778 L5,2.77777778 M6.66666667,1.66666667 L10,1.66666667 L10,2.77777778 L6.66666667,2.77777778 M5,3.33333333 L6.11111111,3.33333333 L6.11111111,4.44444444 L5,4.44444444 M6.66666667,3.33333333 L10,3.33333333 L10,4.44444444 L6.66666667,4.44444444 L6.66666667,3.33333333 Z" id="Shape"></path>
                            </g>
                        </g>
                    </g>
                </g>
            </g>
        </g>
    </g>
</svg>