<?xml version="1.0" encoding="UTF-8"?>
<svg width="20px" height="18px" viewBox="0 0 20 18" version="1.1" xmlns="http://www.w3.org/2000/svg" xmlns:xlink="http://www.w3.org/1999/xlink">
    <!-- Generator: Sketch 52.6 (67491) - http://www.bohemiancoding.com/sketch -->
    <title>domain (1)</title>
    <desc>Created with Sketch.</desc>
    <g id="Agency/Clients/Team" stroke="none" stroke-width="1" fill="none" fill-rule="evenodd">
        <g id="00-Dashboard-05-Vector-Agency-Team-4" transform="translate(-150.000000, -366.000000)" fill="#2E5BFF" fill-rule="nonzero">
            <g id="domain-(1)" transform="translate(150.000000, 366.000000)">
                <path d="M16,12 L14,12 L14,14 L16,14 M16,8 L14,8 L14,10 L16,10 M18,16 L10,16 L10,14 L12,14 L12,12 L10,12 L10,10 L12,10 L12,8 L10,8 L10,6 L18,6 M8,4 L6,4 L6,2 L8,2 M8,8 L6,8 L6,6 L8,6 M8,12 L6,12 L6,10 L8,10 M8,16 L6,16 L6,14 L8,14 M4,4 L2,4 L2,2 L4,2 M4,8 L2,8 L2,6 L4,6 M4,12 L2,12 L2,10 L4,10 M4,16 L2,16 L2,14 L4,14 M10,4 L10,0 L0,0 L0,18 L20,18 L20,4 L10,4 Z" id="Shape"></path>
            </g>
        </g>
    </g>
</svg>