<?xml version="1.0" encoding="UTF-8"?>
<svg width="31px" height="31px" viewBox="0 0 31 31" version="1.1" xmlns="http://www.w3.org/2000/svg" xmlns:xlink="http://www.w3.org/1999/xlink">
    <!-- Generator: Sketch 52.6 (67491) - http://www.bohemiancoding.com/sketch -->
    <title>noun_342345_cc</title>
    <desc>Created with Sketch.</desc>
    <g id="Agency/Clients/Team" stroke="none" stroke-width="1" fill="none" fill-rule="evenodd">
        <g id="00-Dashboard-04-Vector-Agency-1" transform="translate(-161.000000, -571.000000)" fill="#DFE2E8">
            <g id="Group-3" transform="translate(131.000000, 549.000000)">
                <g id="noun_342345_cc" transform="translate(30.000000, 22.000000)">
                    <g id="Group">
                        <path d="M31.0351906,22.8076916 L25.8534212,20.3976651 L25.8534212,7.08297831 L10.6560847,0 L0,5.27647229 L0,23.4602458 L15.1969694,30.5435928 L19.9070682,28.2113566 L31.0351906,22.8076916 L31.0351906,22.8076916 Z M16.3979859,13.2051904 L23.0494588,10.0120988 L23.0494588,23.5148096 L16.3979859,26.8081807 L16.3979859,13.2051904 L16.3979859,13.2051904 Z M10.6927906,3.12193735 L21.3760376,8.10125783 L15.1654024,11.0827301 L4.46710588,6.20442651 L10.6927906,3.12193735 L10.6927906,3.12193735 Z M2.80396235,8.13628193 L13.9599812,13.2221494 L13.9599812,26.8616386 L2.80396235,21.6618506 L2.80396235,8.13628193 L2.80396235,8.13628193 Z" id="Shape"></path>
                        <path d="M12.1702024,17.8254217 L9.31411765,16.4510024 L8.40417882,12.9058265 C8.32085647,12.5795494 8.16485647,12.5736506 8.05804235,12.8929229 L7.21490824,15.4408337 L4.33569882,14.0723133 C4.03324235,13.9277928 3.95359059,14.0265976 4.15951059,14.292412 L6.55383529,17.3653157 L5.68720941,19.9294482 C5.58039529,20.2483518 5.75254588,20.4227349 6.07005176,20.316188 L8.24230588,19.5729398 L10.6403012,22.6709133 C10.8454871,22.9370964 10.9456941,22.887694 10.8623718,22.5610482 L9.96711529,19.0258265 L12.1423059,18.2822096 C12.4598118,18.1760313 12.4726588,17.9706795 12.1702024,17.8254217 L12.1702024,17.8254217 Z" id="Shape"></path>
                    </g>
                </g>
            </g>
        </g>
    </g>
</svg>