<?xml version="1.0" encoding="UTF-8"?>
<svg width="137px" height="135px" viewBox="0 0 137 135" version="1.1" xmlns="http://www.w3.org/2000/svg" xmlns:xlink="http://www.w3.org/1999/xlink">
    <!-- Generator: Sketch 52.6 (67491) - http://www.bohemiancoding.com/sketch -->
    <title>Group 4</title>
    <desc>Created with Sketch.</desc>
    <g id="Symbols" stroke="none" stroke-width="1" fill="none" fill-rule="evenodd">
        <g id="Agency-Onboarding" transform="translate(-239.000000, -74.000000)">
            <g id="Group-20">
                <g id="Group-30" transform="translate(234.000000, 27.000000)">
                    <g id="Group-4" transform="translate(5.000000, 49.000000)">
                        <path id="Path-2" d="M29.8932821,4.345953 C30.2734761,4.83403324 30.6349246,5.32559936 30.9776214,5.82065236 C31.0590999,5.93835457 31.0297348,6.09982243 30.9120326,6.18130092 C30.7943304,6.2627794 30.6328625,6.23341427 30.551384,6.11571206 C30.2188896,5.63539716 29.8683368,5.15826306 29.4997197,4.68431072 C28.1243551,5.68200208 26.1328476,5.41621937 24.9304003,4.02947134 C23.6640616,2.56903916 23.7524002,0.418388964 25.12771,-0.77414031 C26.5030199,-1.96666958 28.6444991,-1.74949136 29.9108379,-0.289059178 C31.1195503,1.10491425 31.0940727,3.12771656 29.8932821,4.345953 Z M71.9584492,129.604897 C71.2781477,129.59452 70.6202736,129.543156 69.9842062,129.451361 C69.8425219,129.430914 69.7442398,129.29948 69.7646871,129.157796 C69.7851344,129.016111 69.916568,128.917829 70.0582524,128.938277 C70.6697093,129.02652 71.3028675,129.076116 71.9584492,129.086434 L71.9584492,126.310866 C71.9584492,126.167714 72.074497,126.051666 72.2176492,126.051666 C72.3608014,126.051666 72.4768492,126.167714 72.4768492,126.310866 L72.4768492,132.384466 C72.4768492,132.527618 72.3608014,132.643666 72.2176492,132.643666 C72.074497,132.643666 71.9584492,132.527618 71.9584492,132.384466 L71.9584492,129.604897 Z M31.6636607,7.8472817 C31.5906221,7.7241642 31.6312191,7.56514828 31.7543366,7.49210969 C31.8774541,7.4190711 32.03647,7.45966808 32.1095086,7.58278558 C32.4700839,8.19058931 32.8032906,8.80347125 33.1091151,9.42142612 C33.1726105,9.54972612 33.120076,9.705207 32.991776,9.7687024 C32.863476,9.83219779 32.7079951,9.77966328 32.6444997,9.65136328 C32.3445285,9.0452358 32.0175867,8.44387703 31.6636607,7.8472817 Z M33.489688,11.5498231 C33.4369474,11.4167405 33.5020774,11.266101 33.63516,11.2133603 C33.7682426,11.1606197 33.9188821,11.2257497 33.9716228,11.3588323 C34.2309253,12.0131408 34.4605192,12.6729122 34.6603922,13.3381304 C34.7015849,13.4752279 34.6238386,13.6197606 34.4867411,13.6609532 C34.3496436,13.7021458 34.2051109,13.6243996 34.1639183,13.4873021 C33.9683083,12.836272 33.7435689,12.190451 33.489688,11.5498231 Z M34.6667748,15.4724454 C34.6377693,15.3322625 34.7278964,15.1951082 34.8680792,15.1661027 C35.0082621,15.1370972 35.1454163,15.2272243 35.1744218,15.3674072 C35.3160398,16.0518432 35.4271848,16.7417983 35.5078542,17.4372503 C35.5243486,17.579449 35.4224451,17.7080953 35.2802463,17.7245897 C35.1380476,17.7410841 35.0094013,17.6391806 34.9929069,17.4969819 C34.9140002,16.816726 34.8052904,16.1418879 34.6667748,15.4724454 Z M35.1410632,19.5849192 C35.1372511,19.4418178 35.2501674,19.3227208 35.3932688,19.3189087 C35.5363703,19.3150966 35.6554672,19.4280129 35.6592794,19.5711144 C35.6777436,20.2642364 35.666879,20.9625879 35.6266933,21.6661515 C35.6185301,21.8090707 35.4960536,21.9183121 35.3531343,21.910149 C35.210215,21.9019858 35.1009736,21.7795093 35.1091368,21.63659 C35.1485011,20.9474073 35.1591407,20.2635228 35.1410632,19.5849192 Z M34.9155338,23.6420748 C34.934739,23.5002167 35.0653066,23.4007869 35.2071647,23.4199921 C35.3490228,23.4391973 35.4484526,23.5697649 35.4292474,23.711623 C35.3368435,24.3941595 35.2176237,25.0814326 35.071599,25.7734345 C35.0420422,25.9135022 34.9045344,26.003089 34.7644667,25.9735322 C34.6243991,25.9439754 34.5348123,25.8064677 34.5643691,25.6664 C34.707792,24.9867277 34.8248433,24.3119552 34.9155338,23.6420748 Z M34.1467895,27.7372251 C34.1635741,27.5950603 34.2924281,27.4934196 34.4345929,27.5102043 C34.5767577,27.5269889 34.6783984,27.6558429 34.6616137,27.7980077 C34.5808735,28.481871 34.5842781,29.1505742 34.6690254,29.8076363 C34.6873374,29.9496124 34.5870878,30.0795516 34.4451116,30.0978636 C34.3031355,30.1161755 34.1731963,30.0159259 34.1548843,29.8739498 C34.0646907,29.1746616 34.0610687,28.4632724 34.1467895,27.7372251 Z M34.7129823,32.016439 C34.6604562,31.8832715 34.7258289,31.7327372 34.8589963,31.6802111 C34.9921638,31.627685 35.1426981,31.6930577 35.1952242,31.8262252 C35.4333405,32.4299127 35.7424414,33.0279251 36.121856,33.6249186 C36.1986402,33.7457356 36.1629447,33.905923 36.0421278,33.9827073 C35.9213108,34.0594915 35.7611234,34.023796 35.6843391,33.9029791 C35.2877919,33.2790279 34.9635973,32.6518138 34.7129823,32.016439 Z M36.9427285,35.598434 C36.8502158,35.4891913 36.8637781,35.3256363 36.9730208,35.2331237 C37.0822635,35.140611 37.2458185,35.1541733 37.3383312,35.263416 C37.7559528,35.7565604 38.2215673,36.2531703 38.7388602,36.760062 C38.8411068,36.8602527 38.8427734,37.0243606 38.7425827,37.1266072 C38.6423919,37.2288539 38.478284,37.2305205 38.3760374,37.1303297 C37.8477343,36.6126492 37.371219,36.1044128 36.9427285,35.598434 Z M39.9010246,38.5304217 C39.7928941,38.4366116 39.7812852,38.2729063 39.8750953,38.1647758 C39.9689055,38.0566453 40.1326107,38.0450364 40.2407413,38.1388465 C40.7258533,38.5597124 41.247727,38.9933474 41.8274041,39.4592131 C41.9389875,39.5488887 41.9567473,39.7120413 41.8670717,39.8236246 C41.7773962,39.935208 41.6142436,39.9529678 41.5026602,39.8632922 C40.9181971,39.3935802 40.3914094,38.955862 39.9010246,38.5304217 Z M43.1552566,41.1620188 C43.0420012,41.0744645 43.0211663,40.911676 43.1087206,40.7984206 C43.196275,40.6851651 43.3590635,40.6643303 43.4723189,40.7518846 C43.7546933,40.9701797 43.985077,41.1474218 44.4905675,41.5356757 C44.5033373,41.5454838 44.5033373,41.5454838 44.5161074,41.5552922 C44.8160044,41.7856407 44.9479812,41.8870717 45.1156999,42.0161944 C45.2291303,42.1035219 45.250291,42.2662684 45.1629635,42.3796988 C45.075636,42.4931293 44.9128895,42.5142899 44.7994591,42.4269624 C44.6319437,42.2979961 44.5001424,42.1967001 44.200332,41.9664181 C44.1875624,41.95661 44.1875624,41.95661 44.1747925,41.9468018 C43.6688748,41.5582199 43.4382005,41.3807541 43.1552566,41.1620188 Z M46.4494425,43.712688 C46.3372963,43.6237173 46.3185089,43.4606799 46.4074796,43.3485337 C46.4964503,43.2363875 46.6594877,43.2176 46.7716339,43.3065707 C47.3634113,43.7760548 47.8915581,44.2071934 48.3839747,44.6247387 C48.4931583,44.7173211 48.5066162,44.8808847 48.4140338,44.9900683 C48.3214514,45.0992519 48.1578878,45.1127098 48.0487042,45.0201275 C47.560941,44.6065279 47.0370686,44.1788787 46.4494425,43.712688 Z M49.5477052,46.3559635 C49.4436013,46.257704 49.4388634,46.0936561 49.5371228,45.9895521 C49.6353823,45.8854481 49.7994302,45.8807102 49.9035342,45.9789697 C50.4413728,46.4866134 50.9286278,46.9828882 51.3700685,47.475594 C51.4655936,47.5822125 51.4566005,47.7460823 51.349982,47.8416074 C51.2433635,47.9371325 51.0794937,47.9281394 50.9839686,47.8215209 C50.5526561,47.3401195 50.0754552,46.854085 49.5477052,46.3559635 Z M52.2739014,49.4447977 C52.192579,49.3269876 52.2221581,49.1655588 52.3399682,49.0842364 C52.4577783,49.002914 52.6192071,49.0324931 52.7005295,49.1503032 C53.1214144,49.7600305 53.4728026,50.3714574 53.7539416,50.9897324 C53.8131967,51.120045 53.7555933,51.2737201 53.6252806,51.3329752 C53.494968,51.3922304 53.3412929,51.3346269 53.2820378,51.2043142 C53.0140658,50.6149959 52.6779198,50.0300909 52.2739014,49.4447977 Z M53.9108793,53.1379422 C53.8831971,52.997492 53.9746137,52.8611938 54.1150639,52.8335116 C54.255514,52.8058295 54.3918122,52.897246 54.4194944,53.0376962 C54.5571609,53.7361709 54.6073254,54.4462328 54.5671102,55.1707249 C54.5591764,55.3136571 54.4368753,55.4230949 54.2939431,55.415161 C54.1510109,55.4072271 54.0415732,55.284926 54.049507,55.1419938 C54.087315,54.4608681 54.0402112,53.79413 53.9108793,53.1379422 Z M53.6922855,57.1839755 C53.7321893,57.0464974 53.8759858,56.9673977 54.0134639,57.0073015 C54.1509421,57.0472053 54.2300417,57.1910018 54.1901379,57.32848 C54.0028085,57.9738747 53.7472668,58.6311034 53.4217244,59.3015781 C53.3591988,59.4303535 53.2041187,59.4840595 53.0753433,59.4215339 C52.9465679,59.3590083 52.8928619,59.2039282 52.9553875,59.0751528 C53.2683866,58.4305117 53.5133062,57.8006019 53.6922855,57.1839755 Z M52.0125285,60.9512036 C52.0781067,60.8239556 52.2344232,60.7739624 52.3616712,60.8395406 C52.4889192,60.9051188 52.5389125,61.0614353 52.4733343,61.1886833 C52.1576501,61.8012371 51.83557,62.4116869 51.5039669,63.0269759 C51.4360519,63.1529921 51.2788395,63.2000925 51.1528232,63.1321774 C51.0268069,63.0642624 50.9797066,62.90705 51.0476216,62.7810337 C51.3777437,62.1684927 51.6983387,61.5608577 52.0125285,60.9512036 Z M50.0501336,64.5964309 C50.1200102,64.4714916 50.2779397,64.4268545 50.4028789,64.4967311 C50.5278181,64.5666077 50.5724552,64.7245372 50.5025786,64.8494764 C50.1800481,65.4261606 49.8485084,66.0102745 49.478482,66.6551886 C49.4072404,66.7793546 49.2488313,66.8222583 49.1246653,66.7510167 C49.0004993,66.6797751 48.9575956,66.521366 49.0288372,66.3972 C49.3979797,65.7538265 49.7286064,65.171321 50.0501336,64.5964309 Z M47.9917961,68.1942067 C48.0634628,68.0702856 48.222018,68.0279251 48.3459391,68.0995918 C48.4698602,68.1712585 48.5122207,68.3298138 48.440554,68.4537349 C47.9692318,69.2687121 47.6898829,69.7546336 47.4092735,70.2498996 C47.3387055,70.3744496 47.1805311,70.4182108 47.0559811,70.3476428 C46.931431,70.2770748 46.8876699,70.1189004 46.9582378,69.9943504 C47.2398034,69.4973968 47.5197546,69.0104278 47.9917961,68.1942067 Z M45.9547919,71.8179211 C46.0216941,71.6913642 46.1785237,71.6430045 46.3050806,71.7099067 C46.4316375,71.7768089 46.4799971,71.9336385 46.4130949,72.0601954 C46.0567974,72.7341928 45.7575508,73.3395528 45.5030359,73.9055682 C45.4443282,74.0361284 45.2908962,74.0943762 45.160336,74.0356685 C45.0297759,73.9769607 44.971528,73.8235287 45.0302358,73.6929686 C45.28964,73.11608 45.5936605,72.5010624 45.9547919,71.8179211 Z M44.2700544,75.6687472 C44.3123493,75.5319857 44.4575031,75.4554054 44.5942646,75.4977003 C44.7310261,75.5399951 44.8076064,75.685149 44.7653115,75.8219104 C44.5507551,76.5156839 44.4144157,77.1687003 44.3551471,77.8002637 C44.3417718,77.9427897 44.2153889,78.047487 44.0728629,78.0341118 C43.9303369,78.0207365 43.8256395,77.8943536 43.8390148,77.7518276 C43.9017773,77.0830331 44.0453742,76.3952563 44.2700544,75.6687472 Z M43.9286122,79.9146007 C43.9029038,79.7737759 43.9962242,79.638774 44.137049,79.6130657 C44.2778739,79.5873573 44.4128757,79.6806777 44.4385841,79.8215025 C44.5540772,80.4541492 44.7560876,81.0882053 45.0504681,81.7361972 C45.1096781,81.8665304 45.0520213,82.0201854 44.9216881,82.0793954 C44.7913549,82.1386053 44.6376998,82.0809485 44.5784899,81.9506153 C44.2668562,81.2646456 44.0519048,80.5899713 43.9286122,79.9146007 Z M45.6661398,83.8498335 C45.5852013,83.7317593 45.6153057,83.5704277 45.7333799,83.4894892 C45.8514541,83.4085507 46.0127857,83.4386551 46.0937242,83.5567293 C46.4511704,84.0781766 46.867172,84.6160146 47.345605,85.1750058 C47.4386884,85.2837625 47.4259826,85.4473863 47.3172259,85.5404697 C47.2084691,85.6335532 47.0448454,85.6208474 46.9517619,85.5120907 C46.4617139,84.9395287 46.0344529,84.3871337 45.6661398,83.8498335 Z M48.3174841,87.0532706 C48.2284427,86.9411805 48.2471275,86.7781312 48.3592176,86.6890899 C48.4713078,86.6000486 48.634357,86.6187333 48.7233983,86.7308235 C49.1341417,87.2478899 49.5204679,87.837633 49.8862484,88.5012864 C49.955348,88.6266571 49.9097312,88.7843064 49.7843606,88.8534059 C49.6589899,88.9225055 49.5013406,88.8768887 49.4322411,88.751518 C49.0798737,88.1122008 48.709321,87.5465366 48.3174841,87.0532706 Z M50.3240887,90.6152652 C50.2687501,90.4832417 50.3309154,90.3313548 50.4629389,90.2760161 C50.5949623,90.2206775 50.7468493,90.2828429 50.8021879,90.4148663 C51.0561246,91.0206927 51.3008613,91.6718077 51.5391758,92.3722641 C51.5852846,92.5077873 51.5127998,92.655029 51.3772766,92.7011378 C51.2417534,92.7472465 51.0945116,92.6747617 51.0484029,92.5392385 C50.8137812,91.8496361 50.5732096,91.2096025 50.3240887,90.6152652 Z M51.6631521,94.5029714 C51.6233327,94.3654688 51.7025207,94.2217209 51.8400233,94.1819016 C51.9775259,94.1420822 52.1212738,94.2212702 52.1610931,94.3587728 C52.3435529,94.9888356 52.5243119,95.6548442 52.7067335,96.3663817 C52.7422846,96.5050492 52.6586922,96.6462812 52.5200247,96.6818323 C52.3813572,96.7173834 52.2401252,96.6337911 52.2045741,96.4951236 C52.0234247,95.7885484 51.8440531,95.1276518 51.6631521,94.5029714 Z M52.7016385,98.5256245 C52.6688938,98.3862676 52.75532,98.2467517 52.8946769,98.214007 C53.0340338,98.1812623 53.1735497,98.2676885 53.2062944,98.4070454 C53.3528258,99.0306623 53.5033995,99.6912865 53.6681953,100.431045 C53.6993223,100.570772 53.6112845,100.709276 53.4715574,100.740403 C53.3318303,100.77153 53.1933257,100.683492 53.1621987,100.543765 C52.9978111,99.8058399 52.8476719,99.1471217 52.7016385,98.5256245 Z M53.6023696,102.546967 C53.5719081,102.407093 53.6606041,102.269009 53.8004778,102.238548 C53.9403515,102.208086 54.0784355,102.296782 54.108897,102.436656 C54.2185211,102.94038 54.2185211,102.94038 54.3285743,103.446316 C54.4162857,103.849359 54.4839309,104.159506 54.550096,104.461682 C54.5807155,104.601522 54.4921755,104.739706 54.3523363,104.770325 C54.2124971,104.800945 54.074313,104.712404 54.0436935,104.572565 C53.9774732,104.270137 53.9097848,103.959792 53.8220304,103.556552 C53.711959,103.050531 53.711959,103.050531 53.6023696,102.546967 Z M54.4944314,106.602877 C54.4628729,106.463247 54.5504823,106.324471 54.6901126,106.292912 C54.8297428,106.261354 54.9685188,106.348963 55.0000773,106.488593 C55.1620834,107.205386 55.3160209,107.86971 55.4681279,108.506344 C55.501394,108.645578 55.4154906,108.785416 55.2762573,108.818682 C55.137024,108.851948 54.9971855,108.766045 54.9639194,108.626812 C54.8112895,107.987989 54.6568807,107.321631 54.4944314,106.602877 Z M55.4658147,110.650722 C55.4300318,110.512114 55.5133878,110.370743 55.6519956,110.33496 C55.7906035,110.299177 55.9319752,110.382533 55.9677581,110.521141 C56.1465806,111.213822 56.3258647,111.876915 56.5078084,112.516577 C56.5469727,112.654268 56.4671013,112.797637 56.3294107,112.836802 C56.19172,112.875966 56.0483508,112.796095 56.0091864,112.658404 C55.8260446,112.014529 55.6456615,111.347372 55.4658147,110.650722 Z M56.6141269,114.667171 C56.5705586,114.53081 56.645782,114.384948 56.7821432,114.34138 C56.9185043,114.297812 57.0643659,114.373035 57.1079342,114.509396 C57.3242108,115.186304 57.5457083,115.8361 57.7738804,116.461202 C57.8229655,116.595676 57.7537442,116.74448 57.6192704,116.793565 C57.4847966,116.84265 57.3359927,116.773429 57.2869076,116.638955 C57.0562533,116.007052 56.8324911,115.350613 56.6141269,114.667171 Z M58.0560068,118.593128 C58.0000064,118.461384 58.0614089,118.309187 58.193153,118.253186 C58.3248972,118.197186 58.4770941,118.258588 58.5330945,118.390332 C58.8104921,119.042927 59.0978986,119.664848 59.3965892,120.257074 C59.4610535,120.38489 59.4096968,120.540764 59.2818809,120.605228 C59.154065,120.669693 58.9981911,120.618336 58.9337268,120.49052 C58.6298293,119.88797 58.3377072,119.255845 58.0560068,118.593128 Z M59.9437232,122.311571 C59.8690562,122.189434 59.9075381,122.029893 60.0296749,121.955226 C60.1518117,121.880559 60.3113527,121.919041 60.3860197,122.041178 C60.7539711,122.643056 61.1377599,123.206807 61.5386811,123.732592 C61.6254817,123.846426 61.6035667,124.009073 61.4897326,124.095873 C61.3758985,124.182674 61.2132519,124.160759 61.1264513,124.046925 C60.7145009,123.506675 60.3207331,122.928267 59.9437232,122.311571 Z M62.5038377,125.64063 C62.4033659,125.53866 62.4045808,125.374548 62.5065513,125.274076 C62.6085217,125.173604 62.7726336,125.174819 62.8731054,125.27679 C63.360222,125.771172 63.8698344,126.218344 64.4033622,126.617909 C64.5179438,126.70372 64.5412667,126.866171 64.4554552,126.980753 C64.3696437,127.095334 64.207193,127.118657 64.0926114,127.032846 C63.5379803,126.617476 63.0088692,126.153195 62.5038377,125.64063 Z M65.9281664,128.179751 C65.8006891,128.114619 65.7501478,127.958479 65.8152792,127.831002 C65.8804105,127.703524 66.0365507,127.652983 66.164028,127.718114 C66.7634337,128.024366 67.3894897,128.280093 68.0435808,128.48452 C68.1802153,128.527223 68.2563618,128.672604 68.2136588,128.809239 C68.1709557,128.945874 68.0255738,129.02202 67.8889393,128.979317 C67.2068605,128.766144 66.5536357,128.499319 65.9281664,128.179751 Z" fill="#2E5BFF" fill-rule="nonzero"></path>
                        <g id="blob-shape-(1)" opacity="0.153744" transform="translate(68.468800, 63.000000) scale(-1, 1) translate(-68.468800, -63.000000) translate(0.468800, 0.000000)" fill="#BFC5D2" fill-rule="nonzero">
                            <path d="M121.623709,25.6608 C130.707491,36.7239273 136.044655,51.1095273 135.726545,68.8176 C135.408436,86.5610182 129.435055,107.6976 114.377891,118.053818 C99.3207273,128.374691 75.1797818,127.950545 52.1698909,119.184873 C29.1246545,110.4192 7.21047273,93.312 1.73192727,71.7512727 C-3.74661818,50.1905455 7.17512727,24.1762909 24.1409455,11.2752 C41.0714182,-1.59054545 64.0106182,-1.30778182 81.8954182,2.7216 C99.7448727,6.75098182 112.539927,14.5623273 121.623709,25.6608 Z" id="Path"></path>
                        </g>
                        <g id="Group-3" transform="translate(21.902400, 29.548800)" fill-rule="nonzero">
                            <rect id="Rectangle" fill="#2E5BFF" transform="translate(40.569317, 10.599066) rotate(0.187370) translate(-40.569317, -10.599066) " x="0.20736" y="0.20736" width="80.7239147" height="20.7834129" rx="0.82944"></rect>
                            <circle id="Oval" fill="#EFDE00" cx="9.85457729" cy="10.4671849" r="5.65510948"></circle>
                            <rect id="Rectangle" fill="#FFFFFF" transform="translate(33.430278, 6.607863) rotate(0.187370) translate(-33.430278, -6.607863) " x="21.7319642" y="5.77622951" width="23.3966279" height="1.66326774" rx="0.831633869"></rect>
                            <rect id="Rectangle" fill="#FFFFFF" transform="translate(47.499481, 10.645734) rotate(0.187370) translate(-47.499481, -10.645734) " x="21.7188357" y="9.81410049" width="51.5612916" height="1.66326774" rx="0.831633869"></rect>
                            <rect id="Rectangle" fill="#FFFFFF" transform="translate(47.486427, 14.637556) rotate(0.187370) translate(-47.486427, -14.637556) " x="21.7057816" y="13.8059217" width="51.5612916" height="1.66326774" rx="0.831633869"></rect>
                        </g>
                        <g id="Group-3" transform="translate(27.086400, 72.057600)" fill-rule="nonzero">
                            <rect id="Rectangle" fill="#2E5BFF" transform="translate(40.569317, 10.599066) rotate(0.187370) translate(-40.569317, -10.599066) " x="0.20736" y="0.20736" width="80.7239147" height="20.7834129" rx="0.82944"></rect>
                            <circle id="Oval" fill="#EFDE00" cx="9.85457729" cy="10.4671849" r="5.65510948"></circle>
                            <rect id="Rectangle" fill="#FFFFFF" transform="translate(33.430278, 6.607863) rotate(0.187370) translate(-33.430278, -6.607863) " x="21.7319642" y="5.77622951" width="23.3966279" height="1.66326774" rx="0.831633869"></rect>
                            <rect id="Rectangle" fill="#FFFFFF" transform="translate(47.499481, 10.645734) rotate(0.187370) translate(-47.499481, -10.645734) " x="21.7188357" y="9.81410049" width="51.5612916" height="1.66326774" rx="0.831633869"></rect>
                            <rect id="Rectangle" fill="#FFFFFF" transform="translate(47.486427, 14.637556) rotate(0.187370) translate(-47.486427, -14.637556) " x="21.7057816" y="13.8059217" width="51.5612916" height="1.66326774" rx="0.831633869"></rect>
                        </g>
                        <g id="Group-3" transform="translate(57.088800, 61.803200) scale(-1, 1) translate(-57.088800, -61.803200) translate(16.588800, 50.803200)" fill-rule="nonzero">
                            <rect id="Rectangle" fill="#2E5BFF" transform="translate(40.569317, 10.599066) rotate(0.187370) translate(-40.569317, -10.599066) " x="0.20736" y="0.20736" width="80.7239147" height="20.7834129" rx="0.82944"></rect>
                            <circle id="Oval" fill="#EFDE00" cx="9.85457729" cy="10.4671849" r="5.65510948"></circle>
                            <rect id="Rectangle" fill="#FFFFFF" transform="translate(33.430278, 6.607863) rotate(0.187370) translate(-33.430278, -6.607863) " x="21.7319642" y="5.77622951" width="23.3966279" height="1.66326774" rx="0.831633869"></rect>
                            <rect id="Rectangle" fill="#FFFFFF" transform="translate(47.499481, 10.645734) rotate(0.187370) translate(-47.499481, -10.645734) " x="21.7188357" y="9.81410049" width="51.5612916" height="1.66326774" rx="0.831633869"></rect>
                            <rect id="Rectangle" fill="#FFFFFF" transform="translate(47.486427, 14.637556) rotate(0.187370) translate(-47.486427, -14.637556) " x="21.7057816" y="13.8059217" width="51.5612916" height="1.66326774" rx="0.831633869"></rect>
                        </g>
                        <g id="Group-10" transform="translate(106.966963, 95.740909) rotate(-12.000000) translate(-106.966963, -95.740909) translate(91.966963, 78.740909)">
                            <path d="M29.1344706,33.0459148 L1.41854319,33.0459148 C-0.472847729,22.1118005 -0.472847729,10.9341143 1.41854319,2.27373675e-13 L29.1344706,2.27373675e-13 C26.012051,10.7940332 26.012051,22.2518816 29.1344706,33.0459148 Z" id="Path" fill="#91AAFF" fill-rule="nonzero"></path>
                            <path d="M21.5792532,16.8762919 C19.6993051,16.1387829 17.5857989,16.2976729 15.8372478,17.3079666 C14.3810133,18.121701 13.0598736,19.1154365 11.3699171,19.3747722 C9.98649505,19.5837125 8.57223764,19.3675941 7.31435367,18.7550252 C5.69979031,17.9656326 4.70320621,16.4461221 3.32099422,15.3562528 C2.5455073,14.744786 3.63873576,13.6648571 4.40678758,14.2704595 C5.75678678,15.3349269 6.71946802,16.8830014 8.36401364,17.5370185 C10.1246274,18.2371869 11.8383882,17.879902 13.4352446,16.9598934 C14.7224814,16.2182676 15.9221244,15.3694688 17.4000163,15.0468153 C18.9307626,14.7177161 20.5240538,14.8388545 21.9874492,15.3955991 C22.9056034,15.736924 22.5083242,17.2216776 21.5792413,16.8762919 L21.5792532,16.8762919 Z" id="Path" fill="#FFFFFF" fill-rule="nonzero"></path>
                            <path d="M21.5792532,24.0421608 C19.6993054,23.30465 17.5857984,23.4635401 15.8372478,24.4738355 C14.3810133,25.2875699 13.0598736,26.2813024 11.3699171,26.5406381 C9.98649535,26.749581 8.57223745,26.5334636 7.31435367,25.9208941 C5.69979031,25.1314985 4.70320621,23.611988 3.32099422,22.5221217 C2.5455073,21.9106549 3.63873576,20.830723 4.40678758,21.4363284 C5.75678678,22.5007958 6.71946802,24.0488703 8.36401364,24.7028844 C10.1246274,25.4030558 11.8383882,25.0457709 13.4352446,24.1257624 C14.7224814,23.3841365 15.9221244,22.5353377 17.4000163,22.2126812 C18.9307629,21.883583 20.5240541,22.0047224 21.9874492,22.561468 C22.9056034,22.9027899 22.5083242,24.3875466 21.5792413,24.0421608 L21.5792532,24.0421608 Z" id="Path" fill="#FFFFFF" fill-rule="nonzero"></path>
                            <circle id="Oval" fill="#FFFFFF" cx="8.98239789" cy="7.6853571" r="4"></circle>
                        </g>
                    </g>
                </g>
            </g>
        </g>
    </g>
</svg>