<?xml version="1.0" encoding="UTF-8"?>
<svg width="63px" height="72px" viewBox="0 0 63 72" version="1.1" xmlns="http://www.w3.org/2000/svg" xmlns:xlink="http://www.w3.org/1999/xlink">
    <!-- Generator: Sketch 52.6 (67491) - http://www.bohemiancoding.com/sketch -->
    <title>Group 9</title>
    <desc>Created with Sketch.</desc>
    <g id="Prospects" stroke="none" stroke-width="1" fill="none" fill-rule="evenodd">
        <g id="02-Sequences-22.4-Add-Prospects-popup" transform="translate(-292.000000, -272.000000)">
            <g id="Group-9" transform="translate(292.000000, 272.000000)">
                <g id="png" fill-rule="nonzero">
                    <path d="M13.44,0 C10.976,0 8.96,2.016 8.96,4.48 L8.96,67.2 C8.96,69.664 10.976,71.68 13.44,71.68 L58.24,71.68 C60.704,71.68 62.72,69.664 62.72,67.2 L62.72,17.92 L44.8,0 L13.44,0 Z" id="Path" fill="#E2E5E7"></path>
                    <path d="M49.28,17.92 L62.72,17.92 L44.8,0 L44.8,13.44 C44.8,15.904 46.816,17.92 49.28,17.92 Z" id="Path" fill="#B0B7BD"></path>
                    <polygon id="Path" fill="#CAD1D8" points="62.72 31.36 49.28 17.92 62.72 17.92"></polygon>
                    <path d="M53.76,58.24 C53.76,59.472 52.752,60.48 51.52,60.48 L2.24,60.48 C1.008,60.48 0,59.472 0,58.24 L0,35.84 C0,34.608 1.008,33.6 2.24,33.6 L51.52,33.6 C52.752,33.6 53.76,34.608 53.76,35.84 L53.76,58.24 Z" id="Path" fill="#2E5BFF"></path>
                    <path d="M51.52,60.48 L8.96,60.48 L8.96,62.72 L51.52,62.72 C52.752,62.72 53.76,61.712 53.76,60.48 L53.76,58.24 C53.76,59.472 52.752,60.48 51.52,60.48 Z" id="Path" fill="#CAD1D8"></path>
                </g>
                <text id="CSV" font-family="Rubik-Medium, Rubik" font-size="18" font-weight="400" letter-spacing="1.3" fill="#FFFFFF">
                    <tspan x="7.311" y="53">CSV</tspan>
                </text>
            </g>
        </g>
    </g>
</svg>