<?xml version="1.0" encoding="UTF-8"?>
<svg width="37px" height="37px" viewBox="0 0 37 37" version="1.1" xmlns="http://www.w3.org/2000/svg" xmlns:xlink="http://www.w3.org/1999/xlink">
    <!-- Generator: Sketch 52.6 (67491) - http://www.bohemiancoding.com/sketch -->
    <title>Group 11</title>
    <desc>Created with Sketch.</desc>
    <g id="Agency/Clients/Team" stroke="none" stroke-width="1" fill="none" fill-rule="evenodd">
        <g id="00-Dashboard-04-Vector-Agency-6" transform="translate(-1000.000000, -102.000000)">
            <g id="Group-2" transform="translate(960.000000, 0.000000)">
                <g id="Group-6" transform="translate(28.000000, 91.000000)">
                    <g id="Group-4">
                        <g id="Group-11" transform="translate(12.000000, 11.000000)">
                            <circle id="Oval" fill="#2E5BFF" cx="18.5" cy="18.5" r="18.5"></circle>
                            <g id="email-24px" transform="translate(10.000000, 12.000000)" fill="#FFFFFF" fill-rule="nonzero">
                                <path d="M15.6666667,0.333333333 L2.33333333,0.333333333 C1.41666667,0.333333333 0.675,1.08333333 0.675,2 L0.666666667,12 C0.666666667,12.9166667 1.41666667,13.6666667 2.33333333,13.6666667 L15.6666667,13.6666667 C16.5833333,13.6666667 17.3333333,12.9166667 17.3333333,12 L17.3333333,2 C17.3333333,1.08333333 16.5833333,0.333333333 15.6666667,0.333333333 Z M15.6666667,3.66666667 L9,7.83333333 L2.33333333,3.66666667 L2.33333333,2 L9,6.16666667 L15.6666667,2 L15.6666667,3.66666667 Z" id="Shape"></path>
                            </g>
                        </g>
                    </g>
                </g>
            </g>
        </g>
    </g>
</svg>