<?xml version="1.0" encoding="UTF-8"?>
<svg width="18px" height="21px" viewBox="0 0 18 21" version="1.1" xmlns="http://www.w3.org/2000/svg" xmlns:xlink="http://www.w3.org/1999/xlink">
    <!-- Generator: Sketch 52.6 (67491) - http://www.bohemiancoding.com/sketch -->
    <title>Group 11</title>
    <desc>Created with Sketch.</desc>
    <g id="Agency/Clients/Team" stroke="none" stroke-width="1" fill="none" fill-rule="evenodd">
        <g id="00-Dashboard-04-Vector-Agency-2" transform="translate(-352.000000, -118.000000)">
            <g id="Group-10" transform="translate(129.000000, 98.000000)">
                <g id="Group-6" transform="translate(16.000000, 13.000000)">
                    <g id="Group-11" transform="translate(207.000000, 8.000000)">
                        <g id="filter-outline" transform="translate(0.000000, 4.800000)" fill="#8798AD" fill-rule="nonzero">
                            <path d="M9.6,13.504 C9.632,13.744 9.552,14 9.368,14.168 C9.056,14.48 8.552,14.48 8.24,14.168 L5.032,10.96 C4.848,10.776 4.768,10.528 4.8,10.296 L4.8,6.2 L0.968,1.296 C0.696,0.952 0.76,0.448 1.104,0.176 C1.256,0.064 1.424,0 1.6,0 L12.8,0 C12.976,0 13.144,0.064 13.296,0.176 C13.64,0.448 13.704,0.952 13.432,1.296 L9.6,6.2 L9.6,13.504 M3.232,1.6 L6.4,5.648 L6.4,10.064 L8,11.664 L8,5.64 L11.168,1.6 L3.232,1.6 Z" id="Shape"></path>
                        </g>
                        <circle id="Oval" stroke="#FFFFFF" stroke-width="0.8" fill="#2E5BFF" cx="12.8" cy="4.8" r="4.8"></circle>
                    </g>
                </g>
            </g>
        </g>
    </g>
</svg>