<?xml version="1.0" encoding="UTF-8"?>
<svg width="38px" height="28px" viewBox="0 0 38 28" version="1.1" xmlns="http://www.w3.org/2000/svg" xmlns:xlink="http://www.w3.org/1999/xlink">
    <!-- Generator: Sketch 52.6 (67491) - http://www.bohemiancoding.com/sketch -->
    <title>gmail-icon-2</title>
    <desc>Created with Sketch.</desc>
    <defs>
        <linearGradient x1="0%" y1="50.0031857%" x2="100%" y2="50.0031857%" id="linearGradient-1">
            <stop stop-color="#C8C8C8" offset="0%"></stop>
            <stop stop-color="#CDCDCD" offset="100%"></stop>
        </linearGradient>
        <linearGradient x1="0%" y1="49.9981553%" x2="100%" y2="49.9981553%" id="linearGradient-2">
            <stop stop-color="#D9D9D9" offset="0%"></stop>
            <stop stop-color="#E2E2E2" offset="100%"></stop>
        </linearGradient>
    </defs>
    <g id="Agency/Clients/Team" stroke="none" stroke-width="1" fill="none" fill-rule="evenodd">
        <g id="00-Agency-Dashboard-00-New-User-3-Progress" transform="translate(-591.000000, -497.000000)" fill-rule="nonzero">
            <g id="Group-20" transform="translate(475.000000, 231.000000)">
                <g id="Group-19" transform="translate(116.000000, 265.000000)">
                    <g id="Group-18" transform="translate(0.000000, 1.000000)">
                        <g id="gmail-icon-2">
                            <path d="M34.7727641,27.8197233 L2.32524035,27.8197233 C1.04522089,27.8197233 0.00756008871,26.7820625 0.00756008871,25.502043 L0.00756008871,2.32524035 C0.00756008871,1.04522089 1.04522089,0.00756008871 2.32524035,0.00756008871 L34.7727641,0.00756008871 C36.0527835,0.00756008871 37.0904443,1.04522089 37.0904443,2.32524035 L37.0904443,25.502043 C37.0904443,26.7820625 36.0527835,27.8197233 34.7727641,27.8197233 Z" id="Path" fill="#EAEAEA"></path>
                            <path d="M4.64292062,27.8197233 L2.32524035,27.8197233 C1.04522089,27.8197233 0.00756008871,26.7820625 0.00756008871,25.502043 L0.00756008871,2.32524035 C0.00756007126,1.49721294 0.449307431,0.73208404 1.16640021,0.318070326 C1.88349298,-0.0959433888 2.76698772,-0.0959433888 3.4840805,0.318070326 C4.20117328,0.73208404 4.64292064,1.49721294 4.64292062,2.32524035 L4.64292062,27.8197233 Z" id="Path" fill="#D54C3F"></path>
                            <path d="M32.4550838,27.8197233 L34.7727641,27.8197233 C36.0527835,27.8197233 37.0904443,26.7820625 37.0904443,25.502043 L37.0904443,2.32524035 C37.0904443,1.04522089 36.0527835,0.00756008871 34.7727641,0.00756008871 C33.4927446,0.00756008871 32.4550838,1.04522089 32.4550838,2.32524035 L32.4550838,27.8197233 Z" id="Path" fill="#B63524"></path>
                            <path d="M36.1000223,4.22573817 C36.7790048,3.75155449 37.1534366,2.95115784 37.0822727,2.12604989 C37.0111088,1.30094194 36.5051608,0.576476244 35.7550144,0.225552021 C35.004868,-0.125372202 34.1244883,-0.0494412056 33.4455058,0.424742537 L18.5505473,11.2691685 L18.5490022,11.2699411 L18.5474571,11.2691685 L3.65249859,0.424742537 C2.60288263,-0.308281911 1.15776705,-0.051633796 0.424742577,0.99798215 C-0.308281893,2.0475981 -0.0516338086,3.49271368 0.997982122,4.22573817 L0.936177315,4.18015713 L18.5490022,17.003882 M36.1625997,4.18015713 L18.5490022,17.003882" id="Shape" fill="#DE5145"></path>
                            <path d="M34.7727641,0.00755725309 C34.2790982,0.00756008871 33.8209701,0.162072106 33.4455058,0.424742537 L18.5505473,11.2691685 L18.5490022,11.2699411 L18.5474571,11.2691685 L3.65249859,0.424742537 C3.26351031,0.15249517 2.800035,0.00681608752 2.32524035,0.00755725309 L34.7727641,0.00755725309 Z" id="Path" fill="#EFEFEF"></path>
                            <path d="M4.64369318,7.87840227 L0.737629373,4.00942135 L0.736084252,4.01251159 C0.817975622,4.0897676 0.905274912,4.16084313 0.997982122,4.22573817 L0.936177315,4.18015713 L4.64446574,6.88025464 L4.64369318,7.90621444" id="Path" fill="#C64132"></path>
                            <polyline id="Path" fill="#E3E3E3" points="15.974832 19.0055852 4.64292062 27.8197233 4.64369318 7.78183226 15.9725143 19.002495"></polyline>
                            <polygon id="Path" fill="url(#linearGradient-1)" points="15.974832 19.0055852 18.5490022 17.003882 4.64369318 6.88025464 4.64369318 7.78183226 15.9725143 19.002495"></polygon>
                            <polygon id="Path" fill="url(#linearGradient-2)" points="24.7766091 27.8197233 32.4550838 27.8197233 32.4550838 6.87948208 18.5490022 17.003882 15.9725143 19.002495"></polygon>
                        </g>
                    </g>
                </g>
            </g>
        </g>
    </g>
</svg>