<?xml version="1.0" encoding="UTF-8"?>
<svg width="21px" height="18px" viewBox="0 0 21 18" version="1.1" xmlns="http://www.w3.org/2000/svg" xmlns:xlink="http://www.w3.org/1999/xlink">
    <!-- Generator: Sketch 52.6 (67491) - http://www.bohemiancoding.com/sketch -->
    <title>history</title>
    <desc>Created with Sketch.</desc>
    <g id="Prospects" stroke="none" stroke-width="1" fill="none" fill-rule="evenodd">
        <g id="03-Prospects-03-Detail" transform="translate(-493.000000, -123.000000)" fill="#BFC5D2" fill-rule="nonzero">
            <g id="Group" transform="translate(470.000000, 91.000000)">
                <g id="history" transform="translate(23.000000, 32.000000)">
                    <path d="M12.5,5 L11,5 L11,10 L15.28,12.54 L16,11.33 L12.5,9.25 L12.5,5 M12,0 C7.02943725,-1.33226763e-15 3,4.02943725 3,9 L0,9 L3.96,13.03 L8,9 L5,9 C5,5.13400675 8.13400675,2 12,2 C15.8659932,2 19,5.13400675 19,9 C19,12.8659932 15.8659932,16 12,16 C10.07,16 8.32,15.21 7.06,13.94 L5.64,15.36 C7.27,17 9.5,18 12,18 C16.9705627,18 21,13.9705627 21,9 C21,4.02943725 16.9705627,2.66453526e-15 12,-8.8817842e-16" id="Shape"></path>
                </g>
            </g>
        </g>
    </g>
</svg>