<?xml version="1.0" encoding="UTF-8"?>
<svg width="133px" height="138px" viewBox="0 0 133 138" version="1.1" xmlns="http://www.w3.org/2000/svg" xmlns:xlink="http://www.w3.org/1999/xlink">
    <!-- Generator: Sketch 52.6 (67491) - http://www.bohemiancoding.com/sketch -->
    <title>Group 3</title>
    <desc>Created with Sketch.</desc>
    <g id="Symbols" stroke="none" stroke-width="1" fill="none" fill-rule="evenodd">
        <g id="Agency-Onboarding" transform="translate(-437.000000, -66.000000)">
            <g id="Group-20">
                <g id="Group-29" transform="translate(430.000000, 27.000000)">
                    <g id="Group-3" transform="translate(7.000000, 39.000000)">
                        <g id="blob-shape-(1)" opacity="0.153744" fill="#BFC5D2" fill-rule="nonzero">
                            <path d="M108.756614,30.8198864 C121.655864,47.1469091 133.352386,64.2857727 131.939182,81.6351136 C130.556045,98.9844545 116.063182,116.574341 96.6692045,127.158341 C77.2752273,137.712273 52.9500682,141.23025 33.4358182,132.660818 C13.8915,124.091386 -0.841909091,103.404477 0.150340909,85.5439773 C1.17265909,67.6534091 17.9507045,52.58925 31.8422045,36.0216818 C45.7036364,19.4841818 56.6785227,1.47334091 69.2169545,0.210477273 C81.7553864,-1.02231818 95.8573636,14.4928636 108.756614,30.8198864 Z" id="Path"></path>
                        </g>
                        <g id="Group-11" transform="translate(5.040000, 56.952000)">
                            <rect id="Rectangle" fill="#0765D1" fill-rule="nonzero" opacity="0.172061012" x="0.1512" y="3.4776" width="15.5736" height="18.144"></rect>
                            <path d="M10.4299272,48.7390403 L10.2135358,48.5278139 C11.208767,47.3993656 11.9631408,46.0796141 12.4304468,44.6494023 C13.1661452,42.4353702 13.5255401,38.9387295 11.0593849,34.854181 C8.5361593,30.6750659 8.4226081,27.2806713 8.77159886,25.1690393 C9.15144502,22.8713602 10.1204389,21.583428 10.1614882,21.5297551 L10.401798,21.7133663 C10.3921212,21.72599 9.43154755,23.0070562 9.0670603,25.236222 C8.73055109,27.2942551 8.84793823,30.606406 11.3182272,34.697813 C13.8474312,38.8868211 13.4727531,42.4805532 12.7131349,44.7576343 C11.8900202,47.2248252 10.4892052,48.6783592 10.4299272,48.7390403 Z" id="Path" fill="#2E5BFF" fill-rule="nonzero"></path>
                            <path d="M20.7648,21.7728 L1.008,21.7728 C0.451296972,21.7728 -8.20001962e-16,21.321503 -8.8817842e-16,20.7648 L0,1.008 C-6.81764581e-17,0.451296972 0.451296972,-7.85913733e-16 1.008,-8.8817842e-16 L20.7648,0 C21.321503,-1.02264687e-16 21.7728,0.451296972 21.7728,1.008 L21.7728,20.7648 C21.7728,21.321503 21.321503,21.7728 20.7648,21.7728 Z" id="Shape" fill="#2E5BFF" fill-rule="nonzero"></path>
                            <rect id="Rectangle" fill="#FFFFFF" fill-rule="nonzero" x="4.536" y="12.8768" width="13.3056" height="1.008" rx="0.504"></rect>
                            <rect id="Rectangle" fill="#FFFFFF" fill-rule="nonzero" x="4.536" y="16.2032" width="13.3056" height="1.008" rx="0.504"></rect>
                            <circle id="Oval" fill="#EFDE00" cx="7.76" cy="7.048" r="3.2"></circle>
                        </g>
                        <g id="Group-11" transform="translate(107.200000, 47.200000)">
                            <rect id="Rectangle" fill="#0765D1" fill-rule="nonzero" opacity="0.172061012" x="0.1512" y="3.4776" width="15.5736" height="18.144"></rect>
                            <path d="M10.4299272,48.7390403 L10.2135358,48.5278139 C11.208767,47.3993656 11.9631408,46.0796141 12.4304468,44.6494023 C13.1661452,42.4353702 13.5255401,38.9387295 11.0593849,34.854181 C8.5361593,30.6750659 8.4226081,27.2806713 8.77159886,25.1690393 C9.15144502,22.8713602 10.1204389,21.583428 10.1614882,21.5297551 L10.401798,21.7133663 C10.3921212,21.72599 9.43154755,23.0070562 9.0670603,25.236222 C8.73055109,27.2942551 8.84793823,30.606406 11.3182272,34.697813 C13.8474312,38.8868211 13.4727531,42.4805532 12.7131349,44.7576343 C11.8900202,47.2248252 10.4892052,48.6783592 10.4299272,48.7390403 Z" id="Path" fill="#2E5BFF" fill-rule="nonzero"></path>
                            <path d="M20.7648,21.7728 L1.008,21.7728 C0.451296972,21.7728 -8.20001962e-16,21.321503 -8.8817842e-16,20.7648 L0,1.008 C-6.81764581e-17,0.451296972 0.451296972,-7.85913733e-16 1.008,-8.8817842e-16 L20.7648,0 C21.321503,-1.02264687e-16 21.7728,0.451296972 21.7728,1.008 L21.7728,20.7648 C21.7728,21.321503 21.321503,21.7728 20.7648,21.7728 Z" id="Shape" fill="#2E5BFF" fill-rule="nonzero"></path>
                            <rect id="Rectangle" fill="#FFFFFF" fill-rule="nonzero" x="4.536" y="12.8768" width="13.3056" height="1.008" rx="0.504"></rect>
                            <rect id="Rectangle" fill="#FFFFFF" fill-rule="nonzero" x="4.536" y="16.2032" width="13.3056" height="1.008" rx="0.504"></rect>
                            <circle id="Oval" fill="#EFDE00" cx="7.76" cy="7.048" r="3.2"></circle>
                        </g>
                        <g id="Group-11" transform="translate(64.000000, 87.200000)">
                            <rect id="Rectangle" fill="#0765D1" fill-rule="nonzero" opacity="0.172061012" x="0.1512" y="3.4776" width="15.5736" height="18.144"></rect>
                            <path d="M10.4299272,48.7390403 L10.2135358,48.5278139 C11.208767,47.3993656 11.9631408,46.0796141 12.4304468,44.6494023 C13.1661452,42.4353702 13.5255401,38.9387295 11.0593849,34.854181 C8.5361593,30.6750659 8.4226081,27.2806713 8.77159886,25.1690393 C9.15144502,22.8713602 10.1204389,21.583428 10.1614882,21.5297551 L10.401798,21.7133663 C10.3921212,21.72599 9.43154755,23.0070562 9.0670603,25.236222 C8.73055109,27.2942551 8.84793823,30.606406 11.3182272,34.697813 C13.8474312,38.8868211 13.4727531,42.4805532 12.7131349,44.7576343 C11.8900202,47.2248252 10.4892052,48.6783592 10.4299272,48.7390403 Z" id="Path" fill="#2E5BFF" fill-rule="nonzero"></path>
                            <path d="M20.7648,21.7728 L1.008,21.7728 C0.451296972,21.7728 -8.20001962e-16,21.321503 -8.8817842e-16,20.7648 L0,1.008 C-6.81764581e-17,0.451296972 0.451296972,-7.85913733e-16 1.008,-8.8817842e-16 L20.7648,0 C21.321503,-1.02264687e-16 21.7728,0.451296972 21.7728,1.008 L21.7728,20.7648 C21.7728,21.321503 21.321503,21.7728 20.7648,21.7728 Z" id="Shape" fill="#2E5BFF" fill-rule="nonzero"></path>
                            <rect id="Rectangle" fill="#FFFFFF" fill-rule="nonzero" x="4.536" y="12.8768" width="13.3056" height="1.008" rx="0.504"></rect>
                            <rect id="Rectangle" fill="#FFFFFF" fill-rule="nonzero" x="4.536" y="16.2032" width="13.3056" height="1.008" rx="0.504"></rect>
                            <circle id="Oval" fill="#EFDE00" cx="7.76" cy="7.048" r="3.2"></circle>
                        </g>
                        <g id="Group-11" transform="translate(38.808000, 20.664000)">
                            <rect id="Rectangle" fill="#0765D1" fill-rule="nonzero" opacity="0.172061012" x="0.19656" y="4.52088" width="20.24568" height="23.5872"></rect>
                            <path d="M13.5589054,63.3607524 L13.2775966,63.086158 C14.5713971,61.6191753 15.552083,59.9034983 16.1595809,58.044223 C17.1159888,55.1659812 17.5832021,50.6203484 14.3772004,45.3104353 C11.0970071,39.8775857 10.9493905,35.4648726 11.4030785,32.7197511 C11.8968785,29.7327683 13.1565706,28.0584565 13.2099347,27.9886816 L13.5223373,28.2273762 C13.5097575,28.243787 12.2610118,29.909173 11.7871784,32.8070886 C11.3497164,35.4825316 11.5023197,39.7883278 14.7136954,45.1071569 C18.0016606,50.5528674 17.514579,55.2247192 16.5270754,58.1849246 C15.4570263,61.3922728 13.6359667,63.2818669 13.5589054,63.3607524 Z" id="Path" fill="#2E5BFF" fill-rule="nonzero"></path>
                            <path d="M26.99424,28.30464 L1.3104,28.30464 C0.586686064,28.30464 -1.33415209e-16,27.7179539 -2.22044605e-16,26.99424 L0,1.3104 C-8.86293955e-17,0.586686064 0.586686064,-8.91005116e-17 1.3104,-2.22044605e-16 L26.99424,0 C27.7179539,-1.32944093e-16 28.30464,0.586686064 28.30464,1.3104 L28.30464,26.99424 C28.30464,27.7179539 27.7179539,28.30464 26.99424,28.30464 Z" id="Shape" fill="#2E5BFF" fill-rule="nonzero"></path>
                            <rect id="Rectangle" fill="#FFFFFF" fill-rule="nonzero" x="5.8968" y="17.05552" width="17.29728" height="1.008" rx="0.504"></rect>
                            <rect id="Rectangle" fill="#FFFFFF" fill-rule="nonzero" x="5.8968" y="21.37984" width="17.29728" height="1.008" rx="0.504"></rect>
                            <circle id="Oval" fill="#EFDE00" cx="9.992" cy="8.936" r="4"></circle>
                        </g>
                    </g>
                </g>
            </g>
        </g>
    </g>
</svg>