<?xml version="1.0" encoding="UTF-8"?>
<svg width="37px" height="37px" viewBox="0 0 37 37" version="1.1" xmlns="http://www.w3.org/2000/svg" xmlns:xlink="http://www.w3.org/1999/xlink">
    <!-- Generator: Sketch 52.6 (67491) - http://www.bohemiancoding.com/sketch -->
    <title>Group 8</title>
    <desc>Created with Sketch.</desc>
    <g id="Prospects" stroke="none" stroke-width="1" fill="none" fill-rule="evenodd">
        <g id="03-Prospects-06-Detail-Book-Meeting-scrolled-and-overdue" transform="translate(-915.000000, -239.000000)">
            <g id="Group-4" transform="translate(903.000000, 228.000000)">
                <g id="Group-8" transform="translate(12.000000, 11.000000)">
                    <circle id="Oval" fill="#F5A623" cx="18.5" cy="18.5" r="18.5"></circle>
                    <path d="M28,26 L24.2222222,26 L24.2222222,19.625 C24.2222222,18.6238889 23.0983333,17.7927778 22.0972222,17.7927778 C21.0961111,17.7927778 20.4444444,18.6238889 20.4444444,19.625 L20.4444444,26 L16.6666667,26 L16.6666667,14.6666667 L20.4444444,14.6666667 L20.4444444,16.5555556 C21.0677778,15.545 22.6733333,14.8933333 23.75,14.8933333 C26.1111111,14.8933333 28,16.82 28,19.1527778 L28,26 M14.7777778,26 L11,26 L11,14.6666667 L14.7777778,14.6666667 L14.7777778,26 M12.8888889,9 C13.9320934,9 14.7777778,9.84568436 14.7777778,10.8888889 C14.7777778,11.9320934 13.9320934,12.7777778 12.8888889,12.7777778 C11.8456844,12.7777778 11,11.9320934 11,10.8888889 C11,9.84568436 11.8456844,9 12.8888889,9 Z" id="Shape" fill="#FFFFFF" fill-rule="nonzero"></path>
                </g>
            </g>
        </g>
    </g>
</svg>