<?xml version="1.0" encoding="UTF-8"?>
<svg width="37px" height="37px" viewBox="0 0 37 37" version="1.1" xmlns="http://www.w3.org/2000/svg" xmlns:xlink="http://www.w3.org/1999/xlink">
    <!-- Generator: Sketch 52.6 (67491) - http://www.bohemiancoding.com/sketch -->
    <title>Group 13</title>
    <desc>Created with Sketch.</desc>
    <g id="Agency/Clients/Team" stroke="none" stroke-width="1" fill="none" fill-rule="evenodd">
        <g id="00-Dashboard-04-Vector-Agency-6" transform="translate(-1000.000000, -236.000000)">
            <g id="Group-2" transform="translate(960.000000, 0.000000)">
                <g id="Group-6" transform="translate(28.000000, 91.000000)">
                    <g id="Group-4" transform="translate(0.000000, 134.000000)">
                        <g id="Group-13" transform="translate(12.000000, 11.000000)">
                            <circle id="Oval" fill="#2E5BFF" cx="18.5" cy="18.5" r="18.5"></circle>
                            <g id="linkedin" transform="translate(11.000000, 9.000000)" fill="#FFFFFF" fill-rule="nonzero">
                                <path d="M17,17 L13.2222222,17 L13.2222222,10.625 C13.2222222,9.62388889 12.0983333,8.79277778 11.0972222,8.79277778 C10.0961111,8.79277778 9.44444444,9.62388889 9.44444444,10.625 L9.44444444,17 L5.66666667,17 L5.66666667,5.66666667 L9.44444444,5.66666667 L9.44444444,7.55555556 C10.0677778,6.545 11.6733333,5.89333333 12.75,5.89333333 C15.1111111,5.89333333 17,7.82 17,10.1527778 L17,17 M3.77777778,17 L0,17 L0,5.66666667 L3.77777778,5.66666667 L3.77777778,17 M1.88888889,0 C2.93209342,0 3.77777778,0.845684361 3.77777778,1.88888889 C3.77777778,2.93209342 2.93209342,3.77777778 1.88888889,3.77777778 C0.845684361,3.77777778 0,2.93209342 0,1.88888889 C0,0.845684361 0.845684361,0 1.88888889,0 Z" id="Shape"></path>
                            </g>
                        </g>
                    </g>
                </g>
            </g>
        </g>
    </g>
</svg>