<?xml version="1.0" encoding="UTF-8"?>
<svg width="59px" height="36px" viewBox="0 0 59 36" version="1.1" xmlns="http://www.w3.org/2000/svg" xmlns:xlink="http://www.w3.org/1999/xlink">
    <!-- Generator: Sketch 52.6 (67491) - http://www.bohemiancoding.com/sketch -->
    <title>mastercard-2</title>
    <desc>Created with Sketch.</desc>
    <g id="Agency/Clients/Team" stroke="none" stroke-width="1" fill="none" fill-rule="evenodd">
        <g id="00-Dashboard-04-Vector-Agency-2" transform="translate(-425.000000, -477.000000)" fill-rule="nonzero">
            <g id="mastercard-2" transform="translate(425.000000, 477.000000)">
                <path d="M57.6227982,29.1531903 L57.6227982,28.4550636 L57.4409944,28.4550636 L57.2306837,28.934153 L57.0215366,28.4550636 L56.839151,28.4550636 L56.839151,29.1531903 L56.9683044,29.1531903 L56.9683044,28.6272682 L57.1649434,29.0810505 L57.298751,29.0810505 L57.4953901,28.6261046 L57.4953901,29.1531903 L57.62338,29.1531903 L57.6227982,29.1531903 Z M56.4694347,29.1531903 L56.4694347,28.5746178 L56.7021436,28.5746178 L56.7021436,28.4568089 L56.1075723,28.4568089 L56.1075723,28.5746178 L56.3402812,28.5746178 L56.3402812,29.1531903 L56.4682711,29.1531903 L56.4694347,29.1531903 Z" id="Shape" fill="#F79410"></path>
                <polygon id="Path" fill="#FF5F00" points="36.9591198 32.1472813 21.2262522 32.1472813 21.2262522 3.8731489 36.9594107 3.8731489"></polygon>
                <path d="M22.2237008,18.0107969 C22.2237008,12.2753949 24.9091616,7.16627084 29.0909407,3.87373067 C25.9255492,1.37777377 22.0104441,0.023132446 17.9793812,0.0290886136 C8.04940115,0.0290886136 0,8.07965331 0,18.0107969 C0,27.9419404 8.04940115,35.9925051 17.9793812,35.9925051 C22.0105438,35.9985268 25.9257618,34.6438819 29.0912316,32.1478631 C24.9097434,28.8559047 22.2237008,23.7464897 22.2237008,18.0107969" id="Path" fill="#EB001B"></path>
                <path d="M58.1844993,18.0107969 C58.1844993,27.9419404 50.1350982,35.9925051 40.2051182,35.9925051 C36.1735295,35.9984217 32.2578848,34.6438065 29.0918133,32.1478631 C33.274756,28.8553229 35.9602168,23.7464897 35.9602168,18.0107969 C35.9602168,12.275104 33.274756,7.16627084 29.0918133,3.87373067 C32.2578065,1.37784918 36.1733383,0.0232375285 40.2048273,0.0290886136 C50.1348073,0.0290886136 58.1842084,8.07965331 58.1842084,18.0107969" id="Path" fill="#F79E1B"></path>
            </g>
        </g>
    </g>
</svg>