<?xml version="1.0" encoding="UTF-8"?>
<svg width="37px" height="37px" viewBox="0 0 37 37" version="1.1" xmlns="http://www.w3.org/2000/svg" xmlns:xlink="http://www.w3.org/1999/xlink">
    <!-- Generator: Sketch 52.6 (67491) - http://www.bohemiancoding.com/sketch -->
    <title>Group</title>
    <desc>Created with Sketch.</desc>
    <g id="Sequences" stroke="none" stroke-width="1" fill="none" fill-rule="evenodd">
        <g id="02-Sequences-09-Create-Sequence-Alt-Steps-filled" transform="translate(-466.000000, -549.000000)">
            <g id="Group-2" transform="translate(129.000000, 530.000000)">
                <g id="Group-28" transform="translate(337.000000, 19.000000)">
                    <g id="Group">
                        <circle id="Oval" fill="#2E5BFF" cx="18.5" cy="18.5" r="18.5"></circle>
                        <path d="M25.4224,11 L11.7136,11 C10.7672049,11 10,11.7672049 10,12.7136 L10,28.136 L13.4272,24.7088 L25.4224,24.7088 C26.3687951,24.7088 27.136,23.9415951 27.136,22.9952 L27.136,12.7136 C27.136,11.7672049 26.3687951,11 25.4224,11 M13.4272,16.9976 L23.7088,16.9976 L23.7088,18.7112 L13.4272,18.7112 M20.2816,21.2816 L13.4272,21.2816 L13.4272,19.568 L20.2816,19.568 M23.7088,16.1408 L13.4272,16.1408 L13.4272,14.4272 L23.7088,14.4272" id="Shape" fill="#FFFFFF" fill-rule="nonzero"></path>
                    </g>
                </g>
            </g>
        </g>
    </g>
</svg>