<?xml version="1.0" encoding="UTF-8"?>
<svg width="37px" height="42px" viewBox="0 0 37 42" version="1.1" xmlns="http://www.w3.org/2000/svg" xmlns:xlink="http://www.w3.org/1999/xlink">
    <!-- Generator: Sketch 52.6 (67491) - http://www.bohemiancoding.com/sketch -->
    <title>mountain-dew-6</title>
    <desc>Created with Sketch.</desc>
    <g id="Agency/Clients/Team" stroke="none" stroke-width="1" fill="none" fill-rule="evenodd">
        <g id="00-Dashboard-04-Vector-Agency-2" transform="translate(-1216.000000, -474.000000)" fill-rule="nonzero">
            <g id="mountain-dew-6" transform="translate(1217.000000, 475.000000)">
                <path d="M35.5537891,4.11618698 L35.5537891,4.00729097 L35.6558649,4.00729097 C35.7042884,4.00729097 35.7136093,4.03934595 35.7136093,4.0604886 C35.7136093,4.10095518 35.692694,4.11618698 35.6501814,4.11618698 L35.5537891,4.11618698 Z M35.4730833,4.34352729 L35.5537891,4.34352729 L35.5537891,4.18484375 L35.6381323,4.18484375 C35.6990596,4.18484375 35.702015,4.20621374 35.702015,4.26168478 C35.702015,4.3035154 35.7051977,4.3244307 35.7108812,4.34352729 L35.8013627,4.34352729 L35.8013627,4.3328423 C35.7836301,4.32624943 35.7836301,4.31147231 35.7836301,4.25213649 C35.7836301,4.17643216 35.7663523,4.16392844 35.7338426,4.14937866 C35.7733998,4.13573824 35.7952245,4.09709039 35.7952245,4.05253169 C35.7952245,4.01729394 35.7761279,3.93795217 35.6717787,3.93795217 L35.4728559,3.93795217 L35.4728559,4.34352729 L35.4730833,4.34352729 Z" id="Shape" fill="#23835A"></path>
                <path d="M35.3312229,4.15619887 C35.3312229,3.98091949 35.4598975,3.84928945 35.6238099,3.84928945 C35.7849942,3.84928945 35.9136688,3.98091949 35.9136688,4.15619887 C35.9136688,4.33443368 35.7849942,4.46515436 35.6238099,4.46515436 C35.4601249,4.46515436 35.3312229,4.33443368 35.3312229,4.15619887 Z M35.6240372,4.52653624 C35.7214248,4.52618705 35.814605,4.48679971 35.882717,4.41719217 C35.950829,4.34758463 35.9881835,4.25357102 35.9864177,4.15619887 C35.9864177,3.94340834 35.8186406,3.78836225 35.6240372,3.78836225 C35.4269332,3.78836225 35.259156,3.94363568 35.259156,4.15619887 C35.2573825,4.25400455 35.2950777,4.34840228 35.3637329,4.41808412 C35.4323881,4.48776595 35.526216,4.52685802 35.6240372,4.52653624 Z" id="Shape" fill="#23835A"></path>
                <path d="M35.5537891,4.11618698 L35.5537891,4.00729097 L35.6558649,4.00729097 C35.7042884,4.00729097 35.7136093,4.03934595 35.7136093,4.0604886 C35.7136093,4.10095518 35.692694,4.11618698 35.6501814,4.11618698 L35.5537891,4.11618698 Z M35.4730833,4.34352729 L35.5537891,4.34352729 L35.5537891,4.18484375 L35.6381323,4.18484375 C35.6990596,4.18484375 35.702015,4.20621374 35.702015,4.26168478 C35.702015,4.3035154 35.7051977,4.3244307 35.7108812,4.34352729 L35.8013627,4.34352729 L35.8013627,4.3328423 C35.7836301,4.32624943 35.7836301,4.31147231 35.7836301,4.25213649 C35.7836301,4.17643216 35.7663523,4.16392844 35.7338426,4.14937866 C35.7733998,4.13573824 35.7952245,4.09709039 35.7952245,4.05253169 C35.7952245,4.01729394 35.7761279,3.93795217 35.6717787,3.93795217 L35.4728559,3.93795217 L35.4728559,4.34352729 L35.4730833,4.34352729 Z" id="Shape" fill="#23835A"></path>
                <path d="M35.3312229,4.15619887 C35.3312229,3.98091949 35.4598975,3.84928945 35.6238099,3.84928945 C35.7849942,3.84928945 35.9136688,3.98091949 35.9136688,4.15619887 C35.9136688,4.33443368 35.7849942,4.46515436 35.6238099,4.46515436 C35.4601249,4.46515436 35.3312229,4.33443368 35.3312229,4.15619887 Z M35.6240372,4.52653624 C35.7214248,4.52618705 35.814605,4.48679971 35.882717,4.41719217 C35.950829,4.34758463 35.9881835,4.25357102 35.9864177,4.15619887 C35.9864177,3.94340834 35.8186406,3.78836225 35.6240372,3.78836225 C35.4269332,3.78836225 35.259156,3.94363568 35.259156,4.15619887 C35.2573825,4.25400455 35.2950777,4.34840228 35.3637329,4.41808412 C35.4323881,4.48776595 35.526216,4.52685802 35.6240372,4.52653624 Z" id="Shape" fill="#23835A"></path>
                <path d="M30.1740079,0.514434391 C31.2045416,-0.239426088 32.4599148,-0.0886994605 32.6597469,1.05186689 C32.737952,1.49836327 32.7677335,1.73979868 32.7677335,1.73979868 L33.8400978,1.12711654 C34.1890652,0.90523239 34.572361,0.978890652 34.8794977,1.26874955 C35.1868618,1.55815377 35.2950758,2.05102757 35.203685,2.36225646 C34.9688425,3.16476777 34.8044754,3.76676492 34.6967161,4.54949762 L34.638517,4.9734873 L32.4187662,19.0579017 C32.3908033,19.2345452 32.3548835,19.426193 32.2571272,19.567144 L31.9534005,21.4806675 C31.8863352,22.0840287 31.6426263,22.4152635 31.5209993,22.5744017 C31.5209993,22.5744017 30.7225801,23.8568284 29.9248429,24.6861659 C29.0900493,25.5541512 27.7135037,24.9876191 27.4641114,24.1960202 C27.4156879,24.0418834 27.3774947,23.7524792 27.3699925,23.548555 L27.1537918,25.006261 C27.1324219,25.1549416 27.1110519,25.3179446 27.039667,25.4432091 C26.9135859,26.2106168 26.7780049,26.9764335 26.6329552,27.740483 C26.5886238,28.2560908 26.4388066,28.4256867 26.3003563,28.6452974 L25.235949,30.1918936 C23.6068283,32.8310873 21.9106422,32.0142535 21.7112647,29.7135696 C21.7112647,29.7135696 21.6780731,29.2109201 21.6335144,28.8339899 L15.0581505,33.0709313 C14.2472276,33.5974515 13.5215573,33.5344782 12.9452496,33.1552746 C12.8800675,33.1120799 12.8182787,33.0639713 12.7604219,33.0113682 C12.3507547,34.1978573 11.7433014,35.1742839 10.754371,35.8162929 L4.95082747,39.6567529 C3.5208569,40.5238288 1.85831719,39.7695137 2.7228924,36.3757775 C2.8649801,35.817657 2.74426239,34.7298336 2.8226948,32.7933488 C2.8226948,32.7933488 2.22842722,33.4314931 1.58118935,33.3589715 C-0.768827475,33.0952567 0.199642261,29.8956692 0.295352533,29.5878504 C0.494957328,28.9472054 0.5613407,28.230856 0.694562123,27.4765409 C1.5177614,22.8081076 2.67310487,15.069898 2.67310487,15.069898 C2.70015837,14.8950733 2.764041,14.7302515 2.85975127,14.5897552 L3.69045277,13.4344117 C3.70204713,13.3941725 3.71591489,13.3675737 3.73160137,13.3289258 C3.78707241,13.2284414 3.83254047,13.1488723 3.89233097,13.0649837 L6.43513238,9.48073635 C6.6799779,9.13654312 7.10396758,9.04492497 7.47816974,9.16882544 C7.7266527,9.25112264 7.92262005,9.48755656 8.0435651,9.73444814 L8.22089054,8.72255641 C8.24565495,8.54889555 8.3089622,8.38297616 8.4061729,8.2369575 L9.0338595,7.36010591 C9.06215882,7.28983387 9.09758142,7.22264521 9.13957275,7.15959175 L11.9842821,2.94674841 C12.1670637,2.6828063 12.7490549,2.53185233 13.0150431,2.6641644 C13.381743,2.84603665 13.6161309,3.1734067 13.6470491,3.62558658 L13.7134325,4.17256738 L14.2351785,10.9595851 L22.2430137,5.94468512 C22.2430137,5.94468512 22.0104446,5.03964333 23.1576038,4.36080516 C23.1576038,4.36080516 24.171769,3.58784809 24.6650974,4.0864054 C26.5006431,2.89514215 28.3357341,1.70206019 30.1740079,0.514434391 Z" id="Path" stroke="#04593C" stroke-width="0.555555556" fill="#04593C"></path>
                <path d="M34.9063239,1.25601849 C34.5989598,0.966386934 34.1633757,0.890000589 33.8153177,1.11165739 L32.7843294,1.70228753 C32.7843294,1.70228753 32.7359059,1.55065154 32.684527,1.09915368 C32.5513056,-0.0700575547 31.2875208,-0.37151081 30.0576097,0.57126947 C30.0576097,0.57126947 24.7980915,3.99774267 24.6648701,4.08663274 C24.6089444,4.02638755 24.6262222,4.02161341 24.5573381,3.97728205 C24.2577036,3.78336076 23.8887303,3.85770104 23.5906871,4.05616913 L22.6481342,4.68453776 C22.3519097,4.88164181 22.1707195,5.24288557 22.1720836,5.63231953 L22.1729929,5.94423044 C22.1311623,5.97901351 16.4199189,9.58167545 14.2349512,10.9598124 L13.673648,3.57488969 C13.6427297,3.12248247 13.3687846,2.73873202 12.9852615,2.6100574 C12.6017384,2.48138278 12.187979,2.63438281 11.9447249,2.99517189 L9.09160394,7.22893055 C9.03658759,7.31031838 8.99384761,7.40057249 8.96088326,7.4953734 C8.92661302,7.58170488 8.9025044,7.67173075 8.88904372,7.76363497 L8.30932592,11.7368616 L8.1456409,10.0477231 C8.10290092,9.60827427 7.83122924,9.24111966 7.45725443,9.11699185 C7.08282493,8.99309138 6.67975056,9.13631578 6.43490504,9.48073635 L3.82935771,13.1470536 C3.76955724,13.2321894 3.7218895,13.3252295 3.68772469,13.4234994 C3.65274699,13.5091649 3.62772707,13.5985654 3.61315707,13.6899423 L3.61270239,13.7520062 L1.36226062,27.934859 C1.3604419,27.9473627 1.35862318,27.9591844 1.35725914,27.9716881 C1.25289315,28.794625 1.08020019,29.6074454 0.840969285,30.4017287 C0.712522008,30.8311746 0.830738971,31.3054064 1.13810307,31.5948107 C1.44569452,31.8846696 1.88105122,31.9610559 2.22933658,31.7396264 C2.22933658,31.7396264 2.71402613,31.3888403 3.50107829,30.822763 L3.49312138,31.9985671 L3.49948691,35.394804 C3.49994159,36.1270672 3.44060577,36.6260791 3.29465329,37.1166795 C3.16620601,37.5474894 3.28646904,38.0237674 3.59633388,38.3124896 C3.90619873,38.6014391 4.34155543,38.6423604 4.68938611,38.4159294 L11.4238882,34.0318988 C12.4191841,33.3835243 13.1282585,32.4359698 13.535425,31.2372044 C13.5943062,31.2894926 13.6561428,31.3397348 13.7232081,31.3840662 C14.2992885,31.7623605 15.0026794,31.6877929 15.8138297,31.160818 L21.913825,27.1978217 C22.0320383,27.1197283 22.1325006,27.0176394 22.2086853,26.8981871 L22.3712337,29.2763942 C22.4019246,29.7283467 22.6758697,30.1125518 23.0593928,30.2412264 C23.4429159,30.3699011 23.8569026,30.216901 24.0997021,29.8563393 L26.9530504,25.6225806 C27.0501572,25.4764465 27.1133827,25.3104602 27.1381054,25.1367544 L27.7307816,21.0730463 L27.8985587,22.8033334 C27.9412987,23.2430096 28.2129704,23.6101642 28.5871725,23.7340646 C28.9611473,23.8584198 29.3642217,23.7145134 29.6092946,23.3707748 L32.2155239,19.7044576 C32.3188429,19.5571855 32.3867629,19.3880467 32.413992,19.2102198 L34.6821663,4.91642488 C34.6844397,4.90437584 34.6862585,4.89209947 34.6873952,4.87959575 C34.791637,4.05658235 34.9642546,3.24368245 35.2034577,2.4493278 C35.3321323,2.02010929 35.2141427,1.54565005 34.9063239,1.25601849 Z" id="Path" fill="#FFFFFF"></path>
                <path d="M18.8083563,21.2244549 L16.6854524,22.6035013 L16.6861345,21.0116644 C16.6861345,20.3505588 16.8018507,20.0304636 17.149454,19.8047147 L18.3452641,19.0276655 C18.6928674,18.8019165 18.8083563,18.9715124 18.8083563,19.6328454 L18.8083563,21.2244549 Z M21.7553688,21.5529617 L21.7562781,17.840267 C21.7567328,15.7146351 21.3341072,14.8430123 20.0778246,15.6593914 L15.3359603,18.7398526 C14.0753583,19.5587325 13.6504592,20.9802914 13.6502319,23.106378 L13.6493225,27.892119 C13.6490952,30.2573676 14.0730849,31.030552 15.3341416,30.2116722 L21.4343642,26.2486759 L21.6657967,23.3673647 C21.3200121,23.9095714 20.947856,24.321512 20.3838247,24.6879846 L17.3151851,26.6813045 C16.9036991,26.9491114 16.6849978,26.6760756 16.6852251,25.9201691 L16.6852251,24.8468955 L21.7553688,21.5529617 Z M10.4661035,21.8323629 L4.2026505,25.9306268 C4.37929392,26.2925525 4.45658963,26.7897458 4.4597724,27.6236301 L4.44954208,27.6297683 L4.4643192,35.3925306 C4.46500122,36.2561965 4.38793286,36.8641045 4.20833401,37.467011 L10.9432908,33.0822983 C12.3455258,32.1697543 12.9750312,30.5717793 12.9741218,28.5709572 L12.9713937,24.0357452 C12.9704844,22.0351505 11.8683385,20.9193642 10.4661035,21.8323629 Z M9.83568879,30.0591269 C9.83568879,31.0225951 9.53696362,31.5884451 8.89381787,32.0226651 L7.60297957,32.8631423 L7.58865713,26.0167887 L7.59911478,26.0097412 L8.49960977,25.4288867 C9.47467237,24.8148405 9.83273336,25.2215523 9.83273336,26.4771529 L9.83568879,30.0591269 Z M33.7323385,4.73136987 L31.4612088,19.1033698 L28.8583895,22.7642309 L27.9356152,13.2345796 L27.9108351,13.2504934 L26.1898689,25.0353606 L23.3401581,29.2629811 L22.4458013,16.1543113 C22.3303124,15.2297182 22.2132322,14.7964076 21.9968042,14.551562 L25.5928733,12.2540608 C25.3691704,12.876746 25.4191853,13.0743047 25.3869029,13.4894281 C25.3482551,13.9782098 25.3464364,19.8997429 25.3464364,19.8997429 L25.3712165,19.8838291 L27.1130979,11.2910473 L30.4770526,9.15132024 L30.7989664,14.8584715 L30.8237465,14.842785 L32.6872551,5.02168345 C32.7468182,4.56541144 32.7570486,4.22872043 32.7547752,3.83360297 C32.755908,3.59850812 32.7293537,3.36409764 32.6756607,3.13521353 L34.49893,1.98032473 C34.2177101,2.71645267 33.8628318,3.70129091 33.7323385,4.73136987 Z" id="Shape" fill="#CC2131"></path>
                <path d="M15.6399143,15.7626039 C15.6408237,16.082017 15.6014938,16.2538863 15.5110124,16.3123128 L15.107938,16.5721628 C15.0172292,16.6305892 14.9774447,16.5096442 14.9765353,16.1904584 L14.9699424,13.3152854 C14.9692604,12.9958723 15.0083629,12.824003 15.0992991,12.7653492 L15.5021461,12.5057266 C15.5928549,12.4470728 15.6326394,12.5682452 15.6335488,12.887431 L15.6399143,15.7626039 Z M16.5690542,15.0439812 L16.562916,12.4081976 C16.5601879,11.2778615 16.4444717,10.673591 16.0468535,10.9300309 L14.5486808,11.8959998 C14.1508353,12.1522124 14.0385292,12.9037995 14.0412572,14.0341355 L14.0471681,16.6696917 C14.0498962,17.8002551 14.1656124,18.4042983 14.5634579,18.1478585 L16.0614033,17.1821168 C16.4587941,16.9254496 16.5715549,16.1743172 16.5690542,15.0439812 Z M18.6667233,15.506846 L18.637851,14.8737033 L18.6298941,14.8784774 C18.5837441,15.2945102 18.5059937,15.6109679 18.3802745,15.6916737 L17.6341436,16.1729532 C17.2087898,16.4468982 17.0216888,15.6759872 17.018506,14.3633243 L17.0123678,11.739817 C17.0112311,11.1701022 16.974402,10.6499476 16.9066546,10.4012373 L17.9383249,9.73626687 L17.9487826,14.2942128 C17.9494646,14.5724774 17.985157,14.7220673 18.0831407,14.6588667 L18.4675732,14.4110657 C18.5416861,14.3630969 18.592383,14.1846348 18.5919283,13.8797714 L18.5844261,10.5937945 C18.5826073,10.0240797 18.5662388,9.62327873 18.4987188,9.37456843 L19.5106105,8.72255641 L19.5217502,13.5453538 C19.5231142,14.1162053 19.5594887,14.638406 19.6274634,14.887571 L18.6667233,15.506846 Z M21.4857432,13.7026733 C21.5518992,13.3605261 21.5855456,12.7933121 21.5844088,12.2222332 L21.5769066,9.06129348 C21.5764519,8.78234691 21.5405322,8.63252965 21.4427758,8.69573025 L21.0583434,8.94330385 C20.9842304,8.99127266 20.9335335,9.17041683 20.9344429,9.47596221 L20.9414904,12.6369019 C20.9428545,13.2079808 20.9796836,13.7299542 21.046749,13.9861667 L19.9136849,14.7166111 C19.9793862,14.3742366 20.0134873,13.8067952 20.0123506,13.2359437 L20.0043937,9.80924311 C20.0030296,9.2379369 19.9666552,8.71596354 19.8986804,8.46679856 L20.8596479,7.8472962 L20.8885201,8.48066632 L20.8964771,8.47566483 C20.9430818,8.05963206 21.0203775,7.74340168 21.1465514,7.66246853 L21.892455,7.18141642 C22.317354,6.90747135 22.5046824,7.67838235 22.5078652,8.99331872 L22.5140034,11.6229641 C22.5153674,12.194043 22.5517419,12.715789 22.6197166,12.9717742 L21.4857432,13.7026733 Z M24.6148552,5.41680091 L23.990124,5.81782922 C23.990124,5.81782922 23.9776203,5.40429719 23.9776203,5.19673549 C23.9776203,5.0134992 24.0167229,4.89505489 24.0167229,4.89505489 L22.9689114,5.56752754 C22.9689114,5.56752754 23.0466617,5.61163156 23.0391595,5.81328242 C23.0568921,6.06426612 23.0452977,6.41618893 23.0452977,6.41618893 L22.5669737,6.72719048 C22.5669737,6.72719048 22.5487865,8.15761573 22.5715205,8.0609961 C22.5826602,8.01279995 22.6297196,7.93368552 22.7834017,7.83933929 C22.8988905,7.75181327 23.0498445,7.66951608 23.0498445,7.66951608 L23.0582561,10.8875182 C23.0080139,11.9494248 23.1187286,12.574838 23.5743186,12.3681857 L24.6212208,11.6923029 L24.6150826,10.3469029 C24.5209637,10.5919758 24.1929116,10.7615717 24.1551731,10.7615717 C24.0605995,10.7615717 24.0024004,10.761799 24.0014911,10.4098762 L23.9930795,7.07070169 C23.9930795,7.07070169 24.1719963,6.93861697 24.3425015,6.82540149 C24.4618552,6.7465144 24.5787081,6.73150994 24.6150826,6.76742971 L24.6150826,5.41680091 L24.6148552,5.41680091 Z M27.8405869,9.62305139 C27.906743,9.28067688 27.940844,8.7123261 27.9397073,8.14011053 L27.9317504,4.73546199 C27.9303864,4.16324642 27.8935572,3.64059104 27.8260372,3.39074404 L28.8574802,2.72577362 L28.8686198,7.54084146 C28.8704386,8.11282969 28.906813,8.63571241 28.9747878,8.89147026 L27.8405869,9.62305139 Z M30.8146529,7.70679989 C30.8808089,7.36465272 30.9144553,6.79743863 30.9133186,6.22635977 L30.9062711,3.06542005 C30.9058164,2.78647348 30.8698966,2.63665622 30.7716856,2.69962948 L30.3877078,2.94743043 C30.3131402,2.99562657 30.2624433,3.1745434 30.2633527,3.48008878 L30.2708549,6.64080116 C30.2722189,7.21188003 30.3085934,7.73385339 30.3756588,7.98983858 L29.2425946,8.72051035 C29.3087507,8.37813583 29.3428517,7.81092175 29.341715,7.23961554 L29.3337581,3.81314234 C29.3323941,3.24183613 29.2955649,2.71963543 29.2280449,2.47069779 L30.1885577,1.85119543 L30.2178846,2.48456555 L30.2258415,2.47956406 C30.2719916,2.06375863 30.349742,1.74752825 30.4754612,1.6665951 L31.2213647,1.185543 C31.6467185,0.911370579 31.8335922,1.68273626 31.8372296,2.99767264 L31.8433678,5.62731804 C31.8442772,6.19839691 31.8811063,6.72014293 31.9486264,6.97612812 L30.8146529,7.70679989 Z M27.3952273,8.4963528 L27.4884368,5.81873859 C27.550046,4.06230732 27.180618,3.77222108 26.7734515,4.04025531 L24.8606101,5.25175184 C24.8606101,5.25175184 24.8481064,6.68604188 24.8694764,6.613975 C24.9031227,6.50075953 25.0367988,6.35389768 25.3409802,6.18975798 L26.3910651,5.53001639 C26.4913222,5.46363302 26.5304247,5.57161966 26.5188304,5.90080844 C26.5076907,6.21612945 26.46245,6.33957524 26.3535539,6.41141478 L25.4112283,6.97521876 C25.0165656,7.23529608 24.846515,7.87594108 24.8005923,9.18746735 L24.779677,9.76809451 C24.7326175,11.1200874 24.8783427,11.5267992 25.2730054,11.2667219 L26.018909,10.7749848 C26.2448853,10.6260769 26.3590101,10.4055568 26.4162999,9.82561161 L26.4247115,9.82015544 L26.4504009,10.5192269 L27.4534264,9.85857596 C27.3934085,9.60804693 27.3752213,9.07811666 27.3952273,8.4963528 Z M26.4272122,8.57478521 C26.4072063,9.13336036 26.3796981,9.328191 26.2207872,9.42867542 L25.9525256,9.5982713 C25.7936148,9.6992104 25.7567856,9.58258482 25.7695167,9.23225339 L25.7961155,8.30561427 C25.8090739,7.95482817 25.8520412,7.77522932 26.0280026,7.66383257 L26.463132,7.38852345 L26.4272122,8.57478521 Z M2.31208845,28.1201413 L4.58344553,13.747914 L7.18626477,10.087053 L8.10926645,19.6164769 L8.13404654,19.6012451 L9.85501271,7.81615058 L12.7047235,3.58830277 L13.5990803,16.6967452 C13.7145692,17.6215656 13.8316495,18.0551036 14.0478501,18.2997218 L10.4515537,20.5974503 C10.6748019,19.9749926 10.6250144,19.7767518 10.657524,19.3620831 C10.6959445,18.8730741 10.6977633,12.9513136 10.6977633,12.9513136 L10.6729832,12.9672274 L8.93132902,21.5600092 L5.56760174,23.6997363 L5.24546052,17.9928124 L5.22068042,18.0087262 L3.35717187,27.8296004 C3.29783605,28.2856451 3.2873784,28.6225634 3.28987914,29.0174535 C3.29169786,29.302993 3.317842,29.4841832 3.36899357,29.7162977 L1.54549692,30.8707318 C1.82694422,30.1350585 2.18159511,29.1497656 2.31208845,28.1201413 Z" id="Shape" fill="#23835A"></path>
            </g>
        </g>
    </g>
</svg>