<?xml version="1.0" encoding="UTF-8"?>
<svg width="28px" height="28px" viewBox="0 0 28 28" version="1.1" xmlns="http://www.w3.org/2000/svg" xmlns:xlink="http://www.w3.org/1999/xlink">
    <!-- Generator: Sketch 52.6 (67491) - http://www.bohemiancoding.com/sketch -->
    <title>Icon</title>
    <desc>Created with Sketch.</desc>
    <defs>
        <filter x="-9.9%" y="-0.3%" width="119.8%" height="100.6%" filterUnits="objectBoundingBox" id="filter-1">
            <feOffset dx="0" dy="0" in="SourceAlpha" result="shadowOffsetOuter1"></feOffset>
            <feGaussianBlur stdDeviation="2" in="shadowOffsetOuter1" result="shadowBlurOuter1"></feGaussianBlur>
            <feColorMatrix values="0 0 0 0 0   0 0 0 0 0   0 0 0 0 0  0 0 0 0.10423951 0" type="matrix" in="shadowBlurOuter1" result="shadowMatrixOuter1"></feColorMatrix>
            <feMerge>
                <feMergeNode in="shadowMatrixOuter1"></feMergeNode>
                <feMergeNode in="SourceGraphic"></feMergeNode>
            </feMerge>
        </filter>
    </defs>
    <g id="Symbols" stroke="none" stroke-width="1" fill="none" fill-rule="evenodd">
        <g id="Component/Navigation/Left-Bar/dashboard" transform="translate(-26.000000, -628.000000)" fill="#BFC5D2">
            <g id="Component/Navigation/Left-Bar" filter="url(#filter-1)">
                <g id="icon-Chat-Copy" transform="translate(28.000000, 630.000000)">
                    <path d="M13,12 C13,12.552 12.552,13 12,13 C11.448,13 11,12.552 11,12 C11,11.448 11.448,11 12,11 C12.552,11 13,11.448 13,12 M16.82,13.358 C16.377,15.027 15.027,16.377 13.358,16.82 C9.558,17.828 6.172,14.442 7.18,10.642 C7.623,8.973 8.973,7.623 10.642,7.18 C14.442,6.172 17.828,9.558 16.82,13.358 M21,11 L19.344,11 C19.103,11 18.772,10.984 18.774,10.743 C18.779,9.854 18.488,8.59 17.846,7.898 C17.682,7.721 17.73,7.559 17.9,7.389 L19.071,6.281 C19.462,5.89 19.462,5.288 19.071,4.898 C18.681,4.507 18.047,4.523 17.657,4.913 L16.486,6.092 C16.316,6.262 16.053,6.283 15.852,6.151 C15.122,5.669 14.297,5.322 13.41,5.141 C13.174,5.092 13,4.897 13,4.656 L13,3 C13,2.448 12.552,2 12,2 C11.448,2 11,2.448 11,3 L11,4.656 C11,4.897 10.826,5.094 10.59,5.143 C9.703,5.324 8.878,5.672 8.148,6.154 C7.947,6.287 7.684,6.27 7.514,6.1 L6.343,4.929 C5.953,4.538 5.319,4.538 4.929,4.929 C4.538,5.319 4.538,5.953 4.929,6.343 L6.1,7.514 C6.27,7.684 6.296,7.953 6.154,8.148 C5.66,8.831 5.344,9.562 5.202,10.84 C5.175,11.079 4.897,11 4.656,11 L3,11 C2.448,11 2,11.448 2,12 C2,12.552 2.448,13 3,13 L4.656,13 C4.897,13 5.189,13.088 5.237,13.323 C5.418,14.21 5.673,14.872 6.154,15.602 C6.287,15.803 6.27,16.191 6.1,16.361 L4.929,17.594 C4.538,17.985 4.538,18.649 4.929,19.04 C5.319,19.43 5.953,19.446 6.343,19.055 L7.514,17.892 C7.684,17.722 7.947,17.709 8.148,17.842 C8.878,18.323 9.703,18.674 10.59,18.855 C10.826,18.904 11,19.103 11,19.344 L11,21 C11,21.552 11.448,22 12,22 C12.552,22 13,21.552 13,21 L13,19.344 C13,19.103 13.174,18.906 13.41,18.857 C14.297,18.676 15.122,18.327 15.852,17.846 C16.053,17.713 16.316,17.73 16.486,17.9 L17.657,19.071 C18.047,19.462 18.681,19.462 19.071,19.071 C19.462,18.681 19.462,18.047 19.071,17.657 L17.9,16.486 C17.73,16.316 17.713,16.053 17.846,15.852 C18.327,15.122 18.588,14.714 18.857,13.91 C18.934,13.682 19.103,13 19.344,13 L21,13 C21.552,13 22,12.552 22,12 C22,11.448 21.552,11 21,11" id="settings-[#1491]"></path>
                </g>
            </g>
        </g>
    </g>
</svg>