<?xml version="1.0" encoding="UTF-8"?>
<svg width="27px" height="29px" viewBox="0 0 27 29" version="1.1" xmlns="http://www.w3.org/2000/svg" xmlns:xlink="http://www.w3.org/1999/xlink">
    <!-- Generator: Sketch 52.6 (67491) - http://www.bohemiancoding.com/sketch -->
    <title>graphic_eq-24px</title>
    <desc>Created with Sketch.</desc>
    <defs>
        <filter x="-9.9%" y="-0.3%" width="119.8%" height="100.6%" filterUnits="objectBoundingBox" id="filter-1">
            <feOffset dx="0" dy="0" in="SourceAlpha" result="shadowOffsetOuter1"></feOffset>
            <feGaussianBlur stdDeviation="2" in="shadowOffsetOuter1" result="shadowBlurOuter1"></feGaussianBlur>
            <feColorMatrix values="0 0 0 0 0   0 0 0 0 0   0 0 0 0 0  0 0 0 0.10423951 0" type="matrix" in="shadowBlurOuter1" result="shadowMatrixOuter1"></feColorMatrix>
            <feMerge>
                <feMergeNode in="shadowMatrixOuter1"></feMergeNode>
                <feMergeNode in="SourceGraphic"></feMergeNode>
            </feMerge>
        </filter>
    </defs>
    <g id="Symbols" stroke="none" stroke-width="1" fill="none" fill-rule="evenodd">
        <g id="Component/Navigation/Left-Bar/360" transform="translate(-27.000000, -223.000000)">
            <g id="Component/Navigation/Left-Bar" filter="url(#filter-1)">
                <g id="graphic_eq-24px" transform="translate(28.000000, 225.000000)">
                    <polygon id="Path" points="0 0 25 0 25 25 0 25"></polygon>
                    <path d="M7.29166667,18.75 L9.375,18.75 L9.375,6.25 L7.29166667,6.25 L7.29166667,18.75 Z M11.4583333,22.9166667 L13.5416667,22.9166667 L13.5416667,2.08333333 L11.4583333,2.08333333 L11.4583333,22.9166667 Z M3.125,14.5833333 L5.20833333,14.5833333 L5.20833333,10.4166667 L3.125,10.4166667 L3.125,14.5833333 Z M15.625,18.75 L17.7083333,18.75 L17.7083333,6.25 L15.625,6.25 L15.625,18.75 Z M19.7916667,10.4166667 L19.7916667,14.5833333 L21.875,14.5833333 L21.875,10.4166667 L19.7916667,10.4166667 Z" id="Shape" fill="#BFC5D2" fill-rule="nonzero"></path>
                </g>
            </g>
        </g>
    </g>
</svg>