<?xml version="1.0" encoding="UTF-8"?>
<svg width="24px" height="26px" viewBox="0 0 24 26" version="1.1" xmlns="http://www.w3.org/2000/svg" xmlns:xlink="http://www.w3.org/1999/xlink">
    <!-- Generator: Sketch 52.6 (67491) - http://www.bohemiancoding.com/sketch -->
    <title>account-tie</title>
    <desc>Created with Sketch.</desc>
    <defs>
        <filter x="-9.9%" y="-0.3%" width="119.8%" height="100.6%" filterUnits="objectBoundingBox" id="filter-1">
            <feOffset dx="0" dy="0" in="SourceAlpha" result="shadowOffsetOuter1"></feOffset>
            <feGaussianBlur stdDeviation="2" in="shadowOffsetOuter1" result="shadowBlurOuter1"></feGaussianBlur>
            <feColorMatrix values="0 0 0 0 0   0 0 0 0 0   0 0 0 0 0  0 0 0 0.10423951 0" type="matrix" in="shadowBlurOuter1" result="shadowMatrixOuter1"></feColorMatrix>
            <feMerge>
                <feMergeNode in="shadowMatrixOuter1"></feMergeNode>
                <feMergeNode in="SourceGraphic"></feMergeNode>
            </feMerge>
        </filter>
    </defs>
    <g id="Symbols" stroke="none" stroke-width="1" fill="none" fill-rule="evenodd">
        <g id="Component/Navigation/Left-Bar/tasks" transform="translate(-29.000000, -280.000000)" fill="#BFC5D2" fill-rule="nonzero">
            <g id="Component/Navigation/Left-Bar" filter="url(#filter-1)">
                <g id="account-tie" transform="translate(33.000000, 284.000000)">
                    <path d="M8,0 C10.209139,0 12,1.790861 12,4 C12,6.209139 10.209139,8 8,8 C5.790861,8 4,6.209139 4,4 C4,1.790861 5.790861,4.4408921e-16 8,0 M12,10.54 C12,11.6 11.72,14.07 9.81,16.83 L9,12 L9.94,10.12 C9.32,10.05 8.67,10 8,10 C7.33,10 6.68,10.05 6.06,10.12 L7,12 L6.19,16.83 C4.28,14.07 4,11.6 4,10.54 C1.61,11.24 0,12.5 0,14 L0,18 L6,18 L7.09,18 L8.91,18 L10,18 L16,18 L16,14 C16,12.5 14.4,11.24 12,10.54 Z" id="Shape"></path>
                </g>
            </g>
        </g>
    </g>
</svg>