<?xml version="1.0" encoding="UTF-8"?>
<svg width="21px" height="20px" viewBox="0 0 21 20" version="1.1" xmlns="http://www.w3.org/2000/svg" xmlns:xlink="http://www.w3.org/1999/xlink">
    <!-- Generator: Sketch 52.6 (67491) - http://www.bohemiancoding.com/sketch -->
    <title>email-send-outline</title>
    <desc>Created with Sketch.</desc>
    <g id="Symbols" stroke="none" stroke-width="1" fill="none" fill-rule="evenodd">
        <g id="Component/Navigation/Left-Bar/prospects" transform="translate(-30.000000, -387.000000)" fill="#BFC5D2" fill-rule="nonzero">
            <g id="email-send-outline" transform="translate(30.000000, 387.000000)">
                <path d="M11.55,13.65 L15.75,13.65 L15.75,10.5 L21,15.225 L15.75,19.95 L15.75,16.8 L11.55,16.8 L11.55,13.65 M18.9,0 L2.1,0 C0.940202025,0 0,0.940202025 0,2.1 L0,14.7 C0,15.859798 0.940202025,16.8 2.1,16.8 L9.45,16.8 L9.45,14.7 L2.1,14.7 L2.1,4.2 L10.5,9.45 L18.9,4.2 L18.9,10.5 L21,10.5 L21,2.1 C21,0.940202025 20.059798,0 18.9,0 M10.5,7.35 L2.1,2.1 L18.9,2.1 L10.5,7.35 Z" id="Shape"></path>
            </g>
        </g>
    </g>
</svg>