<?xml version="1.0" encoding="UTF-8"?>
<svg width="32px" height="25px" viewBox="0 0 32 25" version="1.1" xmlns="http://www.w3.org/2000/svg" xmlns:xlink="http://www.w3.org/1999/xlink">
    <!-- Generator: Sketch 52.6 (67491) - http://www.bohemiancoding.com/sketch -->
    <title>account-supervisor-outline</title>
    <desc>Created with Sketch.</desc>
    <defs>
        <filter x="-9.9%" y="-0.3%" width="119.8%" height="100.6%" filterUnits="objectBoundingBox" id="filter-1">
            <feOffset dx="0" dy="0" in="SourceAlpha" result="shadowOffsetOuter1"></feOffset>
            <feGaussianBlur stdDeviation="2" in="shadowOffsetOuter1" result="shadowBlurOuter1"></feGaussianBlur>
            <feColorMatrix values="0 0 0 0 0   0 0 0 0 0   0 0 0 0 0  0 0 0 0.10423951 0" type="matrix" in="shadowBlurOuter1" result="shadowMatrixOuter1"></feColorMatrix>
            <feMerge>
                <feMergeNode in="shadowMatrixOuter1"></feMergeNode>
                <feMergeNode in="SourceGraphic"></feMergeNode>
            </feMerge>
        </filter>
    </defs>
    <g id="Symbols" stroke="none" stroke-width="1" fill="none" fill-rule="evenodd">
        <g id="Component/Navigation/Left-Bar/360" transform="translate(-25.000000, -331.000000)" fill="#BFC5D2" fill-rule="nonzero">
            <g id="Component/Navigation/Left-Bar" filter="url(#filter-1)">
                <g id="account-supervisor-outline" transform="translate(29.000000, 335.000000)">
                    <path d="M17.4,12.75 C19.464,12.75 21.9,13.7214286 22.2,14.3042857 L22.2,15.1785714 L12.6,15.1785714 L12.6,14.3042857 C12.9,13.7214286 15.336,12.75 17.4,12.75 M17.4,10.9285714 C15.204,10.9285714 10.8,12.0457143 10.8,14.2678571 L10.8,17 L24,17 L24,14.2678571 C24,12.0457143 19.596,10.9285714 17.4,10.9285714 M8.4,9.71428571 C5.604,9.71428571 0,11.135 0,13.9642857 L0,17 L8.4,17 L8.4,15.1785714 L1.8,15.1785714 L1.8,13.9642857 C1.8,13.1992857 5.148,11.3414286 9.384,11.5357143 C9.89986046,10.9114638 10.5318096,10.3957603 11.244,10.0178571 C10.3079684,9.82360274 9.35548427,9.72193363 8.4,9.71428571 M8.4,1.82142857 C9.39411255,1.82142857 10.2,2.63690992 10.2,3.64285714 C10.2,4.64880437 9.39411255,5.46428571 8.4,5.46428571 C7.40588745,5.46428571 6.6,4.64880437 6.6,3.64285714 C6.6,2.63690992 7.40588745,1.82142857 8.4,1.82142857 M8.4,0 C6.4117749,0 4.8,1.6309627 4.8,3.64285714 C4.8,5.65475159 6.4117749,7.28571429 8.4,7.28571429 C10.3882251,7.28571429 12,5.65475159 12,3.64285714 C12,1.6309627 10.3882251,0 8.4,0 M17.4,4.25 C18.0627417,4.25 18.6,4.79365423 18.6,5.46428571 C18.6,6.1349172 18.0627417,6.67857143 17.4,6.67857143 C16.7372583,6.67857143 16.2,6.1349172 16.2,5.46428571 C16.2,4.79365423 16.7372583,4.25 17.4,4.25 M17.4,2.42857143 C15.7431458,2.42857143 14.4,3.78770701 14.4,5.46428571 C14.4,7.14086442 15.7431458,8.5 17.4,8.5 C19.0568542,8.5 20.4,7.14086442 20.4,5.46428571 C20.4,3.78770701 19.0568542,2.42857143 17.4,2.42857143 Z" id="Shape"></path>
                </g>
            </g>
        </g>
    </g>
</svg>