<?xml version="1.0" encoding="UTF-8"?>
<svg width="26px" height="28px" viewBox="0 0 26 28" version="1.1" xmlns="http://www.w3.org/2000/svg" xmlns:xlink="http://www.w3.org/1999/xlink">
    <!-- Generator: Sketch 52.6 (67491) - http://www.bohemiancoding.com/sketch -->
    <title>logout</title>
    <desc>Created with Sketch.</desc>
    <defs>
        <filter x="-9.9%" y="-0.3%" width="119.8%" height="100.6%" filterUnits="objectBoundingBox" id="filter-1">
            <feOffset dx="0" dy="0" in="SourceAlpha" result="shadowOffsetOuter1"></feOffset>
            <feGaussianBlur stdDeviation="2" in="shadowOffsetOuter1" result="shadowBlurOuter1"></feGaussianBlur>
            <feColorMatrix values="0 0 0 0 0   0 0 0 0 0   0 0 0 0 0  0 0 0 0.10423951 0" type="matrix" in="shadowBlurOuter1" result="shadowMatrixOuter1"></feColorMatrix>
            <feMerge>
                <feMergeNode in="shadowMatrixOuter1"></feMergeNode>
                <feMergeNode in="SourceGraphic"></feMergeNode>
            </feMerge>
        </filter>
    </defs>
    <g id="Symbols" stroke="none" stroke-width="1" fill="none" fill-rule="evenodd">
        <g id="Component/Navigation/Left-Bar/dashboard" transform="translate(-27.000000, -743.000000)" fill="#BFC5D2" fill-rule="nonzero">
            <g id="Component/Navigation/Left-Bar" filter="url(#filter-1)">
                <g id="logout" transform="translate(31.000000, 747.000000)">
                    <path d="M13,15 L13,12 L6,12 L6,8 L13,8 L13,5 L18,10 L13,15 M11,0 C12.1045695,0 13,0.8954305 13,2 L13,4 L11,4 L11,2 L2,2 L2,18 L11,18 L11,16 L13,16 L13,18 C13,19.1045695 12.1045695,20 11,20 L2,20 C0.8954305,20 0,19.1045695 0,18 L0,2 C0,0.8954305 0.8954305,0 2,0 L11,0 Z" id="Shape"></path>
                </g>
            </g>
        </g>
    </g>
</svg>