<?xml version="1.0" encoding="UTF-8"?>
<svg width="16px" height="16px" viewBox="0 0 16 16" version="1.1" xmlns="http://www.w3.org/2000/svg" xmlns:xlink="http://www.w3.org/1999/xlink">
    <!-- Generator: Sketch 52.6 (67491) - http://www.bohemiancoding.com/sketch -->
    <title>rss (1)</title>
    <desc>Created with Sketch.</desc>
    <g id="Agency/Clients/Team" stroke="none" stroke-width="1" fill="none" fill-rule="evenodd">
        <g id="00-Dashboard-04-Vector-Agency-6" transform="translate(-988.000000, -27.000000)" fill="#BFC5D2" fill-rule="nonzero">
            <g id="Group-2" transform="translate(960.000000, 0.000000)">
                <g id="Group-7">
                    <g id="rss-(1)" transform="translate(28.000000, 27.000000)">
                        <path d="M2.18,11.64 C3.38398075,11.64 4.36,12.6160192 4.36,13.82 C4.36,15 3.38,16 2.18,16 C1,16 0,15 0,13.82 C-4.4408921e-16,12.6160192 0.976019245,11.64 2.18,11.64 M0,0.44 C8.59355071,0.44 15.56,7.40644929 15.56,16 L12.73,16 C12.73,8.96941513 7.03058487,3.27 1.77635684e-15,3.27 L0,0.44 M0,6.1 C5.46761902,6.1 9.9,10.532381 9.9,16 L7.07,16 C7.07,14.1249194 6.32512714,12.3266373 4.99924494,11.0007551 C3.67336275,9.67487286 1.87508058,8.93 8.8817842e-16,8.93 L0,6.1 Z" id="Shape"></path>
                    </g>
                </g>
            </g>
        </g>
    </g>
</svg>