<?xml version="1.0" encoding="UTF-8"?>
<svg width="37px" height="32px" viewBox="0 0 37 32" version="1.1" xmlns="http://www.w3.org/2000/svg" xmlns:xlink="http://www.w3.org/1999/xlink">
    <!-- Generator: Sketch 52.6 (67491) - http://www.bohemiancoding.com/sketch -->
    <title>outlook-1</title>
    <desc>Created with Sketch.</desc>
    <g id="Agency/Clients/Team" stroke="none" stroke-width="1" fill="none" fill-rule="evenodd">
        <g id="00-Agency-Dashboard-00-New-User-3-Progress" transform="translate(-690.000000, -498.000000)">
            <g id="Group-20" transform="translate(475.000000, 231.000000)">
                <g id="Group-19" transform="translate(116.000000, 265.000000)">
                    <g id="outlook-1" transform="translate(99.000000, 0.000000)">
                        <path d="M32.2491912,2.25550365 L12.8608818,2.25550365 C11.9864143,2.25550365 11.2775183,2.96439966 11.2775183,3.83886721 L11.2775183,5.63875913 L22.2054334,9.0220146 L33.8325548,5.63875913 L33.8325548,3.83886721 C33.8325548,2.96439966 33.1236587,2.25550365 32.2491912,2.25550365 Z" id="Path" fill="#0364B8" fill-rule="nonzero"></path>
                        <path d="M35.6933453,19.6285205 C35.8585325,19.1093035 35.9903722,18.5800614 36.0880584,18.0440292 C36.0877473,17.7760047 35.9446334,17.5284563 35.7125171,17.3944442 L35.6978563,17.3854221 L35.6933453,17.3831666 L23.470771,10.4204269 C23.4180455,10.38621 23.3634527,10.3549603 23.307247,10.3268235 C22.8333651,10.0915657 22.2767079,10.0915657 21.802826,10.3268235 C21.7466362,10.3545752 21.6920429,10.3854487 21.639302,10.4192991 L9.41672774,17.3842944 L9.41221674,17.3865499 L9.39868371,17.3944442 C9.16613327,17.5281697 9.02255833,17.775772 9.0220146,18.0440292 C9.11970983,18.5800595 9.25154937,19.109301 9.41672774,19.6285205 L22.3768517,29.1072746 L35.6933453,19.6285205 Z" id="Path" fill="#0A2767" fill-rule="nonzero"></path>
                        <polygon id="Path" fill="#28A8EA" fill-rule="nonzero" points="27.0660438 5.63875913 19.171781 5.63875913 16.8925946 9.0220146 19.171781 12.4052701 27.0660438 19.171781 33.8325548 19.171781 33.8325548 12.4052701"></polygon>
                        <polygon id="Path" fill="#0078D4" fill-rule="nonzero" points="11.2775183 5.63875913 19.171781 5.63875913 19.171781 12.4052701 11.2775183 12.4052701"></polygon>
                        <polygon id="Path" fill="#50D9FF" fill-rule="nonzero" points="27.0660438 5.63875913 33.8325548 5.63875913 33.8325548 12.4052701 27.0660438 12.4052701"></polygon>
                        <polygon id="Path" fill="#0364B8" fill-rule="nonzero" points="27.0660438 19.171781 19.171781 12.4052701 11.2775183 12.4052701 11.2775183 19.171781 19.171781 25.938292 31.3875888 27.9321572"></polygon>
                        <path d="M11.3124786,5.63875913 L33.8325548,5.63875913" id="Path"></path>
                        <polygon id="Path" fill="#0078D4" fill-rule="nonzero" points="19.171781 12.4052701 27.0660438 12.4052701 27.0660438 19.171781 19.171781 19.171781"></polygon>
                        <polygon id="Path" fill="#064A8C" fill-rule="nonzero" points="11.2775183 19.171781 19.171781 19.171781 19.171781 25.938292 11.2775183 25.938292"></polygon>
                        <polygon id="Path" fill="#0078D4" fill-rule="nonzero" points="27.0660438 19.171781 33.8325548 19.171781 33.8325548 25.938292 27.0660438 25.938292"></polygon>
                        <path d="M22.7693094,28.4396455 L9.46973208,18.7409798 L10.0279692,17.7598357 C10.0279692,17.7598357 22.1456626,24.6616769 22.3306139,24.7654301 C22.4835726,24.8266394 22.6550553,24.8217399 22.8042697,24.7518971 L35.1339804,17.7260032 L35.6933453,18.7060195 L22.7693094,28.4396455 Z" id="Path" fill="#0A2767" fill-rule="nonzero" opacity="0.5"></path>
                        <path d="M35.7125171,18.694742 L35.6967285,18.703764 L35.6933453,18.7060195 L23.470771,25.6687593 C22.9771499,25.9870519 22.353578,26.0259184 21.8242533,25.7713847 L26.0803887,31.4789367 L35.3888523,33.5055067 L35.3888523,33.5100177 C35.82809,33.1922754 36.0881592,32.6830432 36.0880584,32.140927 L36.0880585,18.0440292 C36.0881499,18.3124567 35.9449821,18.5605283 35.7125171,18.694742 Z" id="Path" fill="#1490DF" fill-rule="nonzero"></path>
                        <path d="M36.0880584,32.140927 L36.0880584,31.3086462 L24.8297119,24.8939938 L23.470771,25.6687593 C22.9771499,25.9870519 22.353578,26.0259184 21.8242533,25.7713847 L26.0803887,31.4789367 L35.3888523,33.5055067 L35.3888523,33.5100177 C35.82809,33.1922754 36.0881592,32.6830432 36.0880584,32.140927 Z" id="Path" fill="#000000" fill-rule="nonzero" opacity="0.05"></path>
                        <path d="M36.0316708,32.572856 L23.6906826,25.5435788 L23.470771,25.6676315 C22.9773506,25.9862883 22.3537714,26.0255823 21.8242533,25.7713847 L26.0803887,31.4789367 L35.3888523,33.5055067 L35.3888523,33.5100177 C35.7045046,33.2813236 35.9315594,32.9507 36.0316708,32.5739837 L36.0316708,32.572856 Z" id="Path" fill="#000000" fill-rule="nonzero" opacity="0.1"></path>
                        <path d="M9.41672774,18.7094028 L9.41672774,18.6981253 L9.40545022,18.6981253 L9.37161767,18.6755702 C9.152326,18.5409985 9.01964062,18.3013087 9.02198327,18.0440292 L9.0220146,32.140927 C9.02141496,32.5897582 9.19944695,33.0203788 9.51681877,33.3377506 C9.83419059,33.6551224 10.2648112,33.8331544 10.7136423,33.8325548 L34.3964307,33.8325548 C34.5373231,33.8311748 34.6774937,33.8122329 34.8136989,33.7761672 C34.8843625,33.7638725 34.9527864,33.7410645 35.0166942,33.7085021 C35.040658,33.7061661 35.0637866,33.6984565 35.0843593,33.685947 C35.1766586,33.6482153 35.263812,33.5989547 35.3437422,33.5393393 C35.3662972,33.5280618 35.3775748,33.5280618 35.3888523,33.5055067 L9.41672774,18.7094028 Z" id="Path" fill="#28A8EA" fill-rule="nonzero"></path>
                        <path d="M20.2995329,27.8182543 L20.2995329,9.39755596 C20.2970557,8.56833829 19.6254573,7.89673992 18.7962397,7.89426278 L11.3113508,7.89426278 L11.3113508,16.3027804 L9.41672774,17.3831666 L9.41108898,17.3854221 L9.39755596,17.3933164 C9.16509091,17.5275301 9.02192309,17.7756017 9.0220146,18.0440292 L9.0220146,18.049668 L9.0220146,18.0440292 L9.02201456,29.3215475 L18.7962397,29.3215475 C19.6254573,29.3190703 20.2970557,28.6474719 20.2995329,27.8182543 Z" id="Path" fill="#000000" fill-rule="nonzero" opacity="0.1"></path>
                        <path d="M19.171781,28.9460061 L19.171781,10.5253078 C19.1693039,9.69609012 18.4977055,9.02449175 17.6684878,9.0220146 L11.3113508,9.0220146 L11.3113508,16.3027804 L9.41672774,17.3831666 L9.41108898,17.3854221 L9.39755596,17.3933164 C9.16509091,17.5275301 9.02192309,17.7756017 9.0220146,18.0440292 L9.0220146,18.049668 L9.0220146,18.0440292 L9.02201456,30.4492993 L17.6684878,30.4492993 C18.4977055,30.4468221 19.1693039,29.7752238 19.171781,28.9460061 Z" id="Path" fill="#000000" fill-rule="nonzero" opacity="0.2"></path>
                        <path d="M19.171781,26.6905025 L19.171781,10.5253078 C19.1693039,9.69609012 18.4977055,9.02449175 17.6684878,9.0220146 L11.3113508,9.0220146 L11.3113508,16.3027804 L9.41672774,17.3831666 L9.41108898,17.3854221 L9.39755596,17.3933164 C9.16509091,17.5275301 9.02192309,17.7756017 9.0220146,18.0440292 L9.0220146,18.049668 L9.0220146,18.0440292 L9.02201456,28.1937956 L17.6684878,28.1937956 C18.4977055,28.1913185 19.1693039,27.5197201 19.171781,26.6905025 Z" id="Path" fill="#000000" fill-rule="nonzero" opacity="0.2"></path>
                        <path d="M18.0440292,26.6905025 L18.0440292,10.5253078 C18.0415521,9.69609012 17.3699537,9.02449175 16.540736,9.0220146 L11.3113508,9.0220146 L11.3113508,16.3027804 L9.41672774,17.3831666 L9.41108898,17.3854221 L9.39755596,17.3933164 C9.16509091,17.5275301 9.02192309,17.7756017 9.0220146,18.0440292 L9.0220146,18.049668 L9.0220146,18.0440292 L9.02201456,28.1937956 L16.540736,28.1937956 C17.3699537,28.1913185 18.0415521,27.5197201 18.0440292,26.6905025 Z" id="Path" fill="#000000" fill-rule="nonzero" opacity="0.2"></path>
                        <path d="M1.50329318,9.0220146 L16.540736,9.0220146 C17.3709819,9.0220146 18.0440292,9.69506189 18.0440292,10.5253078 L18.0440292,25.5627506 C18.0440292,26.3929965 17.3709819,27.0660438 16.540736,27.0660438 L1.50329318,27.0660438 C0.673047284,27.0660438 1.01675798e-16,26.3929965 0,25.5627506 L0,10.5253078 C-1.01675798e-16,9.69506189 0.673047284,9.0220146 1.50329318,9.0220146 Z" id="Path" fill="#0078D4" fill-rule="nonzero"></path>
                        <path d="M4.36101631,15.1885616 C4.7604649,14.3372495 5.40534122,13.6248222 6.21278481,13.1428198 C7.10733947,12.630732 8.12588885,12.3755093 9.15621707,12.4052701 C10.1102391,12.3845748 11.0516024,12.6264501 11.8774822,13.1044762 C12.6548957,13.5675397 13.2809961,14.2465335 13.6796296,15.0588701 C14.1138967,15.9542719 14.3302971,16.9396667 14.3111707,17.9346373 C14.3320533,18.9738987 14.1091956,20.0036017 13.6604579,20.9412236 C13.2531517,21.7824729 12.6081747,22.4858703 11.8053061,22.9644104 C10.9470325,23.4576724 9.96993201,23.7061407 8.98028779,23.6827883 C8.00532313,23.7060041 7.04265747,23.4614371 6.19699628,22.9756879 C5.41337126,22.5118695 4.77989487,21.832194 4.37229383,21.0179108 C3.93505027,20.1357315 3.71577197,19.161548 3.73285854,18.1771039 C3.71394819,17.1462761 3.92870398,16.1245475 4.36101631,15.1885616 Z M6.334582,19.9905289 C6.54738088,20.5286954 6.90828677,20.9955661 7.37549694,21.3370645 C7.85158449,21.6702884 8.42190828,21.8422155 9.00284282,21.8276366 C9.62170598,21.8517036 10.2316279,21.6739911 10.7407084,21.321276 C11.2027157,20.9799652 11.554438,20.51061 11.7523018,19.9713571 C11.9741592,19.3705586 12.0834944,18.7340444 12.0748388,18.0936503 C12.0817168,17.447186 11.9787553,16.8042484 11.7703458,16.1922607 C11.5864495,15.6417052 11.2472851,15.1560657 10.7937127,14.7938484 C10.2980577,14.4233982 9.68990911,14.2350195 9.07163568,14.2604218 C8.47805683,14.2454174 7.89496658,14.4187259 7.40594624,14.7555049 C6.92956554,15.097585 6.56032899,15.568127 6.34134851,16.1121903 C5.85693133,17.3594739 5.85411721,18.7424119 6.33345425,19.9916566 L6.334582,19.9905289 Z" id="Shape" fill="#FFFFFF" fill-rule="nonzero"></path>
                        <polygon id="Path" points="0 0 36.0880584 0 36.0880584 36.0880584 0 36.0880584"></polygon>
                    </g>
                </g>
            </g>
        </g>
    </g>
</svg>