<?xml version="1.0" encoding="UTF-8"?>
<svg width="37px" height="37px" viewBox="0 0 37 37" version="1.1" xmlns="http://www.w3.org/2000/svg" xmlns:xlink="http://www.w3.org/1999/xlink">
    <!-- Generator: Sketch 52.6 (67491) - http://www.bohemiancoding.com/sketch -->
    <title>Group 14</title>
    <desc>Created with Sketch.</desc>
    <g id="Agency/Clients/Team" stroke="none" stroke-width="1" fill="none" fill-rule="evenodd">
        <g id="00-Dashboard-04-Vector-Agency-6" transform="translate(-1000.000000, -303.000000)">
            <g id="Group-2" transform="translate(960.000000, 0.000000)">
                <g id="Group-6" transform="translate(28.000000, 91.000000)">
                    <g id="Group-4" transform="translate(0.000000, 201.000000)">
                        <g id="Group-14" transform="translate(12.000000, 11.000000)">
                            <circle id="Oval" fill="#2E5BFF" cx="18.5" cy="18.5" r="18.5"></circle>
                            <g id="call-24px" transform="translate(8.000000, 9.000000)">
                                <polygon id="Path" points="0 0 20 0 20 20 0 20"></polygon>
                                <path d="M17.175,13.3166667 C16.15,13.3166667 15.1583333,13.15 14.2333333,12.85 C13.9416667,12.75 13.6166667,12.825 13.3916667,13.05 L12.0833333,14.6916667 C9.725,13.5666667 7.51666667,11.4416667 6.34166667,9 L7.96666667,7.61666667 C8.19166667,7.38333333 8.25833333,7.05833333 8.16666667,6.76666667 C7.85833333,5.84166667 7.7,4.85 7.7,3.825 C7.7,3.375 7.325,3 6.875,3 L3.99166667,3 C3.54166667,3 3,3.2 3,3.825 C3,11.5666667 9.44166667,18 17.175,18 C17.7666667,18 18,17.475 18,17.0166667 L18,14.1416667 C18,13.6916667 17.625,13.3166667 17.175,13.3166667 Z" id="Path" fill="#FFFFFF" fill-rule="nonzero"></path>
                            </g>
                        </g>
                    </g>
                </g>
            </g>
        </g>
    </g>
</svg>