<?xml version="1.0" encoding="UTF-8"?>
<svg width="71px" height="71px" viewBox="0 0 71 71" version="1.1" xmlns="http://www.w3.org/2000/svg" xmlns:xlink="http://www.w3.org/1999/xlink">
    <!-- Generator: Sketch 52.6 (67491) - http://www.bohemiancoding.com/sketch -->
    <title>progress-upload</title>
    <desc>Created with Sketch.</desc>
    <g id="Prospects" stroke="none" stroke-width="1" fill="none" fill-rule="evenodd">
        <g id="02-Sequences-22.2-Add-Prospects-popup" transform="translate(-292.000000, -270.000000)" fill="#2E5BFF" fill-rule="nonzero">
            <g id="progress-upload" transform="translate(292.000000, 270.000000)">
                <path d="M39.0147783,0.106403941 C55.791133,1.77339901 69.1625616,15.0738916 70.7586207,31.9211823 C72.7093596,51.4285714 58.5221675,68.7369458 39.0147783,70.6876847 L39.0147783,63.5940887 C51.9251232,62.0689655 62.0689655,51.8187192 63.7004926,38.9083744 C65.6157635,23.337931 54.5852217,9.1862069 39.0147783,7.27093596 L39.0147783,0.177339901 L39.0147783,0.106403941 M31.9211823,0.212807882 L31.9211823,7.30640394 C26.8492611,8.01576355 22.0610837,10.0729064 18.08867,13.2650246 L13.0167488,8.01576355 C18.4078818,3.54679803 25.0049261,0.886699507 31.9211823,0.212807882 M8.01576355,13.0167488 L13.0876847,18.08867 C9.93103448,22.0965517 7.94482759,26.8847291 7.27093596,31.9211823 L0.177339901,31.9211823 C0.886699507,24.9694581 3.54679803,18.4078818 8.01576355,13.0167488 M0.212807882,39.0147783 L7.30640394,39.0147783 C7.94482759,44.0512315 9.96650246,48.8394089 13.0876847,52.8472906 L8.05123153,57.9192118 C3.65320197,52.5280788 0.922167488,45.9665025 0.212807882,39.0147783 M18.08867,58.0610837 C22.0965517,61.182266 26.8847291,63.2039409 31.9211823,63.8423645 L31.9211823,70.9359606 C24.9694581,70.191133 18.3724138,67.3891626 13.0167488,62.920197 L18.08867,58.0610837 M35.4679803,19.5073892 L19.5073892,35.4679803 L31.9211823,35.4679803 L31.9211823,49.6551724 L39.0147783,49.6551724 L39.0147783,35.4679803 L51.4285714,35.4679803 L35.4679803,19.5073892 Z" id="Shape"></path>
            </g>
        </g>
    </g>
</svg>