<?xml version="1.0" encoding="UTF-8"?>
<svg width="18px" height="18px" viewBox="0 0 18 18" version="1.1" xmlns="http://www.w3.org/2000/svg" xmlns:xlink="http://www.w3.org/1999/xlink">
    <!-- Generator: Sketch 52.6 (67491) - http://www.bohemiancoding.com/sketch -->
    <title>search</title>
    <desc>Created with Sketch.</desc>
    <g id="Agency/Clients/Team" stroke="none" stroke-width="1" fill="none" fill-rule="evenodd">
        <g id="00-Dashboard-04-Vector-Agency-2" transform="translate(-162.000000, -122.000000)" fill="#BFC5D2" fill-rule="nonzero">
            <g id="Group-10" transform="translate(129.000000, 98.000000)">
                <g id="Group-6" transform="translate(16.000000, 13.000000)">
                    <g id="Group-13">
                        <g id="search" transform="translate(17.000000, 11.000000)">
                            <path d="M13.9994165,13.2923098 L17.8535534,17.1464466 C18.0488155,17.3417088 18.0488155,17.6582912 17.8535534,17.8535534 C17.6582912,18.0488155 17.3417088,18.0488155 17.1464466,17.8535534 L13.2923098,13.9994165 C11.8819612,15.2444908 10.0292099,16 8,16 C3.581722,16 0,12.418278 0,8 C0,3.581722 3.581722,0 8,0 C12.418278,0 16,3.581722 16,8 C16,10.0292099 15.2444908,11.8819612 13.9994165,13.2923098 Z M8,15 C11.8659932,15 15,11.8659932 15,8 C15,4.13400675 11.8659932,1 8,1 C4.13400675,1 1,4.13400675 1,8 C1,11.8659932 4.13400675,15 8,15 Z" id="Shape"></path>
                        </g>
                    </g>
                </g>
            </g>
        </g>
    </g>
</svg>