<?xml version="1.0" encoding="UTF-8"?>
<svg width="12px" height="14px" viewBox="0 0 12 14" version="1.1" xmlns="http://www.w3.org/2000/svg" xmlns:xlink="http://www.w3.org/1999/xlink">
    <!-- Generator: Sketch 52.6 (67491) - http://www.bohemiancoding.com/sketch -->
    <title>graphic_eq-24px</title>
    <desc>Created with Sketch.</desc>
    <g id="Prospects" stroke="none" stroke-width="1" fill="none" fill-rule="evenodd">
        <g id="03-Prospects-03-Detail" transform="translate(-152.000000, -296.000000)">
            <g id="Group-9" transform="translate(132.000000, 187.000000)">
                <g id="Group-11" transform="translate(8.000000, 0.000000)">
                    <g id="Button" transform="translate(0.000000, 100.000000)">
                        <g id="graphic_eq-24px" transform="translate(10.000000, 8.000000)">
                            <polygon id="Path" points="0 0 16 0 16 16 0 16"></polygon>
                            <path d="M4.66666667,12 L6,12 L6,4 L4.66666667,4 L4.66666667,12 Z M7.33333333,14.6666667 L8.66666667,14.6666667 L8.66666667,1.33333333 L7.33333333,1.33333333 L7.33333333,14.6666667 Z M2,9.33333333 L3.33333333,9.33333333 L3.33333333,6.66666667 L2,6.66666667 L2,9.33333333 Z M10,12 L11.3333333,12 L11.3333333,4 L10,4 L10,12 Z M12.6666667,6.66666667 L12.6666667,9.33333333 L14,9.33333333 L14,6.66666667 L12.6666667,6.66666667 Z" id="Shape" fill="#FFFFFF" fill-rule="nonzero"></path>
                        </g>
                    </g>
                </g>
            </g>
        </g>
    </g>
</svg>