<?xml version="1.0" encoding="UTF-8"?>
<svg width="106px" height="83px" viewBox="0 0 106 83" version="1.1" xmlns="http://www.w3.org/2000/svg" xmlns:xlink="http://www.w3.org/1999/xlink">
    <!-- Generator: Sketch 52.6 (67491) - http://www.bohemiancoding.com/sketch -->
    <title>stais</title>
    <desc>Created with Sketch.</desc>
    <g id="Sequences" stroke="none" stroke-width="1" fill="none" fill-rule="evenodd">
        <g id="02-Sequences-08-Create-Sequence-Step-2-empty" transform="translate(-179.000000, -250.000000)" fill="#2E5BFF" fill-rule="nonzero">
            <g id="stais" transform="translate(179.000000, 250.000000)">
                <path d="M102.4362,0.143 L82.5264,0.143 C80.694,0.143 79.2108,1.628 79.2108,3.4604 L79.2108,17.1386 L62.6202,17.1386 C60.7878,17.1386 59.3028,18.6236 59.3028,20.456 L59.3028,36.395 L44.3736,36.395 C42.5394,36.395 41.0544,37.88 41.0544,39.7124 L41.0544,57.131 L24.8814,57.131 C23.049,57.131 21.564,58.616 21.564,60.4502 L21.564,75.3776 L3.3174,75.3776 C1.485,75.3776 0,76.8644 0,78.6986 C0,80.531 1.4868,82.016 3.3174,82.016 L24.8832,82.016 C26.7174,82.016 28.2024,80.531 28.2024,78.6986 L28.2024,63.7694 L44.3754,63.7694 C46.2078,63.7694 47.6928,62.2826 47.6928,60.4502 L47.6928,43.0298 L62.622,43.0298 C64.4544,43.0298 65.9412,41.5466 65.9412,39.7124 L65.9412,23.7752 L82.5282,23.7752 C84.3642,23.7752 85.8492,22.2902 85.8492,20.456 L85.8492,6.7796 L102.438,6.7796 C104.2704,6.7796 105.7572,5.2946 105.7572,3.4604 C105.7554,1.628 104.2686,0.143 102.4362,0.143 Z" id="Path"></path>
            </g>
        </g>
    </g>
</svg>