<?xml version="1.0" encoding="UTF-8"?>
<svg width="88px" height="88px" viewBox="0 0 88 88" version="1.1" xmlns="http://www.w3.org/2000/svg" xmlns:xlink="http://www.w3.org/1999/xlink">
    <!-- Generator: Sketch 52.6 (67491) - http://www.bohemiancoding.com/sketch -->
    <title>target-account</title>
    <desc>Created with Sketch.</desc>
    <g id="Prospects" stroke="none" stroke-width="1" fill="none" fill-rule="evenodd">
        <g id="02-Sequences-22.0-Add-Prospects-popup" transform="translate(-292.000000, -247.000000)" fill="#2E5BFF" fill-rule="nonzero" stroke="#FFFFFF" stroke-width="3.2">
            <g id="Group-8" transform="translate(212.000000, 129.000000)">
                <g id="target-account" transform="translate(82.400000, 120.000000)">
                    <path d="M84,38 L84,46 L77.8,46 C76,62.68 62.68,76 46,77.8 L46,84 L38,84 L38,77.8 C21.32,76 8,62.68 6.2,46 L0,46 L0,38 L6.2,38 C8,21.32 21.32,8 38,6.2 L38,0 L46,0 L46,6.2 C62.68,8 76,21.32 77.8,38 L84,38 Z M20,38 L20,46 L14.28,46 C16,58.28 25.72,68 38,69.72 L38,64 L46,64 L46,69.72 C58.28,68 68,58.28 69.72,46 L64,46 L64,38 L69.72,38 C68,25.72 58.28,16 46,14.28 L46,20 L38,20 L38,14.28 C25.72,16 16,25.72 14.28,38 L20,38 Z M58,57.2 L26,57.2 L26,53.2 C26,47.88 36.68,45.2 42,45.2 C47.32,45.2 58,47.88 58,53.2 L58,57.2 M42,26.8 C46.418278,26.8 50,30.381722 50,34.8 C50,39.218278 46.418278,42.8 42,42.8 C37.581722,42.8 34,39.218278 34,34.8 C34,30.381722 37.581722,26.8 42,26.8 Z" id="Shape"></path>
                </g>
            </g>
        </g>
    </g>
</svg>