<?xml version="1.0" encoding="UTF-8"?>
<svg width="20px" height="23px" viewBox="0 0 20 23" version="1.1" xmlns="http://www.w3.org/2000/svg" xmlns:xlink="http://www.w3.org/1999/xlink">
    <!-- Generator: Sketch 52.6 (67491) - http://www.bohemiancoding.com/sketch -->
    <title>Shape</title>
    <desc>Created with Sketch.</desc>
    <g id="Prospects" stroke="none" stroke-width="1" fill="none" fill-rule="evenodd">
        <g id="03-Prospects-03-Detail" transform="translate(-904.000000, -121.000000)" fill="#BFC5D2" fill-rule="nonzero">
            <g id="calendar-check-outline" transform="translate(904.000000, 121.000000)">
                <path d="M16.6666667,2.22222222 L16.6666667,0 L14.4444444,0 L14.4444444,2.22222222 L5.55555556,2.22222222 L5.55555556,0 L3.33333333,0 L3.33333333,2.22222222 L2.22222222,2.22222222 C0.994922778,2.22222222 0,3.217145 0,4.44444444 L0,20 C0,21.2272994 0.994922778,22.2222222 2.22222222,22.2222222 L17.7777778,22.2222222 C19.0050772,22.2222222 20,21.2272994 20,20 L20,4.44444444 C20,3.217145 19.0050772,2.22222222 17.7777778,2.22222222 L16.6666667,2.22222222 Z M17.7777778,20 L2.22222222,20 L2.22222222,8.88888889 L17.7777778,8.88888889 L17.7777778,20 M2.22222222,6.66666667 L2.22222222,4.44444444 L17.7777778,4.44444444 L17.7777778,6.66666667 L2.22222222,6.66666667 M8.4,18.2888889 L15,11.7 L13.8111111,10.5222222 L8.4,15.9333333 L6.05555556,13.5888889 L4.87777778,14.7666667 L8.4,18.2888889 Z" id="Shape"></path>
            </g>
        </g>
    </g>
</svg>