<?xml version="1.0" encoding="UTF-8"?>
<svg width="110px" height="78px" viewBox="0 0 110 78" version="1.1" xmlns="http://www.w3.org/2000/svg" xmlns:xlink="http://www.w3.org/1999/xlink">
    <!-- Generator: Sketch 52.6 (67491) - http://www.bohemiancoding.com/sketch -->
    <title>account-supervisor-outline</title>
    <desc>Created with Sketch.</desc>
    <g id="Agency/Clients/Team" stroke="none" stroke-width="1" fill="none" fill-rule="evenodd">
        <g id="00-Dashboard-05-Vector-Agency-Team-1" transform="translate(-184.000000, -186.000000)" fill="#2E5BFF" fill-rule="nonzero">
            <g id="account-supervisor-outline" transform="translate(184.000000, 186.000000)">
                <path d="M79.75,58.4375 C89.21,58.4375 100.375,62.889881 101.75,65.5613095 L101.75,69.5684524 L57.75,69.5684524 L57.75,65.5613095 C59.125,62.889881 70.29,58.4375 79.75,58.4375 M79.75,50.0892857 C69.685,50.0892857 49.5,55.2095238 49.5,65.3943452 L49.5,77.9166667 L110,77.9166667 L110,65.3943452 C110,55.2095238 89.815,50.0892857 79.75,50.0892857 M38.5,44.5238095 C25.685,44.5238095 0,51.0354167 0,64.0029762 L0,77.9166667 L38.5,77.9166667 L38.5,69.5684524 L8.25,69.5684524 L8.25,64.0029762 C8.25,60.4967262 23.595,51.9815476 43.01,52.8720238 C45.3743605,50.0108756 48.2707938,47.6472347 51.535,45.9151786 C47.2448551,45.0248459 42.8793029,44.5588625 38.5,44.5238095 M38.5,8.34821429 C43.0563492,8.34821429 46.75,12.0858371 46.75,16.6964286 C46.75,21.30702 43.0563492,25.0446429 38.5,25.0446429 C33.9436508,25.0446429 30.25,21.30702 30.25,16.6964286 C30.25,12.0858371 33.9436508,8.34821429 38.5,8.34821429 M38.5,0 C29.3873016,0 22,7.47524569 22,16.6964286 C22,25.9176114 29.3873016,33.3928571 38.5,33.3928571 C47.6126984,33.3928571 55,25.9176114 55,16.6964286 C55,7.47524569 47.6126984,0 38.5,0 M79.75,19.4791667 C82.7875661,19.4791667 85.25,21.9709152 85.25,25.0446429 C85.25,28.1183705 82.7875661,30.610119 79.75,30.610119 C76.7124339,30.610119 74.25,28.1183705 74.25,25.0446429 C74.25,21.9709152 76.7124339,19.4791667 79.75,19.4791667 M79.75,11.1309524 C72.1560847,11.1309524 66,17.3603238 66,25.0446429 C66,32.7289619 72.1560847,38.9583333 79.75,38.9583333 C87.3439153,38.9583333 93.5,32.7289619 93.5,25.0446429 C93.5,17.3603238 87.3439153,11.1309524 79.75,11.1309524 Z" id="Shape"></path>
            </g>
        </g>
    </g>
</svg>