<?xml version="1.0" encoding="UTF-8"?>
<svg width="45px" height="45px" viewBox="0 0 45 45" version="1.1" xmlns="http://www.w3.org/2000/svg" xmlns:xlink="http://www.w3.org/1999/xlink">
    <!-- Generator: Sketch 52.6 (67491) - http://www.bohemiancoding.com/sketch -->
    <title>Group 2</title>
    <desc>Created with Sketch.</desc>
    <g id="Agency/Clients/Team" stroke="none" stroke-width="1" fill="none" fill-rule="evenodd">
        <g id="00-Dashboard-05-Vector-Agency-Team-1" transform="translate(-152.000000, -564.000000)">
            <g id="Group-3" transform="translate(131.000000, 549.000000)">
                <g id="Group" transform="translate(21.000000, 15.000000)">
                    <g id="Group-4">
                        <g id="Group-2">
                            <circle id="Oval" fill="#F4F6FC" cx="22.5" cy="22.5" r="22.5"></circle>
                            <path d="M15,14 C13.8954305,14 13,14.8954305 13,16 L13,30 C13,31.1045695 13.8954305,32 15,32 L24.09,32 C24.03,31.67 24,31.34 24,31 C24,30.32 24.12,29.64 24.35,29 L15,29 L18.5,24.5 L21,27.5 L24.5,23 L26.73,25.97 C27.7,25.34 28.84,25 30,25 C30.34,25 30.67,25.03 31,25.09 L31,16 C31,14.89 30.1,14 29,14 L15,14 M29,27 L29,30 L26,30 L26,32 L29,32 L29,35 L31,35 L31,32 L34,32 L34,30 L31,30 L31,27 L29,27 Z" id="Shape" fill-opacity="0.5" fill="#BFC5D2" fill-rule="nonzero"></path>
                        </g>
                    </g>
                </g>
            </g>
        </g>
    </g>
</svg>