<?xml version="1.0" encoding="UTF-8"?>
<svg width="37px" height="37px" viewBox="0 0 37 37" version="1.1" xmlns="http://www.w3.org/2000/svg" xmlns:xlink="http://www.w3.org/1999/xlink">
    <!-- Generator: Sketch 52.6 (67491) - http://www.bohemiancoding.com/sketch -->
    <title>Group 12</title>
    <desc>Created with Sketch.</desc>
    <g id="Agency/Clients/Team" stroke="none" stroke-width="1" fill="none" fill-rule="evenodd">
        <g id="00-Dashboard-04-Vector-Agency-6" transform="translate(-1000.000000, -169.000000)">
            <g id="Group-2" transform="translate(960.000000, 0.000000)">
                <g id="Group-6" transform="translate(28.000000, 91.000000)">
                    <g id="Group-4" transform="translate(0.000000, 67.000000)">
                        <g id="Group-12" transform="translate(12.000000, 11.000000)">
                            <circle id="Oval" fill="#2E5BFF" cx="18.5" cy="18.5" r="18.5"></circle>
                            <path d="M27.5336364,13.7272727 C26.8686364,14.0295455 26.1518182,14.2281818 25.4090909,14.3231818 C26.1690909,13.8654545 26.7563636,13.14 27.0327273,12.2677273 C26.3159091,12.6995455 25.5213636,13.0018182 24.6836364,13.1745455 C24.0013636,12.4318182 23.0427273,12 21.9545455,12 C19.925,12 18.2668182,13.6581818 18.2668182,15.705 C18.2668182,15.9986364 18.3013636,16.2836364 18.3618182,16.5513636 C15.2872727,16.3959091 12.5495455,14.9190909 10.7272727,12.6822727 C10.4077273,13.2263636 10.2263636,13.8654545 10.2263636,14.5390909 C10.2263636,15.8259091 10.8740909,16.9659091 11.8759091,17.6136364 C11.2627273,17.6136364 10.6927273,17.4409091 10.1918182,17.1818182 C10.1918182,17.1818182 10.1918182,17.1818182 10.1918182,17.2077273 C10.1918182,19.0040909 11.47,20.5068182 13.1627273,20.8436364 C12.8518182,20.93 12.5236364,20.9731818 12.1868182,20.9731818 C11.9536364,20.9731818 11.7204545,20.9472727 11.4959091,20.9040909 C11.9622727,22.3636364 13.3181818,23.4518182 14.9504545,23.4777273 C13.6895455,24.4795455 12.0918182,25.0668182 10.3472727,25.0668182 C10.0536364,25.0668182 9.76,25.0495455 9.46636364,25.015 C11.1072727,26.0686364 13.0590909,26.6818182 15.1490909,26.6818182 C21.9545455,26.6818182 25.6940909,21.0336364 25.6940909,16.1368182 C25.6940909,15.9727273 25.6940909,15.8172727 25.6854545,15.6531818 C26.4109091,15.135 27.0327273,14.4786364 27.5336364,13.7272727 Z" id="Path" fill="#FFFFFF" fill-rule="nonzero"></path>
                        </g>
                    </g>
                </g>
            </g>
        </g>
    </g>
</svg>