<?xml version="1.0" encoding="UTF-8"?>
<svg width="83px" height="28px" viewBox="0 0 83 28" version="1.1" xmlns="http://www.w3.org/2000/svg" xmlns:xlink="http://www.w3.org/1999/xlink">
    <!-- Generator: Sketch 52.6 (67491) - http://www.bohemiancoding.com/sketch -->
    <title>visa</title>
    <desc>Created with Sketch.</desc>
    <g id="Agency/Clients/Team" stroke="none" stroke-width="1" fill="none" fill-rule="evenodd">
        <g id="00-Dashboard-04-Vector-Agency-2" transform="translate(-784.000000, -217.000000)" fill-rule="nonzero">
            <g id="Group-9" transform="translate(515.000000, 201.000000)">
                <g id="visa" transform="translate(269.000000, 16.000000)">
                    <g id="Group" transform="translate(0.067306, 0.312959)" fill="#2566AF">
                        <path d="M35.8202781,26.337279 L29.0852391,26.337279 L33.294552,0.468307545 L40.030283,0.468307545 L35.8202781,26.337279 Z M23.4193088,0.468307545 L16.9984286,18.2611832 L16.2386348,14.4296912 L16.2393268,14.4310752 L13.9730931,2.79751143 C13.9730931,2.79751143 13.6990691,0.468307545 10.7782225,0.468307545 L0.163252973,0.468307545 L0.0386966155,0.906330735 C0.0386966155,0.906330735 3.28477368,1.58170298 7.08374258,3.86316026 L12.9351234,26.337971 L19.9524902,26.337971 L30.6677968,0.468307545 L23.4193088,0.468307545 Z M76.3938195,26.337279 L82.5780427,26.337279 L77.1861364,0.467615566 L71.7720867,0.467615566 C69.2719638,0.467615566 68.6630216,2.39547118 68.6630216,2.39547118 L58.6182434,26.337279 L65.6390701,26.337279 L67.043097,22.4947154 L75.6049626,22.4947154 L76.3938195,26.337279 Z M68.9827163,17.1865386 L72.5215008,7.50574173 L74.5123266,17.1865386 L68.9827163,17.1865386 Z M59.14484,6.68920561 L60.1059999,1.13399208 C60.1059999,1.13399208 57.1401746,0.00606506422 54.048409,0.00606506422 C50.7061468,0.00606506422 42.7691389,1.46683434 42.7691389,8.5700066 C42.7691389,15.2531471 52.0845705,15.3361847 52.0845705,18.8465981 C52.0845705,22.3570114 43.7289148,21.7280018 40.9713755,19.5143585 L39.9700808,25.3228366 C39.9700808,25.3228366 42.9774248,26.7836059 47.5721704,26.7836059 C52.1683,26.7836059 59.1019373,24.4038875 59.1019373,17.9269569 C59.1019373,11.2009137 49.7027761,10.574672 49.7027761,7.6503655 C49.7034681,4.72536704 56.2627443,5.10111205 59.14484,6.68920561 Z" id="Shape"></path>
                    </g>
                    <path d="M16.3066328,14.7433424 L14.0403991,3.10977868 C14.0403991,3.10977868 13.7663751,0.780574796 10.8455286,0.780574796 L0.230559007,0.780574796 L0.10600265,1.21859799 C0.10600265,1.21859799 5.20796944,2.27594306 10.1016503,6.2375272 C14.7808175,10.0240405 16.3066328,14.7433424 16.3066328,14.7433424 Z" id="Path" fill="#E6A540"></path>
                </g>
            </g>
        </g>
    </g>
</svg>