<?xml version="1.0" encoding="UTF-8"?>
<svg width="139px" height="30px" viewBox="0 0 139 30" version="1.1" xmlns="http://www.w3.org/2000/svg" xmlns:xlink="http://www.w3.org/1999/xlink">
    <!-- Generator: Sketch 52.6 (67491) - http://www.bohemiancoding.com/sketch -->
    <title>wework-vector-logo</title>
    <desc>Created with Sketch.</desc>
    <g id="Agency/Clients/Team" stroke="none" stroke-width="1" fill="none" fill-rule="evenodd">
        <g id="00-Dashboard-04-Vector-Agency-2" transform="translate(-1115.000000, -214.000000)" fill="#252729" fill-rule="nonzero">
            <g id="Group-9" transform="translate(900.000000, 201.000000)">
                <g id="wework-vector-logo" transform="translate(215.000000, 13.000000)">
                    <path d="M11.8543653,14.3647543 C12.7093585,14.3647543 13.4488121,14.3878622 14.1189419,14.5265098 C15.0663668,14.6882652 15.8520362,16.0054169 15.8520362,16.6524388 C15.8520362,16.9759498 15.8520362,17.3456765 15.7133887,17.8771588 C15.4823094,18.6859362 13.8878626,21.6206426 13.2177328,22.706715 C12.4089555,21.4126713 10.5372136,17.7616192 9.8901917,16.3289279 C9.6128966,15.7281218 9.47424906,15.2428554 9.47424906,14.9886682 C9.47424906,14.5034018 10.3523502,14.3647543 11.8543653,14.3647543 Z M1.20161208,14.3647543 C1.98728151,14.5727256 2.47254792,14.7344811 3.11956981,15.8898773 C5.43036226,20.1186275 7.74115472,24.7864282 9.9826234,29.3617973 C10.2599185,29.5928765 10.6065374,29.6622003 11.0686958,29.6622003 C11.5308543,29.6622003 11.8543653,29.6159845 12.1547683,29.3617973 C13.2177328,27.3514079 16.0368996,21.9210456 17.2616196,19.8182245 C18.671203,22.4294199 21.120643,27.1665445 22.1142838,29.3617973 C22.3915789,29.5928765 22.7381977,29.6622003 23.2003562,29.6622003 C23.6625147,29.6622003 24.0091336,29.6159845 24.2864287,29.3617973 C26.2737102,25.0637233 28.4227472,20.6038939 30.5948921,16.4444675 C31.3574536,14.9424524 31.6809645,14.5496177 33.2291955,14.2492147 L33.8762174,14.133675 C34.2459442,13.7639482 34.1535125,12.8858471 33.7375698,12.7009837 C32.6977132,12.7934154 31.4729932,12.8165233 30.1096257,12.8165233 C28.9311215,12.8165233 27.8219411,12.7703075 26.2506023,12.7009837 C25.7884438,12.8627392 25.7884438,13.833272 26.0657389,14.133675 L26.8514083,14.2954305 C27.6601857,14.457186 28.0299125,14.6651573 28.0299125,14.8731286 C28.0299125,15.1504237 27.8912649,15.7281218 27.5908619,16.4444675 C26.8514083,18.3162094 26.1119547,20.3265988 24.9796664,22.6604992 C23.9398098,20.6963256 22.645766,18.0620222 21.7907728,16.1209565 C21.5134777,15.4277188 21.421046,15.1735316 21.421046,14.8731286 C21.421046,14.6651573 22.0680679,14.457186 23.1541404,14.2492147 L23.8473781,14.133675 C24.193997,13.9719196 24.2171049,12.7471996 23.7087306,12.7009837 C20.7047004,12.7934154 18.3476921,12.8165233 15.3898777,12.8165233 L5.89252075,12.8165233 C3.92834717,12.8165233 2.42633208,12.7703075 0.485266415,12.7009837 C6.10622664e-16,12.908955 6.10622664e-16,13.8101641 0.323510943,14.133675 L1.20161208,14.3647543 Z" id="Fill-1"></path>
                    <path d="M40.4388679,14.0874592 C42.0333147,14.0874592 42.9345238,14.9655603 42.9345238,16.3058199 C42.9345238,16.7217626 42.8420921,17.1145973 42.6110128,17.2301369 C42.0795306,17.507432 41.340077,17.5998637 40.6699472,17.5998637 L38.9368528,17.5998637 C37.4348377,17.5998637 36.7878158,17.5767558 36.7878158,16.9990577 C36.7878158,15.7050139 38.4746943,14.0874592 40.4388679,14.0874592 Z M40.3926521,29.6159845 C43.2118189,29.6159845 46.7011155,28.4374803 48.6190732,24.9943996 C48.6190732,24.3011618 47.9027275,23.9776509 47.3943532,24.0469747 C46.1234174,25.9187165 44.3441072,26.1497958 43.0269555,26.1497958 C38.6595577,26.1497958 36.3949811,23.1919815 36.3949811,20.1417354 C36.3949811,19.4947135 36.4874128,19.4022818 37.5734853,19.4022818 L46.5855758,19.4022818 C48.064483,19.4022818 48.2724543,18.8245837 48.2724543,18.0620222 C48.2724543,14.9193445 45.6381509,12.2157173 40.7623789,12.2157173 C34.892966,12.2157173 30.618,16.1902803 30.618,21.3202396 C30.618,25.7569611 34.0610808,29.6159845 40.3926521,29.6159845 Z" id="Fill-4"></path>
                    <path d="M60.2885751,14.3647543 C61.1435683,14.3647543 61.8830219,14.3878622 62.5531517,14.5265098 C63.5005766,14.6882652 64.286246,16.0054169 64.286246,16.6524388 C64.286246,16.9759498 64.286246,17.3456765 64.1475985,17.8771588 C63.9165192,18.6859362 62.3220725,21.6206426 61.6519426,22.706715 C60.8431653,21.4126713 58.9714234,17.7616192 58.3244015,16.3289279 C58.0471064,15.7281218 57.9084589,15.2428554 57.9084589,14.9886682 C57.8853509,14.5034018 58.78656,14.3647543 60.2885751,14.3647543 Z M49.6358219,14.3647543 C50.4445992,14.5727256 50.9067577,14.7344811 51.5537796,15.8898773 C53.8414642,20.1186275 56.1753645,24.7864282 58.4168332,29.3617973 C58.6941283,29.5928765 59.0407472,29.6622003 59.5029057,29.6622003 C59.9650642,29.6622003 60.2885751,29.6159845 60.5889781,29.3617973 C61.6750506,27.3514079 64.4942174,21.9210456 65.7189374,19.8182245 C67.1285208,22.4294199 69.5548528,27.1665445 70.5484936,29.3617973 C70.8257887,29.5928765 71.1492996,29.6622003 71.634566,29.6622003 C72.1198325,29.6622003 72.4433434,29.6159845 72.7206385,29.3617973 C74.70792,25.0637233 76.856957,20.6038939 79.0291019,16.4444675 C79.7916634,14.9424524 80.1151743,14.5496177 81.6634053,14.2492147 L82.3335351,14.133675 C82.7032619,13.7639482 82.6108302,12.8858471 82.1948875,12.7009837 C81.1550309,12.7934154 79.9534189,12.8165233 78.5669434,12.8165233 C77.3884392,12.8165233 76.2792589,12.7703075 74.70792,12.7009837 C74.2226536,12.8627392 74.2226536,13.833272 74.5230566,14.133675 L75.331834,14.2954305 C76.1406113,14.457186 76.5103381,14.6651573 76.5103381,14.8731286 C76.5103381,15.1504237 76.3716906,15.7281218 76.0943955,16.4444675 C75.331834,18.3162094 74.5923804,20.3265988 73.4600921,22.6604992 C72.4202355,20.6963256 71.1261917,18.0620222 70.2711985,16.1209565 C69.9939034,15.4277188 69.9014717,15.1735316 69.9014717,14.8731286 C69.9014717,14.6651573 70.5484936,14.457186 71.634566,14.2492147 L72.3278038,14.133675 C72.6513147,13.9719196 72.6975306,12.7471996 72.1891562,12.7009837 C69.185126,12.7934154 66.8281177,12.8165233 63.8703034,12.8165233 L54.3729464,12.8165233 C52.4087728,12.8165233 50.9067577,12.7703075 48.9656921,12.7009837 C48.5035336,12.908955 48.5035336,13.8101641 48.8270445,14.133675 L49.6358219,14.3647543 Z" id="Fill-5"></path>
                    <path d="M89.8436106,14.0874592 C92.5010219,14.0874592 93.8181736,17.4843241 93.8874974,21.4357792 C93.9337132,25.0868313 93.0325042,27.7211347 90.3519849,27.7211347 C87.6483577,27.7211347 86.0770189,24.5784569 86.0770189,20.3265988 C86.0770189,15.9360932 87.7638974,14.0874592 89.8436106,14.0874592 Z M89.8436106,29.6159845 C95.6205917,29.6159845 100.635011,26.8199256 100.635011,20.881189 C100.635011,15.1504237 95.6436996,12.2388252 90.1209057,12.2388252 C84.5750038,12.2388252 79.2601811,15.4508267 79.306397,21.2509158 C79.3526128,26.8430335 84.2514928,29.6159845 89.8436106,29.6159845 Z" id="Fill-6"></path>
                    <path d="M108.653461,15.6587981 C108.930756,15.6587981 109.369807,15.7050139 110.432771,16.4675754 C111.033577,16.9528418 111.611275,17.207029 112.258297,17.207029 C113.760312,17.207029 115.262328,16.4444675 115.262328,14.5727256 C115.262328,13.0476026 113.945176,12.1695015 112.67424,12.1695015 C110.710066,12.1695015 109.346699,13.5097611 108.075763,14.2029988 C107.706036,14.133675 107.613605,13.9950275 107.613605,13.7177324 C107.613605,13.3480056 107.706036,12.7934154 107.798468,11.9615301 C107.613605,11.7304509 107.336309,11.5918033 106.966583,11.5918033 C105.510783,12.4236886 102.275674,13.5097611 100.103529,14.0412433 C99.7800181,14.2723226 99.7800181,15.0117762 100.103529,15.2659633 L100.773659,15.6356901 C101.65176,16.1209565 101.65176,16.606223 101.65176,18.2468856 L101.65176,24.3704856 C101.65176,27.2127603 101.466897,27.5824871 99.9186657,27.6980267 L99.0174566,27.7673505 C98.6477298,28.0215377 98.6477298,28.9458547 99.0636725,29.2000418 C100.611903,29.1076101 102.691617,29.0845022 104.609574,29.0845022 C106.804827,29.0845022 108.699677,29.1307181 110.964254,29.2000418 C111.380196,28.9458547 111.380196,28.0215377 111.010469,27.7673505 L109.508454,27.6518109 C107.960223,27.5131633 107.77536,27.1896524 107.77536,24.3473777 L107.77536,18.0851301 C107.752252,16.5600071 107.983331,15.6587981 108.653461,15.6587981" id="Fill-7"></path>
                    <path d="M127.070477,27.628703 L126.469671,27.7673505 C126.099944,28.1370773 126.169268,28.9689626 126.654534,29.1769339 C127.971686,29.1076101 129.658565,29.0613943 132.431515,29.0613943 C135.158251,29.0613943 136.891345,29.1076101 138.347144,29.1769339 C138.809303,29.0151784 138.924842,28.0446456 138.532008,27.7673505 L137.83877,27.628703 C136.61405,27.4207316 135.735949,27.2127603 135.065819,26.704386 C133.887315,25.780069 129.750996,20.2341671 128.919111,18.9401233 C128.664924,18.6166124 128.572492,18.3855332 128.572492,18.2468856 C128.572492,18.131346 128.618708,17.9695905 128.849787,17.7154033 C129.519917,17.1608132 130.236263,16.5368992 132.015573,15.358395 C133.286509,14.5034018 134.280149,14.1105671 135.158251,13.9488116 L136.660266,13.6715165 C137.006885,13.3480056 136.960669,12.4467965 136.475402,12.2619332 C133.702451,12.6316599 129.82032,12.8396313 127.601959,12.8396313 L126.469671,12.8396313 C126.007512,13.0013867 125.938189,13.9025958 126.377239,14.2492147 L127.555743,14.4109701 C127.971686,14.4340781 128.433845,14.5958335 128.433845,14.8038048 C128.433845,15.057992 128.202765,15.4970426 127.301556,16.4213596 L125.337383,18.431749 C124.389958,19.356066 123.419425,19.5640373 122.610648,19.5640373 C122.102273,19.5640373 121.940518,19.4484977 121.940518,18.9863392 L121.940518,6.23076485 C121.940518,3.66578523 122.009842,1.95579881 122.102273,0.292028245 C121.91741,0.0840569241 121.570791,0.0147331505 121.293496,0.0147331505 C118.890272,0.892834283 116.024889,1.88647504 114.106931,2.27930975 C113.78342,2.53349692 113.78342,3.27295051 114.106931,3.50402975 L114.892601,3.9199724 C115.840026,4.40523881 115.840026,4.84428938 115.840026,6.48495202 L115.840026,24.3473777 C115.840026,27.1896524 115.655162,27.5131633 113.945176,27.6749188 L113.043967,27.7442426 C112.67424,27.9753218 112.67424,28.9227467 113.090183,29.153826 C114.730845,29.0845022 116.671911,29.0382864 118.820948,29.0382864 C120.993093,29.0382864 122.957266,29.0845022 124.459282,29.153826 C124.875224,28.9227467 124.875224,27.9753218 124.505497,27.7442426 L123.766044,27.6749188 C122.125381,27.5131633 121.91741,27.1896524 121.91741,24.3473777 L121.91741,21.9903694 C121.91741,21.2046999 122.148489,21.0198365 122.472,21.0198365 C122.934158,21.0198365 123.326993,21.181592 123.650504,21.6206426 L126.978045,26.0111482 C127.347772,26.4964147 127.763715,27.1434365 127.763715,27.3282999 C127.833038,27.4669475 127.555743,27.5362713 127.070477,27.628703" id="Fill-8"></path>
                </g>
            </g>
        </g>
    </g>
</svg>